<?xml version="1.0" encoding="utf-8" standalone="no"?>
<!DOCTYPE svg PUBLIC "-//W3C//DTD SVG 1.1//EN"
  "http://www.w3.org/Graphics/SVG/1.1/DTD/svg11.dtd">
<svg xmlns:xlink="http://www.w3.org/1999/xlink" width="509.549375pt" height="388.13775pt" viewBox="0 0 509.549375 388.13775" xmlns="http://www.w3.org/2000/svg" version="1.1">
 <metadata>
  <rdf:RDF xmlns:dc="http://purl.org/dc/elements/1.1/" xmlns:cc="http://creativecommons.org/ns#" xmlns:rdf="http://www.w3.org/1999/02/22-rdf-syntax-ns#">
   <cc:Work>
    <dc:type rdf:resource="http://purl.org/dc/dcmitype/StillImage"/>
    <dc:date>2026-06-01T12:17:38.171067</dc:date>
    <dc:format>image/svg+xml</dc:format>
    <dc:creator>
     <cc:Agent>
      <dc:title>Matplotlib v3.10.9, https://matplotlib.org/</dc:title>
     </cc:Agent>
    </dc:creator>
   </cc:Work>
  </rdf:RDF>
 </metadata>
 <defs>
  <style type="text/css">*{stroke-linejoin: round; stroke-linecap: butt}</style>
 </defs>
 <g id="figure_1">
  <g id="patch_1">
   <path d="M 0 388.13775 
L 509.549375 388.13775 
L 509.549375 0 
L 0 0 
z
" style="fill: #ffffff"/>
  </g>
  <g id="axes_1">
   <g id="patch_2">
    <path d="M 55.949375 284.4 
L 502.349375 284.4 
L 502.349375 7.2 
L 55.949375 7.2 
z
" style="fill: #ffffff"/>
   </g>
   <g id="matplotlib.axis_1">
    <g id="xtick_1">
     <g id="line2d_1">
      <path d="M 74.7386 284.4 
L 74.7386 7.2 
" clip-path="url(#p2c81cca05e)" style="fill: none; stroke: #b0b0b0; stroke-width: 0.8; stroke-linecap: square"/>
     </g>
     <g id="line2d_2">
      <defs>
       <path id="m9f1e53b521" d="M 0 0 
L 0 3.5 
" style="stroke: #000000; stroke-width: 0.8"/>
      </defs>
      <g>
       <use xlink:href="#m9f1e53b521" x="74.7386" y="284.4" style="stroke: #000000; stroke-width: 0.8"/>
      </g>
     </g>
     <g id="text_1">
      <!-- 0 -->
      <g transform="translate(70.28485 302.037813) scale(0.14 -0.14)">
       <defs>
        <path id="DejaVuSans-30" d="M 2034 4250 
Q 1547 4250 1301 3770 
Q 1056 3291 1056 2328 
Q 1056 1369 1301 889 
Q 1547 409 2034 409 
Q 2525 409 2770 889 
Q 3016 1369 3016 2328 
Q 3016 3291 2770 3770 
Q 2525 4250 2034 4250 
z
M 2034 4750 
Q 2819 4750 3233 4129 
Q 3647 3509 3647 2328 
Q 3647 1150 3233 529 
Q 2819 -91 2034 -91 
Q 1250 -91 836 529 
Q 422 1150 422 2328 
Q 422 3509 836 4129 
Q 1250 4750 2034 4750 
z
" transform="scale(0.015625)"/>
       </defs>
       <use xlink:href="#DejaVuSans-30"/>
      </g>
     </g>
    </g>
    <g id="xtick_2">
     <g id="line2d_3">
      <path d="M 149.88962 284.4 
L 149.88962 7.2 
" clip-path="url(#p2c81cca05e)" style="fill: none; stroke: #b0b0b0; stroke-width: 0.8; stroke-linecap: square"/>
     </g>
     <g id="line2d_4">
      <g>
       <use xlink:href="#m9f1e53b521" x="149.88962" y="284.4" style="stroke: #000000; stroke-width: 0.8"/>
      </g>
     </g>
     <g id="text_2">
      <!-- 50 -->
      <g transform="translate(140.98212 302.037813) scale(0.14 -0.14)">
       <defs>
        <path id="DejaVuSans-35" d="M 691 4666 
L 3169 4666 
L 3169 4134 
L 1269 4134 
L 1269 2991 
Q 1406 3038 1543 3061 
Q 1681 3084 1819 3084 
Q 2600 3084 3056 2656 
Q 3513 2228 3513 1497 
Q 3513 744 3044 326 
Q 2575 -91 1722 -91 
Q 1428 -91 1123 -41 
Q 819 9 494 109 
L 494 744 
Q 775 591 1075 516 
Q 1375 441 1709 441 
Q 2250 441 2565 725 
Q 2881 1009 2881 1497 
Q 2881 1984 2565 2268 
Q 2250 2553 1709 2553 
Q 1456 2553 1204 2497 
Q 953 2441 691 2322 
L 691 4666 
z
" transform="scale(0.015625)"/>
       </defs>
       <use xlink:href="#DejaVuSans-35"/>
       <use xlink:href="#DejaVuSans-30" transform="translate(63.623047 0)"/>
      </g>
     </g>
    </g>
    <g id="xtick_3">
     <g id="line2d_5">
      <path d="M 225.04064 284.4 
L 225.04064 7.2 
" clip-path="url(#p2c81cca05e)" style="fill: none; stroke: #b0b0b0; stroke-width: 0.8; stroke-linecap: square"/>
     </g>
     <g id="line2d_6">
      <g>
       <use xlink:href="#m9f1e53b521" x="225.04064" y="284.4" style="stroke: #000000; stroke-width: 0.8"/>
      </g>
     </g>
     <g id="text_3">
      <!-- 100 -->
      <g transform="translate(211.67939 302.037813) scale(0.14 -0.14)">
       <defs>
        <path id="DejaVuSans-31" d="M 794 531 
L 1825 531 
L 1825 4091 
L 703 3866 
L 703 4441 
L 1819 4666 
L 2450 4666 
L 2450 531 
L 3481 531 
L 3481 0 
L 794 0 
L 794 531 
z
" transform="scale(0.015625)"/>
       </defs>
       <use xlink:href="#DejaVuSans-31"/>
       <use xlink:href="#DejaVuSans-30" transform="translate(63.623047 0)"/>
       <use xlink:href="#DejaVuSans-30" transform="translate(127.246094 0)"/>
      </g>
     </g>
    </g>
    <g id="xtick_4">
     <g id="line2d_7">
      <path d="M 300.191661 284.4 
L 300.191661 7.2 
" clip-path="url(#p2c81cca05e)" style="fill: none; stroke: #b0b0b0; stroke-width: 0.8; stroke-linecap: square"/>
     </g>
     <g id="line2d_8">
      <g>
       <use xlink:href="#m9f1e53b521" x="300.191661" y="284.4" style="stroke: #000000; stroke-width: 0.8"/>
      </g>
     </g>
     <g id="text_4">
      <!-- 150 -->
      <g transform="translate(286.830411 302.037813) scale(0.14 -0.14)">
       <use xlink:href="#DejaVuSans-31"/>
       <use xlink:href="#DejaVuSans-35" transform="translate(63.623047 0)"/>
       <use xlink:href="#DejaVuSans-30" transform="translate(127.246094 0)"/>
      </g>
     </g>
    </g>
    <g id="xtick_5">
     <g id="line2d_9">
      <path d="M 375.342681 284.4 
L 375.342681 7.2 
" clip-path="url(#p2c81cca05e)" style="fill: none; stroke: #b0b0b0; stroke-width: 0.8; stroke-linecap: square"/>
     </g>
     <g id="line2d_10">
      <g>
       <use xlink:href="#m9f1e53b521" x="375.342681" y="284.4" style="stroke: #000000; stroke-width: 0.8"/>
      </g>
     </g>
     <g id="text_5">
      <!-- 200 -->
      <g transform="translate(361.981431 302.037813) scale(0.14 -0.14)">
       <defs>
        <path id="DejaVuSans-32" d="M 1228 531 
L 3431 531 
L 3431 0 
L 469 0 
L 469 531 
Q 828 903 1448 1529 
Q 2069 2156 2228 2338 
Q 2531 2678 2651 2914 
Q 2772 3150 2772 3378 
Q 2772 3750 2511 3984 
Q 2250 4219 1831 4219 
Q 1534 4219 1204 4116 
Q 875 4013 500 3803 
L 500 4441 
Q 881 4594 1212 4672 
Q 1544 4750 1819 4750 
Q 2544 4750 2975 4387 
Q 3406 4025 3406 3419 
Q 3406 3131 3298 2873 
Q 3191 2616 2906 2266 
Q 2828 2175 2409 1742 
Q 1991 1309 1228 531 
z
" transform="scale(0.015625)"/>
       </defs>
       <use xlink:href="#DejaVuSans-32"/>
       <use xlink:href="#DejaVuSans-30" transform="translate(63.623047 0)"/>
       <use xlink:href="#DejaVuSans-30" transform="translate(127.246094 0)"/>
      </g>
     </g>
    </g>
    <g id="xtick_6">
     <g id="line2d_11">
      <path d="M 450.493701 284.4 
L 450.493701 7.2 
" clip-path="url(#p2c81cca05e)" style="fill: none; stroke: #b0b0b0; stroke-width: 0.8; stroke-linecap: square"/>
     </g>
     <g id="line2d_12">
      <g>
       <use xlink:href="#m9f1e53b521" x="450.493701" y="284.4" style="stroke: #000000; stroke-width: 0.8"/>
      </g>
     </g>
     <g id="text_6">
      <!-- 250 -->
      <g transform="translate(437.132451 302.037813) scale(0.14 -0.14)">
       <use xlink:href="#DejaVuSans-32"/>
       <use xlink:href="#DejaVuSans-35" transform="translate(63.623047 0)"/>
       <use xlink:href="#DejaVuSans-30" transform="translate(127.246094 0)"/>
      </g>
     </g>
    </g>
    <g id="text_7">
     <!-- Delay [µs] -->
     <g transform="translate(238.164375 321.106875) scale(0.16 -0.16)">
      <defs>
       <path id="DejaVuSans-44" d="M 1259 4147 
L 1259 519 
L 2022 519 
Q 2988 519 3436 956 
Q 3884 1394 3884 2338 
Q 3884 3275 3436 3711 
Q 2988 4147 2022 4147 
L 1259 4147 
z
M 628 4666 
L 1925 4666 
Q 3281 4666 3915 4102 
Q 4550 3538 4550 2338 
Q 4550 1131 3912 565 
Q 3275 0 1925 0 
L 628 0 
L 628 4666 
z
" transform="scale(0.015625)"/>
       <path id="DejaVuSans-65" d="M 3597 1894 
L 3597 1613 
L 953 1613 
Q 991 1019 1311 708 
Q 1631 397 2203 397 
Q 2534 397 2845 478 
Q 3156 559 3463 722 
L 3463 178 
Q 3153 47 2828 -22 
Q 2503 -91 2169 -91 
Q 1331 -91 842 396 
Q 353 884 353 1716 
Q 353 2575 817 3079 
Q 1281 3584 2069 3584 
Q 2775 3584 3186 3129 
Q 3597 2675 3597 1894 
z
M 3022 2063 
Q 3016 2534 2758 2815 
Q 2500 3097 2075 3097 
Q 1594 3097 1305 2825 
Q 1016 2553 972 2059 
L 3022 2063 
z
" transform="scale(0.015625)"/>
       <path id="DejaVuSans-6c" d="M 603 4863 
L 1178 4863 
L 1178 0 
L 603 0 
L 603 4863 
z
" transform="scale(0.015625)"/>
       <path id="DejaVuSans-61" d="M 2194 1759 
Q 1497 1759 1228 1600 
Q 959 1441 959 1056 
Q 959 750 1161 570 
Q 1363 391 1709 391 
Q 2188 391 2477 730 
Q 2766 1069 2766 1631 
L 2766 1759 
L 2194 1759 
z
M 3341 1997 
L 3341 0 
L 2766 0 
L 2766 531 
Q 2569 213 2275 61 
Q 1981 -91 1556 -91 
Q 1019 -91 701 211 
Q 384 513 384 1019 
Q 384 1609 779 1909 
Q 1175 2209 1959 2209 
L 2766 2209 
L 2766 2266 
Q 2766 2663 2505 2880 
Q 2244 3097 1772 3097 
Q 1472 3097 1187 3025 
Q 903 2953 641 2809 
L 641 3341 
Q 956 3463 1253 3523 
Q 1550 3584 1831 3584 
Q 2591 3584 2966 3190 
Q 3341 2797 3341 1997 
z
" transform="scale(0.015625)"/>
       <path id="DejaVuSans-79" d="M 2059 -325 
Q 1816 -950 1584 -1140 
Q 1353 -1331 966 -1331 
L 506 -1331 
L 506 -850 
L 844 -850 
Q 1081 -850 1212 -737 
Q 1344 -625 1503 -206 
L 1606 56 
L 191 3500 
L 800 3500 
L 1894 763 
L 2988 3500 
L 3597 3500 
L 2059 -325 
z
" transform="scale(0.015625)"/>
       <path id="DejaVuSans-20" transform="scale(0.015625)"/>
       <path id="DejaVuSans-5b" d="M 550 4863 
L 1875 4863 
L 1875 4416 
L 1125 4416 
L 1125 -397 
L 1875 -397 
L 1875 -844 
L 550 -844 
L 550 4863 
z
" transform="scale(0.015625)"/>
       <path id="DejaVuSans-b5" d="M 544 -1331 
L 544 3500 
L 1119 3500 
L 1119 1325 
Q 1119 872 1334 640 
Q 1550 409 1972 409 
Q 2434 409 2667 671 
Q 2900 934 2900 1459 
L 2900 3500 
L 3475 3500 
L 3475 806 
Q 3475 619 3529 530 
Q 3584 441 3700 441 
Q 3728 441 3778 458 
Q 3828 475 3916 513 
L 3916 50 
Q 3788 -22 3673 -56 
Q 3559 -91 3450 -91 
Q 3234 -91 3106 31 
Q 2978 153 2931 403 
Q 2775 156 2548 32 
Q 2322 -91 2016 -91 
Q 1697 -91 1473 31 
Q 1250 153 1119 397 
L 1119 -1331 
L 544 -1331 
z
" transform="scale(0.015625)"/>
       <path id="DejaVuSans-73" d="M 2834 3397 
L 2834 2853 
Q 2591 2978 2328 3040 
Q 2066 3103 1784 3103 
Q 1356 3103 1142 2972 
Q 928 2841 928 2578 
Q 928 2378 1081 2264 
Q 1234 2150 1697 2047 
L 1894 2003 
Q 2506 1872 2764 1633 
Q 3022 1394 3022 966 
Q 3022 478 2636 193 
Q 2250 -91 1575 -91 
Q 1294 -91 989 -36 
Q 684 19 347 128 
L 347 722 
Q 666 556 975 473 
Q 1284 391 1588 391 
Q 1994 391 2212 530 
Q 2431 669 2431 922 
Q 2431 1156 2273 1281 
Q 2116 1406 1581 1522 
L 1381 1569 
Q 847 1681 609 1914 
Q 372 2147 372 2553 
Q 372 3047 722 3315 
Q 1072 3584 1716 3584 
Q 2034 3584 2315 3537 
Q 2597 3491 2834 3397 
z
" transform="scale(0.015625)"/>
       <path id="DejaVuSans-5d" d="M 1947 4863 
L 1947 -844 
L 622 -844 
L 622 -397 
L 1369 -397 
L 1369 4416 
L 622 4416 
L 622 4863 
L 1947 4863 
z
" transform="scale(0.015625)"/>
      </defs>
      <use xlink:href="#DejaVuSans-44"/>
      <use xlink:href="#DejaVuSans-65" transform="translate(77.001953 0)"/>
      <use xlink:href="#DejaVuSans-6c" transform="translate(138.525391 0)"/>
      <use xlink:href="#DejaVuSans-61" transform="translate(166.308594 0)"/>
      <use xlink:href="#DejaVuSans-79" transform="translate(227.587891 0)"/>
      <use xlink:href="#DejaVuSans-20" transform="translate(286.767578 0)"/>
      <use xlink:href="#DejaVuSans-5b" transform="translate(318.554688 0)"/>
      <use xlink:href="#DejaVuSans-b5" transform="translate(357.568359 0)"/>
      <use xlink:href="#DejaVuSans-73" transform="translate(421.191406 0)"/>
      <use xlink:href="#DejaVuSans-5d" transform="translate(473.291016 0)"/>
     </g>
    </g>
   </g>
   <g id="matplotlib.axis_2">
    <g id="ytick_1">
     <g id="line2d_13">
      <path d="M 55.949375 250.62168 
L 502.349375 250.62168 
" clip-path="url(#p2c81cca05e)" style="fill: none; stroke: #b0b0b0; stroke-width: 0.8; stroke-linecap: square"/>
     </g>
     <g id="line2d_14">
      <defs>
       <path id="mfdcd49ffc4" d="M 0 0 
L -3.5 0 
" style="stroke: #000000; stroke-width: 0.8"/>
      </defs>
      <g>
       <use xlink:href="#mfdcd49ffc4" x="55.949375" y="250.62168" style="stroke: #000000; stroke-width: 0.8"/>
      </g>
     </g>
     <g id="text_8">
      <!-- 0.2 -->
      <g transform="translate(26.685 255.940586) scale(0.14 -0.14)">
       <defs>
        <path id="DejaVuSans-2e" d="M 684 794 
L 1344 794 
L 1344 0 
L 684 0 
L 684 794 
z
" transform="scale(0.015625)"/>
       </defs>
       <use xlink:href="#DejaVuSans-30"/>
       <use xlink:href="#DejaVuSans-2e" transform="translate(63.623047 0)"/>
       <use xlink:href="#DejaVuSans-32" transform="translate(95.410156 0)"/>
      </g>
     </g>
    </g>
    <g id="ytick_2">
     <g id="line2d_15">
      <path d="M 55.949375 191.947516 
L 502.349375 191.947516 
" clip-path="url(#p2c81cca05e)" style="fill: none; stroke: #b0b0b0; stroke-width: 0.8; stroke-linecap: square"/>
     </g>
     <g id="line2d_16">
      <g>
       <use xlink:href="#mfdcd49ffc4" x="55.949375" y="191.947516" style="stroke: #000000; stroke-width: 0.8"/>
      </g>
     </g>
     <g id="text_9">
      <!-- 0.4 -->
      <g transform="translate(26.685 197.266422) scale(0.14 -0.14)">
       <defs>
        <path id="DejaVuSans-34" d="M 2419 4116 
L 825 1625 
L 2419 1625 
L 2419 4116 
z
M 2253 4666 
L 3047 4666 
L 3047 1625 
L 3713 1625 
L 3713 1100 
L 3047 1100 
L 3047 0 
L 2419 0 
L 2419 1100 
L 313 1100 
L 313 1709 
L 2253 4666 
z
" transform="scale(0.015625)"/>
       </defs>
       <use xlink:href="#DejaVuSans-30"/>
       <use xlink:href="#DejaVuSans-2e" transform="translate(63.623047 0)"/>
       <use xlink:href="#DejaVuSans-34" transform="translate(95.410156 0)"/>
      </g>
     </g>
    </g>
    <g id="ytick_3">
     <g id="line2d_17">
      <path d="M 55.949375 133.273353 
L 502.349375 133.273353 
" clip-path="url(#p2c81cca05e)" style="fill: none; stroke: #b0b0b0; stroke-width: 0.8; stroke-linecap: square"/>
     </g>
     <g id="line2d_18">
      <g>
       <use xlink:href="#mfdcd49ffc4" x="55.949375" y="133.273353" style="stroke: #000000; stroke-width: 0.8"/>
      </g>
     </g>
     <g id="text_10">
      <!-- 0.6 -->
      <g transform="translate(26.685 138.592259) scale(0.14 -0.14)">
       <defs>
        <path id="DejaVuSans-36" d="M 2113 2584 
Q 1688 2584 1439 2293 
Q 1191 2003 1191 1497 
Q 1191 994 1439 701 
Q 1688 409 2113 409 
Q 2538 409 2786 701 
Q 3034 994 3034 1497 
Q 3034 2003 2786 2293 
Q 2538 2584 2113 2584 
z
M 3366 4563 
L 3366 3988 
Q 3128 4100 2886 4159 
Q 2644 4219 2406 4219 
Q 1781 4219 1451 3797 
Q 1122 3375 1075 2522 
Q 1259 2794 1537 2939 
Q 1816 3084 2150 3084 
Q 2853 3084 3261 2657 
Q 3669 2231 3669 1497 
Q 3669 778 3244 343 
Q 2819 -91 2113 -91 
Q 1303 -91 875 529 
Q 447 1150 447 2328 
Q 447 3434 972 4092 
Q 1497 4750 2381 4750 
Q 2619 4750 2861 4703 
Q 3103 4656 3366 4563 
z
" transform="scale(0.015625)"/>
       </defs>
       <use xlink:href="#DejaVuSans-30"/>
       <use xlink:href="#DejaVuSans-2e" transform="translate(63.623047 0)"/>
       <use xlink:href="#DejaVuSans-36" transform="translate(95.410156 0)"/>
      </g>
     </g>
    </g>
    <g id="ytick_4">
     <g id="line2d_19">
      <path d="M 55.949375 74.599189 
L 502.349375 74.599189 
" clip-path="url(#p2c81cca05e)" style="fill: none; stroke: #b0b0b0; stroke-width: 0.8; stroke-linecap: square"/>
     </g>
     <g id="line2d_20">
      <g>
       <use xlink:href="#mfdcd49ffc4" x="55.949375" y="74.599189" style="stroke: #000000; stroke-width: 0.8"/>
      </g>
     </g>
     <g id="text_11">
      <!-- 0.8 -->
      <g transform="translate(26.685 79.918095) scale(0.14 -0.14)">
       <defs>
        <path id="DejaVuSans-38" d="M 2034 2216 
Q 1584 2216 1326 1975 
Q 1069 1734 1069 1313 
Q 1069 891 1326 650 
Q 1584 409 2034 409 
Q 2484 409 2743 651 
Q 3003 894 3003 1313 
Q 3003 1734 2745 1975 
Q 2488 2216 2034 2216 
z
M 1403 2484 
Q 997 2584 770 2862 
Q 544 3141 544 3541 
Q 544 4100 942 4425 
Q 1341 4750 2034 4750 
Q 2731 4750 3128 4425 
Q 3525 4100 3525 3541 
Q 3525 3141 3298 2862 
Q 3072 2584 2669 2484 
Q 3125 2378 3379 2068 
Q 3634 1759 3634 1313 
Q 3634 634 3220 271 
Q 2806 -91 2034 -91 
Q 1263 -91 848 271 
Q 434 634 434 1313 
Q 434 1759 690 2068 
Q 947 2378 1403 2484 
z
M 1172 3481 
Q 1172 3119 1398 2916 
Q 1625 2713 2034 2713 
Q 2441 2713 2670 2916 
Q 2900 3119 2900 3481 
Q 2900 3844 2670 4047 
Q 2441 4250 2034 4250 
Q 1625 4250 1398 4047 
Q 1172 3844 1172 3481 
z
" transform="scale(0.015625)"/>
       </defs>
       <use xlink:href="#DejaVuSans-30"/>
       <use xlink:href="#DejaVuSans-2e" transform="translate(63.623047 0)"/>
       <use xlink:href="#DejaVuSans-38" transform="translate(95.410156 0)"/>
      </g>
     </g>
    </g>
    <g id="ytick_5">
     <g id="line2d_21">
      <path d="M 55.949375 15.925026 
L 502.349375 15.925026 
" clip-path="url(#p2c81cca05e)" style="fill: none; stroke: #b0b0b0; stroke-width: 0.8; stroke-linecap: square"/>
     </g>
     <g id="line2d_22">
      <g>
       <use xlink:href="#mfdcd49ffc4" x="55.949375" y="15.925026" style="stroke: #000000; stroke-width: 0.8"/>
      </g>
     </g>
     <g id="text_12">
      <!-- 1.0 -->
      <g transform="translate(26.685 21.243932) scale(0.14 -0.14)">
       <use xlink:href="#DejaVuSans-31"/>
       <use xlink:href="#DejaVuSans-2e" transform="translate(63.623047 0)"/>
       <use xlink:href="#DejaVuSans-30" transform="translate(95.410156 0)"/>
      </g>
     </g>
    </g>
    <g id="text_13">
     <!-- P(1) -->
     <g transform="translate(19.3575 161.95625) rotate(-90) scale(0.16 -0.16)">
      <defs>
       <path id="DejaVuSans-50" d="M 1259 4147 
L 1259 2394 
L 2053 2394 
Q 2494 2394 2734 2622 
Q 2975 2850 2975 3272 
Q 2975 3691 2734 3919 
Q 2494 4147 2053 4147 
L 1259 4147 
z
M 628 4666 
L 2053 4666 
Q 2838 4666 3239 4311 
Q 3641 3956 3641 3272 
Q 3641 2581 3239 2228 
Q 2838 1875 2053 1875 
L 1259 1875 
L 1259 0 
L 628 0 
L 628 4666 
z
" transform="scale(0.015625)"/>
       <path id="DejaVuSans-28" d="M 1984 4856 
Q 1566 4138 1362 3434 
Q 1159 2731 1159 2009 
Q 1159 1288 1364 580 
Q 1569 -128 1984 -844 
L 1484 -844 
Q 1016 -109 783 600 
Q 550 1309 550 2009 
Q 550 2706 781 3412 
Q 1013 4119 1484 4856 
L 1984 4856 
z
" transform="scale(0.015625)"/>
       <path id="DejaVuSans-29" d="M 513 4856 
L 1013 4856 
Q 1481 4119 1714 3412 
Q 1947 2706 1947 2009 
Q 1947 1309 1714 600 
Q 1481 -109 1013 -844 
L 513 -844 
Q 928 -128 1133 580 
Q 1338 1288 1338 2009 
Q 1338 2731 1133 3434 
Q 928 4138 513 4856 
z
" transform="scale(0.015625)"/>
      </defs>
      <use xlink:href="#DejaVuSans-50"/>
      <use xlink:href="#DejaVuSans-28" transform="translate(60.302734 0)"/>
      <use xlink:href="#DejaVuSans-31" transform="translate(99.316406 0)"/>
      <use xlink:href="#DejaVuSans-29" transform="translate(162.939453 0)"/>
     </g>
    </g>
   </g>
   <g id="LineCollection_1">
    <path d="M 76.240284 30.8342 
L 76.240284 27.061456 
" clip-path="url(#p2c81cca05e)" style="fill: none; stroke: #1f77b4; stroke-opacity: 0.8; stroke-width: 1.5"/>
    <path d="M 121.333568 86.01363 
L 121.333568 78.354167 
" clip-path="url(#p2c81cca05e)" style="fill: none; stroke: #1f77b4; stroke-opacity: 0.8; stroke-width: 1.5"/>
    <path d="M 166.421508 136.17578 
L 166.421508 127.222555 
" clip-path="url(#p2c81cca05e)" style="fill: none; stroke: #1f77b4; stroke-opacity: 0.8; stroke-width: 1.5"/>
    <path d="M 211.514793 166.331159 
L 211.514793 157.172417 
" clip-path="url(#p2c81cca05e)" style="fill: none; stroke: #1f77b4; stroke-opacity: 0.8; stroke-width: 1.5"/>
    <path d="M 256.602733 203.68033 
L 256.602733 194.811689 
" clip-path="url(#p2c81cca05e)" style="fill: none; stroke: #1f77b4; stroke-opacity: 0.8; stroke-width: 1.5"/>
    <path d="M 301.696017 215.587229 
L 301.696017 206.946886 
" clip-path="url(#p2c81cca05e)" style="fill: none; stroke: #1f77b4; stroke-opacity: 0.8; stroke-width: 1.5"/>
    <path d="M 346.783957 233.377446 
L 346.783957 225.219814 
" clip-path="url(#p2c81cca05e)" style="fill: none; stroke: #1f77b4; stroke-opacity: 0.8; stroke-width: 1.5"/>
    <path d="M 391.877242 251.90816 
L 391.877242 244.469537 
" clip-path="url(#p2c81cca05e)" style="fill: none; stroke: #1f77b4; stroke-opacity: 0.8; stroke-width: 1.5"/>
    <path d="M 436.965182 258.61349 
L 436.965182 251.502547 
" clip-path="url(#p2c81cca05e)" style="fill: none; stroke: #1f77b4; stroke-opacity: 0.8; stroke-width: 1.5"/>
    <path d="M 482.058466 268.352495 
L 482.058466 261.798623 
" clip-path="url(#p2c81cca05e)" style="fill: none; stroke: #1f77b4; stroke-opacity: 0.8; stroke-width: 1.5"/>
   </g>
   <g id="line2d_23">
    <defs>
     <path id="m67e9b025d0" d="M 4 0 
L -4 -0 
" style="stroke: #1f77b4; stroke-opacity: 0.8"/>
    </defs>
    <g clip-path="url(#p2c81cca05e)">
     <use xlink:href="#m67e9b025d0" x="76.240284" y="30.8342" style="fill: #1f77b4; fill-opacity: 0.8; stroke: #1f77b4; stroke-opacity: 0.8"/>
     <use xlink:href="#m67e9b025d0" x="121.333568" y="86.01363" style="fill: #1f77b4; fill-opacity: 0.8; stroke: #1f77b4; stroke-opacity: 0.8"/>
     <use xlink:href="#m67e9b025d0" x="166.421508" y="136.17578" style="fill: #1f77b4; fill-opacity: 0.8; stroke: #1f77b4; stroke-opacity: 0.8"/>
     <use xlink:href="#m67e9b025d0" x="211.514793" y="166.331159" style="fill: #1f77b4; fill-opacity: 0.8; stroke: #1f77b4; stroke-opacity: 0.8"/>
     <use xlink:href="#m67e9b025d0" x="256.602733" y="203.68033" style="fill: #1f77b4; fill-opacity: 0.8; stroke: #1f77b4; stroke-opacity: 0.8"/>
     <use xlink:href="#m67e9b025d0" x="301.696017" y="215.587229" style="fill: #1f77b4; fill-opacity: 0.8; stroke: #1f77b4; stroke-opacity: 0.8"/>
     <use xlink:href="#m67e9b025d0" x="346.783957" y="233.377446" style="fill: #1f77b4; fill-opacity: 0.8; stroke: #1f77b4; stroke-opacity: 0.8"/>
     <use xlink:href="#m67e9b025d0" x="391.877242" y="251.90816" style="fill: #1f77b4; fill-opacity: 0.8; stroke: #1f77b4; stroke-opacity: 0.8"/>
     <use xlink:href="#m67e9b025d0" x="436.965182" y="258.61349" style="fill: #1f77b4; fill-opacity: 0.8; stroke: #1f77b4; stroke-opacity: 0.8"/>
     <use xlink:href="#m67e9b025d0" x="482.058466" y="268.352495" style="fill: #1f77b4; fill-opacity: 0.8; stroke: #1f77b4; stroke-opacity: 0.8"/>
    </g>
   </g>
   <g id="line2d_24">
    <g clip-path="url(#p2c81cca05e)">
     <use xlink:href="#m67e9b025d0" x="76.240284" y="27.061456" style="fill: #1f77b4; fill-opacity: 0.8; stroke: #1f77b4; stroke-opacity: 0.8"/>
     <use xlink:href="#m67e9b025d0" x="121.333568" y="78.354167" style="fill: #1f77b4; fill-opacity: 0.8; stroke: #1f77b4; stroke-opacity: 0.8"/>
     <use xlink:href="#m67e9b025d0" x="166.421508" y="127.222555" style="fill: #1f77b4; fill-opacity: 0.8; stroke: #1f77b4; stroke-opacity: 0.8"/>
     <use xlink:href="#m67e9b025d0" x="211.514793" y="157.172417" style="fill: #1f77b4; fill-opacity: 0.8; stroke: #1f77b4; stroke-opacity: 0.8"/>
     <use xlink:href="#m67e9b025d0" x="256.602733" y="194.811689" style="fill: #1f77b4; fill-opacity: 0.8; stroke: #1f77b4; stroke-opacity: 0.8"/>
     <use xlink:href="#m67e9b025d0" x="301.696017" y="206.946886" style="fill: #1f77b4; fill-opacity: 0.8; stroke: #1f77b4; stroke-opacity: 0.8"/>
     <use xlink:href="#m67e9b025d0" x="346.783957" y="225.219814" style="fill: #1f77b4; fill-opacity: 0.8; stroke: #1f77b4; stroke-opacity: 0.8"/>
     <use xlink:href="#m67e9b025d0" x="391.877242" y="244.469537" style="fill: #1f77b4; fill-opacity: 0.8; stroke: #1f77b4; stroke-opacity: 0.8"/>
     <use xlink:href="#m67e9b025d0" x="436.965182" y="251.502547" style="fill: #1f77b4; fill-opacity: 0.8; stroke: #1f77b4; stroke-opacity: 0.8"/>
     <use xlink:href="#m67e9b025d0" x="482.058466" y="261.798623" style="fill: #1f77b4; fill-opacity: 0.8; stroke: #1f77b4; stroke-opacity: 0.8"/>
    </g>
   </g>
   <g id="line2d_25">
    <defs>
     <path id="m5f321fff40" d="M 0 1.5 
C 0.397805 1.5 0.77937 1.341951 1.06066 1.06066 
C 1.341951 0.77937 1.5 0.397805 1.5 0 
C 1.5 -0.397805 1.341951 -0.77937 1.06066 -1.06066 
C 0.77937 -1.341951 0.397805 -1.5 0 -1.5 
C -0.397805 -1.5 -0.77937 -1.341951 -1.06066 -1.06066 
C -1.341951 -0.77937 -1.5 -0.397805 -1.5 0 
C -1.5 0.397805 -1.341951 0.77937 -1.06066 1.06066 
C -0.77937 1.341951 -0.397805 1.5 0 1.5 
z
" style="stroke: #1f77b4; stroke-opacity: 0.8"/>
    </defs>
    <g clip-path="url(#p2c81cca05e)">
     <use xlink:href="#m5f321fff40" x="76.240284" y="28.947828" style="fill: #1f77b4; fill-opacity: 0.8; stroke: #1f77b4; stroke-opacity: 0.8"/>
     <use xlink:href="#m5f321fff40" x="121.333568" y="82.183898" style="fill: #1f77b4; fill-opacity: 0.8; stroke: #1f77b4; stroke-opacity: 0.8"/>
     <use xlink:href="#m5f321fff40" x="166.421508" y="131.699168" style="fill: #1f77b4; fill-opacity: 0.8; stroke: #1f77b4; stroke-opacity: 0.8"/>
     <use xlink:href="#m5f321fff40" x="211.514793" y="161.751788" style="fill: #1f77b4; fill-opacity: 0.8; stroke: #1f77b4; stroke-opacity: 0.8"/>
     <use xlink:href="#m5f321fff40" x="256.602733" y="199.24601" style="fill: #1f77b4; fill-opacity: 0.8; stroke: #1f77b4; stroke-opacity: 0.8"/>
     <use xlink:href="#m5f321fff40" x="301.696017" y="211.267058" style="fill: #1f77b4; fill-opacity: 0.8; stroke: #1f77b4; stroke-opacity: 0.8"/>
     <use xlink:href="#m5f321fff40" x="346.783957" y="229.29863" style="fill: #1f77b4; fill-opacity: 0.8; stroke: #1f77b4; stroke-opacity: 0.8"/>
     <use xlink:href="#m5f321fff40" x="391.877242" y="248.188848" style="fill: #1f77b4; fill-opacity: 0.8; stroke: #1f77b4; stroke-opacity: 0.8"/>
     <use xlink:href="#m5f321fff40" x="436.965182" y="255.058019" style="fill: #1f77b4; fill-opacity: 0.8; stroke: #1f77b4; stroke-opacity: 0.8"/>
     <use xlink:href="#m5f321fff40" x="482.058466" y="265.075559" style="fill: #1f77b4; fill-opacity: 0.8; stroke: #1f77b4; stroke-opacity: 0.8"/>
    </g>
   </g>
   <g id="patch_3">
    <path d="M 55.949375 284.4 
L 55.949375 7.2 
" style="fill: none; stroke: #000000; stroke-width: 0.8; stroke-linejoin: miter; stroke-linecap: square"/>
   </g>
   <g id="patch_4">
    <path d="M 502.349375 284.4 
L 502.349375 7.2 
" style="fill: none; stroke: #000000; stroke-width: 0.8; stroke-linejoin: miter; stroke-linecap: square"/>
   </g>
   <g id="patch_5">
    <path d="M 55.949375 284.4 
L 502.349375 284.4 
" style="fill: none; stroke: #000000; stroke-width: 0.8; stroke-linejoin: miter; stroke-linecap: square"/>
   </g>
   <g id="patch_6">
    <path d="M 55.949375 7.2 
L 502.349375 7.2 
" style="fill: none; stroke: #000000; stroke-width: 0.8; stroke-linejoin: miter; stroke-linecap: square"/>
   </g>
   <g id="line2d_26">
    <path d="M 76.240284 28.261569 
L 80.339458 33.973388 
L 84.438631 39.563713 
L 88.537805 45.03513 
L 92.636978 50.390166 
L 96.736152 55.631299 
L 100.835325 60.76095 
L 104.934499 65.781491 
L 109.033673 70.695243 
L 113.132846 75.504476 
L 117.23202 80.211415 
L 121.331193 84.818235 
L 125.430367 89.327066 
L 129.52954 93.739992 
L 133.628714 98.059053 
L 137.727887 102.286245 
L 141.827061 106.423523 
L 145.926235 110.472798 
L 150.025408 114.435944 
L 154.124582 118.314792 
L 158.223755 122.111135 
L 162.322929 125.826727 
L 166.422102 129.463288 
L 170.521276 133.022496 
L 174.620449 136.505999 
L 178.719623 139.915406 
L 182.818796 143.252293 
L 186.91797 146.518203 
L 191.017144 149.714646 
L 195.116317 152.843099 
L 199.215491 155.905007 
L 203.314664 158.901788 
L 207.413838 161.834826 
L 211.513011 164.705476 
L 215.612185 167.515067 
L 219.711358 170.264896 
L 223.810532 172.956235 
L 227.909706 175.590327 
L 232.008879 178.168392 
L 236.108053 180.691619 
L 240.207226 183.161177 
L 244.3064 185.578205 
L 248.405573 187.943823 
L 252.504747 190.259122 
L 256.60392 192.525174 
L 260.703094 194.743026 
L 264.802268 196.913703 
L 268.901441 199.038209 
L 273.000615 201.117525 
L 277.099788 203.152614 
L 281.198962 205.144415 
L 285.298135 207.093849 
L 289.397309 209.001818 
L 293.496482 210.869204 
L 297.595656 212.69687 
L 301.69483 214.48566 
L 305.794003 216.236401 
L 309.893177 217.949904 
L 313.99235 219.62696 
L 318.091524 221.268343 
L 322.190697 222.874814 
L 326.289871 224.447114 
L 330.389044 225.985971 
L 334.488218 227.492096 
L 338.587392 228.966184 
L 342.686565 230.408918 
L 346.785739 231.820964 
L 350.884912 233.202976 
L 354.984086 234.555591 
L 359.083259 235.879435 
L 363.182433 237.175121 
L 367.281606 238.443247 
L 371.38078 239.684399 
L 375.479954 240.899151 
L 379.579127 242.088065 
L 383.678301 243.251691 
L 387.777474 244.390565 
L 391.876648 245.505215 
L 395.975821 246.596155 
L 400.074995 247.663891 
L 404.174168 248.708916 
L 408.273342 249.731712 
L 412.372515 250.732753 
L 416.471689 251.712502 
L 420.570863 252.67141 
L 424.670036 253.609923 
L 428.76921 254.528472 
L 432.868383 255.427484 
L 436.967557 256.307373 
L 441.06673 257.168547 
L 445.165904 258.011403 
L 449.265077 258.836331 
L 453.364251 259.643712 
L 457.463425 260.43392 
L 461.562598 261.20732 
L 465.661772 261.964269 
L 469.760945 262.705118 
L 473.860119 263.430208 
L 477.959292 264.139876 
L 482.058466 264.834448 
" clip-path="url(#p2c81cca05e)" style="fill: none; stroke: #1f77b4; stroke-width: 2; stroke-linecap: square"/>
   </g>
   <g id="FillBetweenPolyCollection_1">
    <defs>
     <path id="mea437d5591" d="M 76.240284 -362.696704 
L 76.240284 -357.055658 
L 80.339458 -351.516987 
L 84.438631 -346.080607 
L 88.537805 -340.744013 
L 92.636978 -335.5049 
L 96.736152 -330.361223 
L 100.835325 -325.311233 
L 104.934499 -320.35351 
L 109.033673 -315.486955 
L 113.132846 -310.710754 
L 117.23202 -306.024318 
L 121.331193 -301.427206 
L 125.430367 -296.919037 
L 129.52954 -292.49942 
L 133.628714 -288.167896 
L 137.727887 -283.923901 
L 141.827061 -279.766745 
L 145.926235 -275.69561 
L 150.025408 -271.70955 
L 154.124582 -267.807509 
L 158.223755 -263.98833 
L 162.322929 -260.250777 
L 166.422102 -256.593546 
L 170.521276 -253.015282 
L 174.620449 -249.514592 
L 178.719623 -246.090052 
L 182.818796 -242.740222 
L 186.91797 -239.463653 
L 191.017144 -236.258889 
L 195.116317 -233.124477 
L 199.215491 -230.058971 
L 203.314664 -227.060934 
L 207.413838 -224.128941 
L 211.513011 -221.261582 
L 215.612185 -218.457464 
L 219.711358 -215.71521 
L 223.810532 -213.033465 
L 227.909706 -210.410892 
L 232.008879 -207.846174 
L 236.108053 -205.338015 
L 240.207226 -202.885139 
L 244.3064 -200.486291 
L 248.405573 -198.140238 
L 252.504747 -195.845765 
L 256.60392 -193.601678 
L 260.703094 -191.406803 
L 264.802268 -189.259986 
L 268.901441 -187.16009 
L 273.000615 -185.105998 
L 277.099788 -183.09661 
L 281.198962 -181.130846 
L 285.298135 -179.207639 
L 289.397309 -177.325943 
L 293.496482 -175.484725 
L 297.595656 -173.68297 
L 301.69483 -171.919679 
L 305.794003 -170.193868 
L 309.893177 -168.50457 
L 313.99235 -166.850832 
L 318.091524 -165.23172 
L 322.190697 -163.646316 
L 326.289871 -162.09372 
L 330.389044 -160.573052 
L 334.488218 -159.08345 
L 338.587392 -157.624075 
L 342.686565 -156.194111 
L 346.785739 -154.792766 
L 350.884912 -153.419277 
L 354.984086 -152.072903 
L 359.083259 -150.752939 
L 363.182433 -149.458704 
L 367.281606 -148.189553 
L 371.38078 -146.944869 
L 375.479954 -145.724068 
L 379.579127 -144.526595 
L 383.678301 -143.351927 
L 387.777474 -142.199568 
L 391.876648 -141.069049 
L 395.975821 -139.959925 
L 400.074995 -138.871774 
L 404.174168 -137.804194 
L 408.273342 -136.756802 
L 412.372515 -135.729229 
L 416.471689 -134.721121 
L 420.570863 -133.732136 
L 424.670036 -132.761941 
L 428.76921 -131.810213 
L 432.868383 -130.876636 
L 436.967557 -129.960901 
L 441.06673 -129.062703 
L 445.165904 -128.181744 
L 449.265077 -127.31773 
L 453.364251 -126.470368 
L 457.463425 -125.639374 
L 461.562598 -124.824462 
L 465.661772 -124.025353 
L 469.760945 -123.24177 
L 473.860119 -122.473439 
L 477.959292 -121.720088 
L 482.058466 -120.981451 
L 482.058466 -125.625152 
L 482.058466 -125.625152 
L 477.959292 -126.27566 
L 473.860119 -126.941645 
L 469.760945 -127.623494 
L 465.661772 -128.321608 
L 461.562598 -129.036398 
L 457.463425 -129.768286 
L 453.364251 -130.517707 
L 449.265077 -131.285109 
L 445.165904 -132.07095 
L 441.06673 -132.875703 
L 436.967557 -133.699853 
L 432.868383 -134.543896 
L 428.76921 -135.408342 
L 424.670036 -136.293714 
L 420.570863 -137.200543 
L 416.471689 -138.129375 
L 412.372515 -139.080765 
L 408.273342 -140.055274 
L 404.174168 -141.053474 
L 400.074995 -142.075944 
L 395.975821 -143.123265 
L 391.876648 -144.196022 
L 387.777474 -145.294802 
L 383.678301 -146.420192 
L 379.579127 -147.572774 
L 375.479954 -148.753129 
L 371.38078 -149.961832 
L 367.281606 -151.199453 
L 363.182433 -152.466553 
L 359.083259 -153.76369 
L 354.984086 -155.091415 
L 350.884912 -156.450272 
L 346.785739 -157.840805 
L 342.686565 -159.263553 
L 338.587392 -160.719057 
L 334.488218 -162.207859 
L 330.389044 -163.730506 
L 326.289871 -165.287551 
L 322.190697 -166.879556 
L 318.091524 -168.507093 
L 313.99235 -170.170749 
L 309.893177 -171.871122 
L 305.794003 -173.608829 
L 301.69483 -175.384501 
L 297.595656 -177.198791 
L 293.496482 -179.052367 
L 289.397309 -180.945921 
L 285.298135 -182.880162 
L 281.198962 -184.855825 
L 277.099788 -186.873662 
L 273.000615 -188.934452 
L 268.901441 -191.038993 
L 264.802268 -193.188108 
L 260.703094 -195.382645 
L 256.60392 -197.623474 
L 252.504747 -199.911491 
L 248.405573 -202.247617 
L 244.3064 -204.632798 
L 240.207226 -207.068008 
L 236.108053 -209.554247 
L 232.008879 -212.092543 
L 227.909706 -214.683953 
L 223.810532 -217.329566 
L 219.711358 -220.030498 
L 215.612185 -222.787903 
L 211.513011 -225.602965 
L 207.413838 -228.476907 
L 203.314664 -231.410989 
L 199.215491 -234.406514 
L 195.116317 -237.464826 
L 191.017144 -240.58732 
L 186.91797 -243.775441 
L 182.818796 -247.030691 
L 178.719623 -250.354636 
L 174.620449 -253.74891 
L 170.521276 -257.215225 
L 166.422102 -260.755378 
L 162.322929 -264.371268 
L 158.223755 -268.064901 
L 154.124582 -271.838407 
L 150.025408 -275.694061 
L 145.926235 -279.634293 
L 141.827061 -283.661709 
L 137.727887 -287.77911 
L 133.628714 -291.989499 
L 129.52954 -296.296097 
L 125.430367 -300.702331 
L 121.331193 -305.211823 
L 117.23202 -309.828351 
L 113.132846 -314.555794 
L 109.033673 -319.39806 
L 104.934499 -324.359008 
L 100.835325 -329.442367 
L 96.736152 -334.65168 
L 92.636978 -339.990267 
L 88.537805 -345.461228 
L 84.438631 -351.067467 
L 80.339458 -356.811738 
L 76.240284 -362.696704 
z
" style="stroke: #1f77b4; stroke-opacity: 0.7"/>
    </defs>
    <g clip-path="url(#p2c81cca05e)">
     <use xlink:href="#mea437d5591" x="0" y="388.13775" style="fill: #1f77b4; fill-opacity: 0.7; stroke: #1f77b4; stroke-opacity: 0.7"/>
    </g>
   </g>
   <g id="FillBetweenPolyCollection_2">
    <defs>
     <path id="m6d93d8c33f" d="M 76.240284 -368.33775 
L 76.240284 -351.414612 
L 80.339458 -346.222236 
L 84.438631 -341.093748 
L 88.537805 -336.026797 
L 92.636978 -331.019533 
L 96.736152 -326.070766 
L 100.835325 -321.180099 
L 104.934499 -316.348013 
L 109.033673 -311.575849 
L 113.132846 -306.865713 
L 117.23202 -302.220286 
L 121.331193 -297.64259 
L 125.430367 -293.135743 
L 129.52954 -288.702743 
L 133.628714 -284.346292 
L 137.727887 -280.068692 
L 141.827061 -275.871782 
L 145.926235 -271.756927 
L 150.025408 -267.725039 
L 154.124582 -263.77661 
L 158.223755 -259.91176 
L 162.322929 -256.130286 
L 166.422102 -252.431714 
L 170.521276 -248.81534 
L 174.620449 -245.280273 
L 178.719623 -241.825467 
L 182.818796 -238.449753 
L 186.91797 -235.151865 
L 191.017144 -231.930458 
L 195.116317 -228.784128 
L 199.215491 -225.711429 
L 203.314664 -222.710879 
L 207.413838 -219.780975 
L 211.513011 -216.920199 
L 215.612185 -214.127024 
L 219.711358 -211.399922 
L 223.810532 -208.737365 
L 227.909706 -206.137831 
L 232.008879 -203.599805 
L 236.108053 -201.121783 
L 240.207226 -198.70227 
L 244.3064 -196.339785 
L 248.405573 -194.03286 
L 252.504747 -191.780039 
L 256.60392 -189.579882 
L 260.703094 -187.430962 
L 264.802268 -185.331864 
L 268.901441 -183.281187 
L 273.000615 -181.277544 
L 277.099788 -179.319558 
L 281.198962 -177.405866 
L 285.298135 -175.535116 
L 289.397309 -173.705965 
L 293.496482 -171.917082 
L 297.595656 -170.167149 
L 301.69483 -168.454857 
L 305.794003 -166.778908 
L 309.893177 -165.138017 
L 313.99235 -163.530915 
L 318.091524 -161.956347 
L 322.190697 -160.413077 
L 326.289871 -158.89989 
L 330.389044 -157.415597 
L 334.488218 -155.95904 
L 338.587392 -154.529092 
L 342.686565 -153.124668 
L 346.785739 -151.744728 
L 350.884912 -150.388281 
L 354.984086 -149.054392 
L 359.083259 -147.742187 
L 363.182433 -146.450856 
L 367.281606 -145.179654 
L 371.38078 -143.927906 
L 375.479954 -142.695006 
L 379.579127 -141.480416 
L 383.678301 -140.283662 
L 387.777474 -139.104334 
L 391.876648 -137.942075 
L 395.975821 -136.796584 
L 400.074995 -135.667603 
L 404.174168 -134.554913 
L 408.273342 -133.45833 
L 412.372515 -132.377693 
L 416.471689 -131.312867 
L 420.570863 -130.263728 
L 424.670036 -129.230168 
L 428.76921 -128.212084 
L 432.868383 -127.209377 
L 436.967557 -126.221949 
L 441.06673 -125.249703 
L 445.165904 -124.292539 
L 449.265077 -123.35035 
L 453.364251 -122.42303 
L 457.463425 -121.510462 
L 461.562598 -120.612527 
L 465.661772 -119.729099 
L 469.760945 -118.860046 
L 473.860119 -118.005233 
L 477.959292 -117.164516 
L 482.058466 -116.33775 
L 482.058466 -130.268854 
L 482.058466 -130.268854 
L 477.959292 -130.831232 
L 473.860119 -131.40985 
L 469.760945 -132.005218 
L 465.661772 -132.617863 
L 461.562598 -133.248333 
L 457.463425 -133.897198 
L 453.364251 -134.565046 
L 449.265077 -135.252488 
L 445.165904 -135.960156 
L 441.06673 -136.688703 
L 436.967557 -137.438805 
L 432.868383 -138.211155 
L 428.76921 -139.006471 
L 424.670036 -139.825486 
L 420.570863 -140.668951 
L 416.471689 -141.53763 
L 412.372515 -142.4323 
L 408.273342 -143.353746 
L 404.174168 -144.302755 
L 400.074995 -145.280114 
L 395.975821 -146.286605 
L 391.876648 -147.322995 
L 387.777474 -148.390037 
L 383.678301 -149.488457 
L 379.579127 -150.618953 
L 375.479954 -151.782191 
L 371.38078 -152.978796 
L 367.281606 -154.209352 
L 363.182433 -155.474402 
L 359.083259 -156.774442 
L 354.984086 -158.109926 
L 350.884912 -159.481268 
L 346.785739 -160.888843 
L 342.686565 -162.332996 
L 338.587392 -163.81404 
L 334.488218 -165.332269 
L 330.389044 -166.88796 
L 326.289871 -168.481381 
L 322.190697 -170.112795 
L 318.091524 -171.782466 
L 313.99235 -173.490666 
L 309.893177 -175.237675 
L 305.794003 -177.02379 
L 301.69483 -178.849324 
L 297.595656 -180.714611 
L 293.496482 -182.620009 
L 289.397309 -184.565899 
L 285.298135 -186.552686 
L 281.198962 -188.580804 
L 277.099788 -190.650714 
L 273.000615 -192.762906 
L 268.901441 -194.917895 
L 264.802268 -197.11623 
L 260.703094 -199.358486 
L 256.60392 -201.64527 
L 252.504747 -203.977217 
L 248.405573 -206.354995 
L 244.3064 -208.779305 
L 240.207226 -211.250877 
L 236.108053 -213.770479 
L 232.008879 -216.338912 
L 227.909706 -218.957015 
L 223.810532 -221.625666 
L 219.711358 -224.345787 
L 215.612185 -227.118343 
L 211.513011 -229.944349 
L 207.413838 -232.824873 
L 203.314664 -235.761044 
L 199.215491 -238.754056 
L 195.116317 -241.805174 
L 191.017144 -244.915751 
L 186.91797 -248.087228 
L 182.818796 -251.32116 
L 178.719623 -254.619221 
L 174.620449 -257.983228 
L 170.521276 -261.415167 
L 166.422102 -264.917211 
L 162.322929 -268.491759 
L 158.223755 -272.141471 
L 154.124582 -275.869306 
L 150.025408 -279.678572 
L 145.926235 -283.572976 
L 141.827061 -287.556673 
L 137.727887 -291.634318 
L 133.628714 -295.811102 
L 129.52954 -300.092773 
L 125.430367 -304.485625 
L 121.331193 -308.99644 
L 117.23202 -313.632384 
L 113.132846 -318.400834 
L 109.033673 -323.309166 
L 104.934499 -328.364505 
L 100.835325 -333.573501 
L 96.736152 -338.942137 
L 92.636978 -344.475634 
L 88.537805 -350.178444 
L 84.438631 -356.054326 
L 80.339458 -362.106488 
L 76.240284 -368.33775 
z
" style="stroke: #1f77b4; stroke-opacity: 0.3"/>
    </defs>
    <g clip-path="url(#p2c81cca05e)">
     <use xlink:href="#m6d93d8c33f" x="0" y="388.13775" style="fill: #1f77b4; fill-opacity: 0.3; stroke: #1f77b4; stroke-opacity: 0.3"/>
    </g>
   </g>
   <g id="text_14">
    <g id="patch_7">
     <path d="M 211.001562 384.53775 
L 347.297187 384.53775 
L 347.297187 350.124375 
L 211.001562 350.124375 
z
" style="fill: #ffffff; opacity: 0.8; stroke: #000000; stroke-linejoin: miter"/>
    </g>
    <!-- T1 =   127 ±  7.61 µs -->
    <g transform="translate(214.601562 362.818125) scale(0.12 -0.12)">
     <defs>
      <path id="DejaVuSans-54" d="M -19 4666 
L 3928 4666 
L 3928 4134 
L 2272 4134 
L 2272 0 
L 1638 0 
L 1638 4134 
L -19 4134 
L -19 4666 
z
" transform="scale(0.015625)"/>
      <path id="DejaVuSans-3d" d="M 678 2906 
L 4684 2906 
L 4684 2381 
L 678 2381 
L 678 2906 
z
M 678 1631 
L 4684 1631 
L 4684 1100 
L 678 1100 
L 678 1631 
z
" transform="scale(0.015625)"/>
      <path id="DejaVuSans-37" d="M 525 4666 
L 3525 4666 
L 3525 4397 
L 1831 0 
L 1172 0 
L 2766 4134 
L 525 4134 
L 525 4666 
z
" transform="scale(0.015625)"/>
      <path id="DejaVuSans-b1" d="M 2944 4013 
L 2944 2803 
L 4684 2803 
L 4684 2272 
L 2944 2272 
L 2944 1063 
L 2419 1063 
L 2419 2272 
L 678 2272 
L 678 2803 
L 2419 2803 
L 2419 4013 
L 2944 4013 
z
M 678 531 
L 4684 531 
L 4684 0 
L 678 0 
L 678 531 
z
" transform="scale(0.015625)"/>
     </defs>
     <use xlink:href="#DejaVuSans-54"/>
     <use xlink:href="#DejaVuSans-31" transform="translate(61.083984 0)"/>
     <use xlink:href="#DejaVuSans-20" transform="translate(124.707031 0)"/>
     <use xlink:href="#DejaVuSans-3d" transform="translate(156.494141 0)"/>
     <use xlink:href="#DejaVuSans-20" transform="translate(240.283203 0)"/>
     <use xlink:href="#DejaVuSans-20" transform="translate(272.070312 0)"/>
     <use xlink:href="#DejaVuSans-20" transform="translate(303.857422 0)"/>
     <use xlink:href="#DejaVuSans-31" transform="translate(335.644531 0)"/>
     <use xlink:href="#DejaVuSans-32" transform="translate(399.267578 0)"/>
     <use xlink:href="#DejaVuSans-37" transform="translate(462.890625 0)"/>
     <use xlink:href="#DejaVuSans-20" transform="translate(526.513672 0)"/>
     <use xlink:href="#DejaVuSans-b1" transform="translate(558.300781 0)"/>
     <use xlink:href="#DejaVuSans-20" transform="translate(642.089844 0)"/>
     <use xlink:href="#DejaVuSans-20" transform="translate(673.876953 0)"/>
     <use xlink:href="#DejaVuSans-37" transform="translate(705.664062 0)"/>
     <use xlink:href="#DejaVuSans-2e" transform="translate(769.287109 0)"/>
     <use xlink:href="#DejaVuSans-36" transform="translate(801.074219 0)"/>
     <use xlink:href="#DejaVuSans-31" transform="translate(864.697266 0)"/>
     <use xlink:href="#DejaVuSans-20" transform="translate(928.320312 0)"/>
     <use xlink:href="#DejaVuSans-b5" transform="translate(960.107422 0)"/>
     <use xlink:href="#DejaVuSans-73" transform="translate(1023.730469 0)"/>
    </g>
    <!-- reduced-$\chi^2$ =  0.725 -->
    <g transform="translate(218.249375 378.41775) scale(0.12 -0.12)">
     <defs>
      <path id="DejaVuSans-72" d="M 2631 2963 
Q 2534 3019 2420 3045 
Q 2306 3072 2169 3072 
Q 1681 3072 1420 2755 
Q 1159 2438 1159 1844 
L 1159 0 
L 581 0 
L 581 3500 
L 1159 3500 
L 1159 2956 
Q 1341 3275 1631 3429 
Q 1922 3584 2338 3584 
Q 2397 3584 2469 3576 
Q 2541 3569 2628 3553 
L 2631 2963 
z
" transform="scale(0.015625)"/>
      <path id="DejaVuSans-64" d="M 2906 2969 
L 2906 4863 
L 3481 4863 
L 3481 0 
L 2906 0 
L 2906 525 
Q 2725 213 2448 61 
Q 2172 -91 1784 -91 
Q 1150 -91 751 415 
Q 353 922 353 1747 
Q 353 2572 751 3078 
Q 1150 3584 1784 3584 
Q 2172 3584 2448 3432 
Q 2725 3281 2906 2969 
z
M 947 1747 
Q 947 1113 1208 752 
Q 1469 391 1925 391 
Q 2381 391 2643 752 
Q 2906 1113 2906 1747 
Q 2906 2381 2643 2742 
Q 2381 3103 1925 3103 
Q 1469 3103 1208 2742 
Q 947 2381 947 1747 
z
" transform="scale(0.015625)"/>
      <path id="DejaVuSans-75" d="M 544 1381 
L 544 3500 
L 1119 3500 
L 1119 1403 
Q 1119 906 1312 657 
Q 1506 409 1894 409 
Q 2359 409 2629 706 
Q 2900 1003 2900 1516 
L 2900 3500 
L 3475 3500 
L 3475 0 
L 2900 0 
L 2900 538 
Q 2691 219 2414 64 
Q 2138 -91 1772 -91 
Q 1169 -91 856 284 
Q 544 659 544 1381 
z
M 1991 3584 
L 1991 3584 
z
" transform="scale(0.015625)"/>
      <path id="DejaVuSans-63" d="M 3122 3366 
L 3122 2828 
Q 2878 2963 2633 3030 
Q 2388 3097 2138 3097 
Q 1578 3097 1268 2742 
Q 959 2388 959 1747 
Q 959 1106 1268 751 
Q 1578 397 2138 397 
Q 2388 397 2633 464 
Q 2878 531 3122 666 
L 3122 134 
Q 2881 22 2623 -34 
Q 2366 -91 2075 -91 
Q 1284 -91 818 406 
Q 353 903 353 1747 
Q 353 2603 823 3093 
Q 1294 3584 2113 3584 
Q 2378 3584 2631 3529 
Q 2884 3475 3122 3366 
z
" transform="scale(0.015625)"/>
      <path id="DejaVuSans-2d" d="M 313 2009 
L 1997 2009 
L 1997 1497 
L 313 1497 
L 313 2009 
z
" transform="scale(0.015625)"/>
      <path id="DejaVuSans-Oblique-3c7" d="M 1922 -781 
L 1691 416 
L 394 -1334 
L -284 -1334 
L 1553 1141 
L 1269 2613 
Q 1194 3006 713 3006 
L 559 3006 
L 653 3500 
L 872 3494 
Q 1675 3472 1775 2950 
L 2006 1753 
L 3303 3503 
L 3981 3503 
L 2144 1028 
L 2428 -444 
Q 2503 -838 2984 -838 
L 3138 -838 
L 3044 -1331 
L 2825 -1325 
Q 2022 -1303 1922 -781 
z
" transform="scale(0.015625)"/>
     </defs>
     <use xlink:href="#DejaVuSans-72" transform="translate(0 0.765625)"/>
     <use xlink:href="#DejaVuSans-65" transform="translate(41.113281 0.765625)"/>
     <use xlink:href="#DejaVuSans-64" transform="translate(102.636719 0.765625)"/>
     <use xlink:href="#DejaVuSans-75" transform="translate(166.113281 0.765625)"/>
     <use xlink:href="#DejaVuSans-63" transform="translate(229.492188 0.765625)"/>
     <use xlink:href="#DejaVuSans-65" transform="translate(284.472656 0.765625)"/>
     <use xlink:href="#DejaVuSans-64" transform="translate(345.996094 0.765625)"/>
     <use xlink:href="#DejaVuSans-2d" transform="translate(409.472656 0.765625)"/>
     <use xlink:href="#DejaVuSans-Oblique-3c7" transform="translate(445.556641 0.765625)"/>
     <use xlink:href="#DejaVuSans-32" transform="translate(509.209036 39.046875) scale(0.7)"/>
     <use xlink:href="#DejaVuSans-20" transform="translate(556.479544 0.765625)"/>
     <use xlink:href="#DejaVuSans-3d" transform="translate(588.266654 0.765625)"/>
     <use xlink:href="#DejaVuSans-20" transform="translate(672.055716 0.765625)"/>
     <use xlink:href="#DejaVuSans-20" transform="translate(703.842826 0.765625)"/>
     <use xlink:href="#DejaVuSans-30" transform="translate(735.629935 0.765625)"/>
     <use xlink:href="#DejaVuSans-2e" transform="translate(799.252982 0.765625)"/>
     <use xlink:href="#DejaVuSans-37" transform="translate(823.290091 0.765625)"/>
     <use xlink:href="#DejaVuSans-32" transform="translate(886.913138 0.765625)"/>
     <use xlink:href="#DejaVuSans-35" transform="translate(950.536185 0.765625)"/>
    </g>
   </g>
  </g>
 </g>
 <defs>
  <clipPath id="p2c81cca05e">
   <rect x="55.949375" y="7.2" width="446.4" height="277.2"/>
  </clipPath>
 </defs>
</svg>
