<?xml version="1.0" encoding="utf-8" standalone="no"?>
<!DOCTYPE svg PUBLIC "-//W3C//DTD SVG 1.1//EN"
  "http://www.w3.org/Graphics/SVG/1.1/DTD/svg11.dtd">
<svg xmlns:xlink="http://www.w3.org/1999/xlink" width="509.549375pt" height="388.13775pt" viewBox="0 0 509.549375 388.13775" xmlns="http://www.w3.org/2000/svg" version="1.1">
 <metadata>
  <rdf:RDF xmlns:dc="http://purl.org/dc/elements/1.1/" xmlns:cc="http://creativecommons.org/ns#" xmlns:rdf="http://www.w3.org/1999/02/22-rdf-syntax-ns#">
   <cc:Work>
    <dc:type rdf:resource="http://purl.org/dc/dcmitype/StillImage"/>
    <dc:date>2026-05-05T01:05:21.587613</dc:date>
    <dc:format>image/svg+xml</dc:format>
    <dc:creator>
     <cc:Agent>
      <dc:title>Matplotlib v3.10.9, https://matplotlib.org/</dc:title>
     </cc:Agent>
    </dc:creator>
   </cc:Work>
  </rdf:RDF>
 </metadata>
 <defs>
  <style type="text/css">*{stroke-linejoin: round; stroke-linecap: butt}</style>
 </defs>
 <g id="figure_1">
  <g id="patch_1">
   <path d="M 0 388.13775 
L 509.549375 388.13775 
L 509.549375 0 
L 0 0 
z
" style="fill: #ffffff"/>
  </g>
  <g id="axes_1">
   <g id="patch_2">
    <path d="M 55.949375 284.4 
L 502.349375 284.4 
L 502.349375 7.2 
L 55.949375 7.2 
z
" style="fill: #ffffff"/>
   </g>
   <g id="matplotlib.axis_1">
    <g id="xtick_1">
     <g id="line2d_1">
      <path d="M 74.7386 284.4 
L 74.7386 7.2 
" clip-path="url(#peadd5f06c6)" style="fill: none; stroke: #b0b0b0; stroke-width: 0.8; stroke-linecap: square"/>
     </g>
     <g id="line2d_2">
      <defs>
       <path id="m27eca29f98" d="M 0 0 
L 0 3.5 
" style="stroke: #000000; stroke-width: 0.8"/>
      </defs>
      <g>
       <use xlink:href="#m27eca29f98" x="74.7386" y="284.4" style="stroke: #000000; stroke-width: 0.8"/>
      </g>
     </g>
     <g id="text_1">
      <!-- 0 -->
      <g transform="translate(70.28485 302.037813) scale(0.14 -0.14)">
       <defs>
        <path id="DejaVuSans-30" d="M 2034 4250 
Q 1547 4250 1301 3770 
Q 1056 3291 1056 2328 
Q 1056 1369 1301 889 
Q 1547 409 2034 409 
Q 2525 409 2770 889 
Q 3016 1369 3016 2328 
Q 3016 3291 2770 3770 
Q 2525 4250 2034 4250 
z
M 2034 4750 
Q 2819 4750 3233 4129 
Q 3647 3509 3647 2328 
Q 3647 1150 3233 529 
Q 2819 -91 2034 -91 
Q 1250 -91 836 529 
Q 422 1150 422 2328 
Q 422 3509 836 4129 
Q 1250 4750 2034 4750 
z
" transform="scale(0.015625)"/>
       </defs>
       <use xlink:href="#DejaVuSans-30"/>
      </g>
     </g>
    </g>
    <g id="xtick_2">
     <g id="line2d_3">
      <path d="M 149.88962 284.4 
L 149.88962 7.2 
" clip-path="url(#peadd5f06c6)" style="fill: none; stroke: #b0b0b0; stroke-width: 0.8; stroke-linecap: square"/>
     </g>
     <g id="line2d_4">
      <g>
       <use xlink:href="#m27eca29f98" x="149.88962" y="284.4" style="stroke: #000000; stroke-width: 0.8"/>
      </g>
     </g>
     <g id="text_2">
      <!-- 50 -->
      <g transform="translate(140.98212 302.037813) scale(0.14 -0.14)">
       <defs>
        <path id="DejaVuSans-35" d="M 691 4666 
L 3169 4666 
L 3169 4134 
L 1269 4134 
L 1269 2991 
Q 1406 3038 1543 3061 
Q 1681 3084 1819 3084 
Q 2600 3084 3056 2656 
Q 3513 2228 3513 1497 
Q 3513 744 3044 326 
Q 2575 -91 1722 -91 
Q 1428 -91 1123 -41 
Q 819 9 494 109 
L 494 744 
Q 775 591 1075 516 
Q 1375 441 1709 441 
Q 2250 441 2565 725 
Q 2881 1009 2881 1497 
Q 2881 1984 2565 2268 
Q 2250 2553 1709 2553 
Q 1456 2553 1204 2497 
Q 953 2441 691 2322 
L 691 4666 
z
" transform="scale(0.015625)"/>
       </defs>
       <use xlink:href="#DejaVuSans-35"/>
       <use xlink:href="#DejaVuSans-30" transform="translate(63.623047 0)"/>
      </g>
     </g>
    </g>
    <g id="xtick_3">
     <g id="line2d_5">
      <path d="M 225.04064 284.4 
L 225.04064 7.2 
" clip-path="url(#peadd5f06c6)" style="fill: none; stroke: #b0b0b0; stroke-width: 0.8; stroke-linecap: square"/>
     </g>
     <g id="line2d_6">
      <g>
       <use xlink:href="#m27eca29f98" x="225.04064" y="284.4" style="stroke: #000000; stroke-width: 0.8"/>
      </g>
     </g>
     <g id="text_3">
      <!-- 100 -->
      <g transform="translate(211.67939 302.037813) scale(0.14 -0.14)">
       <defs>
        <path id="DejaVuSans-31" d="M 794 531 
L 1825 531 
L 1825 4091 
L 703 3866 
L 703 4441 
L 1819 4666 
L 2450 4666 
L 2450 531 
L 3481 531 
L 3481 0 
L 794 0 
L 794 531 
z
" transform="scale(0.015625)"/>
       </defs>
       <use xlink:href="#DejaVuSans-31"/>
       <use xlink:href="#DejaVuSans-30" transform="translate(63.623047 0)"/>
       <use xlink:href="#DejaVuSans-30" transform="translate(127.246094 0)"/>
      </g>
     </g>
    </g>
    <g id="xtick_4">
     <g id="line2d_7">
      <path d="M 300.191661 284.4 
L 300.191661 7.2 
" clip-path="url(#peadd5f06c6)" style="fill: none; stroke: #b0b0b0; stroke-width: 0.8; stroke-linecap: square"/>
     </g>
     <g id="line2d_8">
      <g>
       <use xlink:href="#m27eca29f98" x="300.191661" y="284.4" style="stroke: #000000; stroke-width: 0.8"/>
      </g>
     </g>
     <g id="text_4">
      <!-- 150 -->
      <g transform="translate(286.830411 302.037813) scale(0.14 -0.14)">
       <use xlink:href="#DejaVuSans-31"/>
       <use xlink:href="#DejaVuSans-35" transform="translate(63.623047 0)"/>
       <use xlink:href="#DejaVuSans-30" transform="translate(127.246094 0)"/>
      </g>
     </g>
    </g>
    <g id="xtick_5">
     <g id="line2d_9">
      <path d="M 375.342681 284.4 
L 375.342681 7.2 
" clip-path="url(#peadd5f06c6)" style="fill: none; stroke: #b0b0b0; stroke-width: 0.8; stroke-linecap: square"/>
     </g>
     <g id="line2d_10">
      <g>
       <use xlink:href="#m27eca29f98" x="375.342681" y="284.4" style="stroke: #000000; stroke-width: 0.8"/>
      </g>
     </g>
     <g id="text_5">
      <!-- 200 -->
      <g transform="translate(361.981431 302.037813) scale(0.14 -0.14)">
       <defs>
        <path id="DejaVuSans-32" d="M 1228 531 
L 3431 531 
L 3431 0 
L 469 0 
L 469 531 
Q 828 903 1448 1529 
Q 2069 2156 2228 2338 
Q 2531 2678 2651 2914 
Q 2772 3150 2772 3378 
Q 2772 3750 2511 3984 
Q 2250 4219 1831 4219 
Q 1534 4219 1204 4116 
Q 875 4013 500 3803 
L 500 4441 
Q 881 4594 1212 4672 
Q 1544 4750 1819 4750 
Q 2544 4750 2975 4387 
Q 3406 4025 3406 3419 
Q 3406 3131 3298 2873 
Q 3191 2616 2906 2266 
Q 2828 2175 2409 1742 
Q 1991 1309 1228 531 
z
" transform="scale(0.015625)"/>
       </defs>
       <use xlink:href="#DejaVuSans-32"/>
       <use xlink:href="#DejaVuSans-30" transform="translate(63.623047 0)"/>
       <use xlink:href="#DejaVuSans-30" transform="translate(127.246094 0)"/>
      </g>
     </g>
    </g>
    <g id="xtick_6">
     <g id="line2d_11">
      <path d="M 450.493701 284.4 
L 450.493701 7.2 
" clip-path="url(#peadd5f06c6)" style="fill: none; stroke: #b0b0b0; stroke-width: 0.8; stroke-linecap: square"/>
     </g>
     <g id="line2d_12">
      <g>
       <use xlink:href="#m27eca29f98" x="450.493701" y="284.4" style="stroke: #000000; stroke-width: 0.8"/>
      </g>
     </g>
     <g id="text_6">
      <!-- 250 -->
      <g transform="translate(437.132451 302.037813) scale(0.14 -0.14)">
       <use xlink:href="#DejaVuSans-32"/>
       <use xlink:href="#DejaVuSans-35" transform="translate(63.623047 0)"/>
       <use xlink:href="#DejaVuSans-30" transform="translate(127.246094 0)"/>
      </g>
     </g>
    </g>
    <g id="text_7">
     <!-- Delay [µs] -->
     <g transform="translate(238.164375 321.106875) scale(0.16 -0.16)">
      <defs>
       <path id="DejaVuSans-44" d="M 1259 4147 
L 1259 519 
L 2022 519 
Q 2988 519 3436 956 
Q 3884 1394 3884 2338 
Q 3884 3275 3436 3711 
Q 2988 4147 2022 4147 
L 1259 4147 
z
M 628 4666 
L 1925 4666 
Q 3281 4666 3915 4102 
Q 4550 3538 4550 2338 
Q 4550 1131 3912 565 
Q 3275 0 1925 0 
L 628 0 
L 628 4666 
z
" transform="scale(0.015625)"/>
       <path id="DejaVuSans-65" d="M 3597 1894 
L 3597 1613 
L 953 1613 
Q 991 1019 1311 708 
Q 1631 397 2203 397 
Q 2534 397 2845 478 
Q 3156 559 3463 722 
L 3463 178 
Q 3153 47 2828 -22 
Q 2503 -91 2169 -91 
Q 1331 -91 842 396 
Q 353 884 353 1716 
Q 353 2575 817 3079 
Q 1281 3584 2069 3584 
Q 2775 3584 3186 3129 
Q 3597 2675 3597 1894 
z
M 3022 2063 
Q 3016 2534 2758 2815 
Q 2500 3097 2075 3097 
Q 1594 3097 1305 2825 
Q 1016 2553 972 2059 
L 3022 2063 
z
" transform="scale(0.015625)"/>
       <path id="DejaVuSans-6c" d="M 603 4863 
L 1178 4863 
L 1178 0 
L 603 0 
L 603 4863 
z
" transform="scale(0.015625)"/>
       <path id="DejaVuSans-61" d="M 2194 1759 
Q 1497 1759 1228 1600 
Q 959 1441 959 1056 
Q 959 750 1161 570 
Q 1363 391 1709 391 
Q 2188 391 2477 730 
Q 2766 1069 2766 1631 
L 2766 1759 
L 2194 1759 
z
M 3341 1997 
L 3341 0 
L 2766 0 
L 2766 531 
Q 2569 213 2275 61 
Q 1981 -91 1556 -91 
Q 1019 -91 701 211 
Q 384 513 384 1019 
Q 384 1609 779 1909 
Q 1175 2209 1959 2209 
L 2766 2209 
L 2766 2266 
Q 2766 2663 2505 2880 
Q 2244 3097 1772 3097 
Q 1472 3097 1187 3025 
Q 903 2953 641 2809 
L 641 3341 
Q 956 3463 1253 3523 
Q 1550 3584 1831 3584 
Q 2591 3584 2966 3190 
Q 3341 2797 3341 1997 
z
" transform="scale(0.015625)"/>
       <path id="DejaVuSans-79" d="M 2059 -325 
Q 1816 -950 1584 -1140 
Q 1353 -1331 966 -1331 
L 506 -1331 
L 506 -850 
L 844 -850 
Q 1081 -850 1212 -737 
Q 1344 -625 1503 -206 
L 1606 56 
L 191 3500 
L 800 3500 
L 1894 763 
L 2988 3500 
L 3597 3500 
L 2059 -325 
z
" transform="scale(0.015625)"/>
       <path id="DejaVuSans-20" transform="scale(0.015625)"/>
       <path id="DejaVuSans-5b" d="M 550 4863 
L 1875 4863 
L 1875 4416 
L 1125 4416 
L 1125 -397 
L 1875 -397 
L 1875 -844 
L 550 -844 
L 550 4863 
z
" transform="scale(0.015625)"/>
       <path id="DejaVuSans-b5" d="M 544 -1331 
L 544 3500 
L 1119 3500 
L 1119 1325 
Q 1119 872 1334 640 
Q 1550 409 1972 409 
Q 2434 409 2667 671 
Q 2900 934 2900 1459 
L 2900 3500 
L 3475 3500 
L 3475 806 
Q 3475 619 3529 530 
Q 3584 441 3700 441 
Q 3728 441 3778 458 
Q 3828 475 3916 513 
L 3916 50 
Q 3788 -22 3673 -56 
Q 3559 -91 3450 -91 
Q 3234 -91 3106 31 
Q 2978 153 2931 403 
Q 2775 156 2548 32 
Q 2322 -91 2016 -91 
Q 1697 -91 1473 31 
Q 1250 153 1119 397 
L 1119 -1331 
L 544 -1331 
z
" transform="scale(0.015625)"/>
       <path id="DejaVuSans-73" d="M 2834 3397 
L 2834 2853 
Q 2591 2978 2328 3040 
Q 2066 3103 1784 3103 
Q 1356 3103 1142 2972 
Q 928 2841 928 2578 
Q 928 2378 1081 2264 
Q 1234 2150 1697 2047 
L 1894 2003 
Q 2506 1872 2764 1633 
Q 3022 1394 3022 966 
Q 3022 478 2636 193 
Q 2250 -91 1575 -91 
Q 1294 -91 989 -36 
Q 684 19 347 128 
L 347 722 
Q 666 556 975 473 
Q 1284 391 1588 391 
Q 1994 391 2212 530 
Q 2431 669 2431 922 
Q 2431 1156 2273 1281 
Q 2116 1406 1581 1522 
L 1381 1569 
Q 847 1681 609 1914 
Q 372 2147 372 2553 
Q 372 3047 722 3315 
Q 1072 3584 1716 3584 
Q 2034 3584 2315 3537 
Q 2597 3491 2834 3397 
z
" transform="scale(0.015625)"/>
       <path id="DejaVuSans-5d" d="M 1947 4863 
L 1947 -844 
L 622 -844 
L 622 -397 
L 1369 -397 
L 1369 4416 
L 622 4416 
L 622 4863 
L 1947 4863 
z
" transform="scale(0.015625)"/>
      </defs>
      <use xlink:href="#DejaVuSans-44"/>
      <use xlink:href="#DejaVuSans-65" transform="translate(77.001953 0)"/>
      <use xlink:href="#DejaVuSans-6c" transform="translate(138.525391 0)"/>
      <use xlink:href="#DejaVuSans-61" transform="translate(166.308594 0)"/>
      <use xlink:href="#DejaVuSans-79" transform="translate(227.587891 0)"/>
      <use xlink:href="#DejaVuSans-20" transform="translate(286.767578 0)"/>
      <use xlink:href="#DejaVuSans-5b" transform="translate(318.554688 0)"/>
      <use xlink:href="#DejaVuSans-b5" transform="translate(357.568359 0)"/>
      <use xlink:href="#DejaVuSans-73" transform="translate(421.191406 0)"/>
      <use xlink:href="#DejaVuSans-5d" transform="translate(473.291016 0)"/>
     </g>
    </g>
   </g>
   <g id="matplotlib.axis_2">
    <g id="ytick_1">
     <g id="line2d_13">
      <path d="M 55.949375 249.649963 
L 502.349375 249.649963 
" clip-path="url(#peadd5f06c6)" style="fill: none; stroke: #b0b0b0; stroke-width: 0.8; stroke-linecap: square"/>
     </g>
     <g id="line2d_14">
      <defs>
       <path id="m4f35369feb" d="M 0 0 
L -3.5 0 
" style="stroke: #000000; stroke-width: 0.8"/>
      </defs>
      <g>
       <use xlink:href="#m4f35369feb" x="55.949375" y="249.649963" style="stroke: #000000; stroke-width: 0.8"/>
      </g>
     </g>
     <g id="text_8">
      <!-- 0.2 -->
      <g transform="translate(26.685 254.968869) scale(0.14 -0.14)">
       <defs>
        <path id="DejaVuSans-2e" d="M 684 794 
L 1344 794 
L 1344 0 
L 684 0 
L 684 794 
z
" transform="scale(0.015625)"/>
       </defs>
       <use xlink:href="#DejaVuSans-30"/>
       <use xlink:href="#DejaVuSans-2e" transform="translate(63.623047 0)"/>
       <use xlink:href="#DejaVuSans-32" transform="translate(95.410156 0)"/>
      </g>
     </g>
    </g>
    <g id="ytick_2">
     <g id="line2d_15">
      <path d="M 55.949375 190.537013 
L 502.349375 190.537013 
" clip-path="url(#peadd5f06c6)" style="fill: none; stroke: #b0b0b0; stroke-width: 0.8; stroke-linecap: square"/>
     </g>
     <g id="line2d_16">
      <g>
       <use xlink:href="#m4f35369feb" x="55.949375" y="190.537013" style="stroke: #000000; stroke-width: 0.8"/>
      </g>
     </g>
     <g id="text_9">
      <!-- 0.4 -->
      <g transform="translate(26.685 195.855919) scale(0.14 -0.14)">
       <defs>
        <path id="DejaVuSans-34" d="M 2419 4116 
L 825 1625 
L 2419 1625 
L 2419 4116 
z
M 2253 4666 
L 3047 4666 
L 3047 1625 
L 3713 1625 
L 3713 1100 
L 3047 1100 
L 3047 0 
L 2419 0 
L 2419 1100 
L 313 1100 
L 313 1709 
L 2253 4666 
z
" transform="scale(0.015625)"/>
       </defs>
       <use xlink:href="#DejaVuSans-30"/>
       <use xlink:href="#DejaVuSans-2e" transform="translate(63.623047 0)"/>
       <use xlink:href="#DejaVuSans-34" transform="translate(95.410156 0)"/>
      </g>
     </g>
    </g>
    <g id="ytick_3">
     <g id="line2d_17">
      <path d="M 55.949375 131.424063 
L 502.349375 131.424063 
" clip-path="url(#peadd5f06c6)" style="fill: none; stroke: #b0b0b0; stroke-width: 0.8; stroke-linecap: square"/>
     </g>
     <g id="line2d_18">
      <g>
       <use xlink:href="#m4f35369feb" x="55.949375" y="131.424063" style="stroke: #000000; stroke-width: 0.8"/>
      </g>
     </g>
     <g id="text_10">
      <!-- 0.6 -->
      <g transform="translate(26.685 136.742969) scale(0.14 -0.14)">
       <defs>
        <path id="DejaVuSans-36" d="M 2113 2584 
Q 1688 2584 1439 2293 
Q 1191 2003 1191 1497 
Q 1191 994 1439 701 
Q 1688 409 2113 409 
Q 2538 409 2786 701 
Q 3034 994 3034 1497 
Q 3034 2003 2786 2293 
Q 2538 2584 2113 2584 
z
M 3366 4563 
L 3366 3988 
Q 3128 4100 2886 4159 
Q 2644 4219 2406 4219 
Q 1781 4219 1451 3797 
Q 1122 3375 1075 2522 
Q 1259 2794 1537 2939 
Q 1816 3084 2150 3084 
Q 2853 3084 3261 2657 
Q 3669 2231 3669 1497 
Q 3669 778 3244 343 
Q 2819 -91 2113 -91 
Q 1303 -91 875 529 
Q 447 1150 447 2328 
Q 447 3434 972 4092 
Q 1497 4750 2381 4750 
Q 2619 4750 2861 4703 
Q 3103 4656 3366 4563 
z
" transform="scale(0.015625)"/>
       </defs>
       <use xlink:href="#DejaVuSans-30"/>
       <use xlink:href="#DejaVuSans-2e" transform="translate(63.623047 0)"/>
       <use xlink:href="#DejaVuSans-36" transform="translate(95.410156 0)"/>
      </g>
     </g>
    </g>
    <g id="ytick_4">
     <g id="line2d_19">
      <path d="M 55.949375 72.311113 
L 502.349375 72.311113 
" clip-path="url(#peadd5f06c6)" style="fill: none; stroke: #b0b0b0; stroke-width: 0.8; stroke-linecap: square"/>
     </g>
     <g id="line2d_20">
      <g>
       <use xlink:href="#m4f35369feb" x="55.949375" y="72.311113" style="stroke: #000000; stroke-width: 0.8"/>
      </g>
     </g>
     <g id="text_11">
      <!-- 0.8 -->
      <g transform="translate(26.685 77.630019) scale(0.14 -0.14)">
       <defs>
        <path id="DejaVuSans-38" d="M 2034 2216 
Q 1584 2216 1326 1975 
Q 1069 1734 1069 1313 
Q 1069 891 1326 650 
Q 1584 409 2034 409 
Q 2484 409 2743 651 
Q 3003 894 3003 1313 
Q 3003 1734 2745 1975 
Q 2488 2216 2034 2216 
z
M 1403 2484 
Q 997 2584 770 2862 
Q 544 3141 544 3541 
Q 544 4100 942 4425 
Q 1341 4750 2034 4750 
Q 2731 4750 3128 4425 
Q 3525 4100 3525 3541 
Q 3525 3141 3298 2862 
Q 3072 2584 2669 2484 
Q 3125 2378 3379 2068 
Q 3634 1759 3634 1313 
Q 3634 634 3220 271 
Q 2806 -91 2034 -91 
Q 1263 -91 848 271 
Q 434 634 434 1313 
Q 434 1759 690 2068 
Q 947 2378 1403 2484 
z
M 1172 3481 
Q 1172 3119 1398 2916 
Q 1625 2713 2034 2713 
Q 2441 2713 2670 2916 
Q 2900 3119 2900 3481 
Q 2900 3844 2670 4047 
Q 2441 4250 2034 4250 
Q 1625 4250 1398 4047 
Q 1172 3844 1172 3481 
z
" transform="scale(0.015625)"/>
       </defs>
       <use xlink:href="#DejaVuSans-30"/>
       <use xlink:href="#DejaVuSans-2e" transform="translate(63.623047 0)"/>
       <use xlink:href="#DejaVuSans-38" transform="translate(95.410156 0)"/>
      </g>
     </g>
    </g>
    <g id="ytick_5">
     <g id="line2d_21">
      <path d="M 55.949375 13.198163 
L 502.349375 13.198163 
" clip-path="url(#peadd5f06c6)" style="fill: none; stroke: #b0b0b0; stroke-width: 0.8; stroke-linecap: square"/>
     </g>
     <g id="line2d_22">
      <g>
       <use xlink:href="#m4f35369feb" x="55.949375" y="13.198163" style="stroke: #000000; stroke-width: 0.8"/>
      </g>
     </g>
     <g id="text_12">
      <!-- 1.0 -->
      <g transform="translate(26.685 18.517069) scale(0.14 -0.14)">
       <use xlink:href="#DejaVuSans-31"/>
       <use xlink:href="#DejaVuSans-2e" transform="translate(63.623047 0)"/>
       <use xlink:href="#DejaVuSans-30" transform="translate(95.410156 0)"/>
      </g>
     </g>
    </g>
    <g id="text_13">
     <!-- P(1) -->
     <g transform="translate(19.3575 161.95625) rotate(-90) scale(0.16 -0.16)">
      <defs>
       <path id="DejaVuSans-50" d="M 1259 4147 
L 1259 2394 
L 2053 2394 
Q 2494 2394 2734 2622 
Q 2975 2850 2975 3272 
Q 2975 3691 2734 3919 
Q 2494 4147 2053 4147 
L 1259 4147 
z
M 628 4666 
L 2053 4666 
Q 2838 4666 3239 4311 
Q 3641 3956 3641 3272 
Q 3641 2581 3239 2228 
Q 2838 1875 2053 1875 
L 1259 1875 
L 1259 0 
L 628 0 
L 628 4666 
z
" transform="scale(0.015625)"/>
       <path id="DejaVuSans-28" d="M 1984 4856 
Q 1566 4138 1362 3434 
Q 1159 2731 1159 2009 
Q 1159 1288 1364 580 
Q 1569 -128 1984 -844 
L 1484 -844 
Q 1016 -109 783 600 
Q 550 1309 550 2009 
Q 550 2706 781 3412 
Q 1013 4119 1484 4856 
L 1984 4856 
z
" transform="scale(0.015625)"/>
       <path id="DejaVuSans-29" d="M 513 4856 
L 1013 4856 
Q 1481 4119 1714 3412 
Q 1947 2706 1947 2009 
Q 1947 1309 1714 600 
Q 1481 -109 1013 -844 
L 513 -844 
Q 928 -128 1133 580 
Q 1338 1288 1338 2009 
Q 1338 2731 1133 3434 
Q 928 4138 513 4856 
z
" transform="scale(0.015625)"/>
      </defs>
      <use xlink:href="#DejaVuSans-50"/>
      <use xlink:href="#DejaVuSans-28" transform="translate(60.302734 0)"/>
      <use xlink:href="#DejaVuSans-31" transform="translate(99.316406 0)"/>
      <use xlink:href="#DejaVuSans-29" transform="translate(162.939453 0)"/>
     </g>
    </g>
   </g>
   <g id="LineCollection_1">
    <path d="M 76.240284 30.983942 
L 76.240284 26.843172 
" clip-path="url(#peadd5f06c6)" style="fill: none; stroke: #1f77b4; stroke-opacity: 0.8; stroke-width: 1.5"/>
    <path d="M 121.333568 83.810915 
L 121.333568 76.094171 
" clip-path="url(#peadd5f06c6)" style="fill: none; stroke: #1f77b4; stroke-opacity: 0.8; stroke-width: 1.5"/>
    <path d="M 166.421508 132.606078 
L 166.421508 123.609863 
" clip-path="url(#peadd5f06c6)" style="fill: none; stroke: #1f77b4; stroke-opacity: 0.8; stroke-width: 1.5"/>
    <path d="M 211.514793 158.668632 
L 211.514793 149.451363 
" clip-path="url(#peadd5f06c6)" style="fill: none; stroke: #1f77b4; stroke-opacity: 0.8; stroke-width: 1.5"/>
    <path d="M 256.602733 204.073423 
L 256.602733 195.167021 
" clip-path="url(#peadd5f06c6)" style="fill: none; stroke: #1f77b4; stroke-opacity: 0.8; stroke-width: 1.5"/>
    <path d="M 301.696017 215.494106 
L 301.696017 206.814806 
" clip-path="url(#peadd5f06c6)" style="fill: none; stroke: #1f77b4; stroke-opacity: 0.8; stroke-width: 1.5"/>
    <path d="M 346.783957 228.017608 
L 346.783957 219.66662 
" clip-path="url(#peadd5f06c6)" style="fill: none; stroke: #1f77b4; stroke-opacity: 0.8; stroke-width: 1.5"/>
    <path d="M 391.877242 246.71413 
L 391.877242 239.033071 
" clip-path="url(#peadd5f06c6)" style="fill: none; stroke: #1f77b4; stroke-opacity: 0.8; stroke-width: 1.5"/>
    <path d="M 436.965182 258.825429 
L 436.965182 251.720375 
" clip-path="url(#peadd5f06c6)" style="fill: none; stroke: #1f77b4; stroke-opacity: 0.8; stroke-width: 1.5"/>
    <path d="M 482.058466 269.189906 
L 482.058466 262.694231 
" clip-path="url(#peadd5f06c6)" style="fill: none; stroke: #1f77b4; stroke-opacity: 0.8; stroke-width: 1.5"/>
   </g>
   <g id="line2d_23">
    <defs>
     <path id="m791dd69773" d="M 4 0 
L -4 -0 
" style="stroke: #1f77b4; stroke-opacity: 0.8"/>
    </defs>
    <g clip-path="url(#peadd5f06c6)">
     <use xlink:href="#m791dd69773" x="76.240284" y="30.983942" style="fill: #1f77b4; fill-opacity: 0.8; stroke: #1f77b4; stroke-opacity: 0.8"/>
     <use xlink:href="#m791dd69773" x="121.333568" y="83.810915" style="fill: #1f77b4; fill-opacity: 0.8; stroke: #1f77b4; stroke-opacity: 0.8"/>
     <use xlink:href="#m791dd69773" x="166.421508" y="132.606078" style="fill: #1f77b4; fill-opacity: 0.8; stroke: #1f77b4; stroke-opacity: 0.8"/>
     <use xlink:href="#m791dd69773" x="211.514793" y="158.668632" style="fill: #1f77b4; fill-opacity: 0.8; stroke: #1f77b4; stroke-opacity: 0.8"/>
     <use xlink:href="#m791dd69773" x="256.602733" y="204.073423" style="fill: #1f77b4; fill-opacity: 0.8; stroke: #1f77b4; stroke-opacity: 0.8"/>
     <use xlink:href="#m791dd69773" x="301.696017" y="215.494106" style="fill: #1f77b4; fill-opacity: 0.8; stroke: #1f77b4; stroke-opacity: 0.8"/>
     <use xlink:href="#m791dd69773" x="346.783957" y="228.017608" style="fill: #1f77b4; fill-opacity: 0.8; stroke: #1f77b4; stroke-opacity: 0.8"/>
     <use xlink:href="#m791dd69773" x="391.877242" y="246.71413" style="fill: #1f77b4; fill-opacity: 0.8; stroke: #1f77b4; stroke-opacity: 0.8"/>
     <use xlink:href="#m791dd69773" x="436.965182" y="258.825429" style="fill: #1f77b4; fill-opacity: 0.8; stroke: #1f77b4; stroke-opacity: 0.8"/>
     <use xlink:href="#m791dd69773" x="482.058466" y="269.189906" style="fill: #1f77b4; fill-opacity: 0.8; stroke: #1f77b4; stroke-opacity: 0.8"/>
    </g>
   </g>
   <g id="line2d_24">
    <g clip-path="url(#peadd5f06c6)">
     <use xlink:href="#m791dd69773" x="76.240284" y="26.843172" style="fill: #1f77b4; fill-opacity: 0.8; stroke: #1f77b4; stroke-opacity: 0.8"/>
     <use xlink:href="#m791dd69773" x="121.333568" y="76.094171" style="fill: #1f77b4; fill-opacity: 0.8; stroke: #1f77b4; stroke-opacity: 0.8"/>
     <use xlink:href="#m791dd69773" x="166.421508" y="123.609863" style="fill: #1f77b4; fill-opacity: 0.8; stroke: #1f77b4; stroke-opacity: 0.8"/>
     <use xlink:href="#m791dd69773" x="211.514793" y="149.451363" style="fill: #1f77b4; fill-opacity: 0.8; stroke: #1f77b4; stroke-opacity: 0.8"/>
     <use xlink:href="#m791dd69773" x="256.602733" y="195.167021" style="fill: #1f77b4; fill-opacity: 0.8; stroke: #1f77b4; stroke-opacity: 0.8"/>
     <use xlink:href="#m791dd69773" x="301.696017" y="206.814806" style="fill: #1f77b4; fill-opacity: 0.8; stroke: #1f77b4; stroke-opacity: 0.8"/>
     <use xlink:href="#m791dd69773" x="346.783957" y="219.66662" style="fill: #1f77b4; fill-opacity: 0.8; stroke: #1f77b4; stroke-opacity: 0.8"/>
     <use xlink:href="#m791dd69773" x="391.877242" y="239.033071" style="fill: #1f77b4; fill-opacity: 0.8; stroke: #1f77b4; stroke-opacity: 0.8"/>
     <use xlink:href="#m791dd69773" x="436.965182" y="251.720375" style="fill: #1f77b4; fill-opacity: 0.8; stroke: #1f77b4; stroke-opacity: 0.8"/>
     <use xlink:href="#m791dd69773" x="482.058466" y="262.694231" style="fill: #1f77b4; fill-opacity: 0.8; stroke: #1f77b4; stroke-opacity: 0.8"/>
    </g>
   </g>
   <g id="line2d_25">
    <defs>
     <path id="m8d7a82d262" d="M 0 1.5 
C 0.397805 1.5 0.77937 1.341951 1.06066 1.06066 
C 1.341951 0.77937 1.5 0.397805 1.5 0 
C 1.5 -0.397805 1.341951 -0.77937 1.06066 -1.06066 
C 0.77937 -1.341951 0.397805 -1.5 0 -1.5 
C -0.397805 -1.5 -0.77937 -1.341951 -1.06066 -1.06066 
C -1.341951 -0.77937 -1.5 -0.397805 -1.5 0 
C -1.5 0.397805 -1.341951 0.77937 -1.06066 1.06066 
C -0.77937 1.341951 -0.397805 1.5 0 1.5 
z
" style="stroke: #1f77b4; stroke-opacity: 0.8"/>
    </defs>
    <g clip-path="url(#peadd5f06c6)">
     <use xlink:href="#m8d7a82d262" x="76.240284" y="28.913557" style="fill: #1f77b4; fill-opacity: 0.8; stroke: #1f77b4; stroke-opacity: 0.8"/>
     <use xlink:href="#m8d7a82d262" x="121.333568" y="79.952543" style="fill: #1f77b4; fill-opacity: 0.8; stroke: #1f77b4; stroke-opacity: 0.8"/>
     <use xlink:href="#m8d7a82d262" x="166.421508" y="128.107971" style="fill: #1f77b4; fill-opacity: 0.8; stroke: #1f77b4; stroke-opacity: 0.8"/>
     <use xlink:href="#m8d7a82d262" x="211.514793" y="154.059997" style="fill: #1f77b4; fill-opacity: 0.8; stroke: #1f77b4; stroke-opacity: 0.8"/>
     <use xlink:href="#m8d7a82d262" x="256.602733" y="199.620222" style="fill: #1f77b4; fill-opacity: 0.8; stroke: #1f77b4; stroke-opacity: 0.8"/>
     <use xlink:href="#m8d7a82d262" x="301.696017" y="211.154456" style="fill: #1f77b4; fill-opacity: 0.8; stroke: #1f77b4; stroke-opacity: 0.8"/>
     <use xlink:href="#m8d7a82d262" x="346.783957" y="223.842114" style="fill: #1f77b4; fill-opacity: 0.8; stroke: #1f77b4; stroke-opacity: 0.8"/>
     <use xlink:href="#m8d7a82d262" x="391.877242" y="242.8736" style="fill: #1f77b4; fill-opacity: 0.8; stroke: #1f77b4; stroke-opacity: 0.8"/>
     <use xlink:href="#m8d7a82d262" x="436.965182" y="255.272902" style="fill: #1f77b4; fill-opacity: 0.8; stroke: #1f77b4; stroke-opacity: 0.8"/>
     <use xlink:href="#m8d7a82d262" x="482.058466" y="265.942069" style="fill: #1f77b4; fill-opacity: 0.8; stroke: #1f77b4; stroke-opacity: 0.8"/>
    </g>
   </g>
   <g id="patch_3">
    <path d="M 55.949375 284.4 
L 55.949375 7.2 
" style="fill: none; stroke: #000000; stroke-width: 0.8; stroke-linejoin: miter; stroke-linecap: square"/>
   </g>
   <g id="patch_4">
    <path d="M 502.349375 284.4 
L 502.349375 7.2 
" style="fill: none; stroke: #000000; stroke-width: 0.8; stroke-linejoin: miter; stroke-linecap: square"/>
   </g>
   <g id="patch_5">
    <path d="M 55.949375 284.4 
L 502.349375 284.4 
" style="fill: none; stroke: #000000; stroke-width: 0.8; stroke-linejoin: miter; stroke-linecap: square"/>
   </g>
   <g id="patch_6">
    <path d="M 55.949375 7.2 
L 502.349375 7.2 
" style="fill: none; stroke: #000000; stroke-width: 0.8; stroke-linejoin: miter; stroke-linecap: square"/>
   </g>
   <g id="line2d_26">
    <path d="M 76.240284 28.281067 
L 80.339458 33.700382 
L 84.438631 39.012773 
L 88.537805 44.220348 
L 92.636978 49.325176 
L 96.736152 54.329283 
L 100.835325 59.234657 
L 104.934499 64.043247 
L 109.033673 68.756961 
L 113.132846 73.377671 
L 117.23202 77.907213 
L 121.331193 82.347385 
L 125.430367 86.699951 
L 129.52954 90.96664 
L 133.628714 95.149144 
L 137.727887 99.249126 
L 141.827061 103.268214 
L 145.926235 107.208004 
L 150.025408 111.07006 
L 154.124582 114.855916 
L 158.223755 118.567076 
L 162.322929 122.205013 
L 166.422102 125.771172 
L 170.521276 129.26697 
L 174.620449 132.693794 
L 178.719623 136.053005 
L 182.818796 139.345938 
L 186.91797 142.5739 
L 191.017144 145.738173 
L 195.116317 148.840013 
L 199.215491 151.880653 
L 203.314664 154.8613 
L 207.413838 157.783138 
L 211.513011 160.647327 
L 215.612185 163.455004 
L 219.711358 166.207284 
L 223.810532 168.905261 
L 227.909706 171.550006 
L 232.008879 174.142569 
L 236.108053 176.683979 
L 240.207226 179.175247 
L 244.3064 181.617361 
L 248.405573 184.011291 
L 252.504747 186.357987 
L 256.60392 188.658383 
L 260.703094 190.913391 
L 264.802268 193.123906 
L 268.901441 195.290807 
L 273.000615 197.414955 
L 277.099788 199.497192 
L 281.198962 201.538346 
L 285.298135 203.539227 
L 289.397309 205.50063 
L 293.496482 207.423333 
L 297.595656 209.308101 
L 301.69483 211.155682 
L 305.794003 212.966809 
L 309.893177 214.742202 
L 313.99235 216.482565 
L 318.091524 218.188591 
L 322.190697 219.860956 
L 326.289871 221.500325 
L 330.389044 223.107348 
L 334.488218 224.682664 
L 338.587392 226.226898 
L 342.686565 227.740665 
L 346.785739 229.224563 
L 350.884912 230.679184 
L 354.984086 232.105105 
L 359.083259 233.502892 
L 363.182433 234.8731 
L 367.281606 236.216273 
L 371.38078 237.532944 
L 375.479954 238.823638 
L 379.579127 240.088865 
L 383.678301 241.329129 
L 387.777474 242.544922 
L 391.876648 243.736727 
L 395.975821 244.905017 
L 400.074995 246.050257 
L 404.174168 247.1729 
L 408.273342 248.273393 
L 412.372515 249.352173 
L 416.471689 250.409668 
L 420.570863 251.446299 
L 424.670036 252.462476 
L 428.76921 253.458604 
L 432.868383 254.435077 
L 436.967557 255.392285 
L 441.06673 256.330606 
L 445.165904 257.250414 
L 449.265077 258.152074 
L 453.364251 259.035944 
L 457.463425 259.902374 
L 461.562598 260.75171 
L 465.661772 261.584288 
L 469.760945 262.400438 
L 473.860119 263.200486 
L 477.959292 263.984749 
L 482.058466 264.753537 
" clip-path="url(#peadd5f06c6)" style="fill: none; stroke: #1f77b4; stroke-width: 2; stroke-linecap: square"/>
   </g>
   <g id="FillBetweenPolyCollection_1">
    <defs>
     <path id="m53dc45f627" d="M 76.240284 -362.683706 
L 76.240284 -357.029661 
L 80.339458 -351.778223 
L 84.438631 -346.616067 
L 88.537805 -341.541113 
L 92.636978 -336.55144 
L 96.736152 -331.645335 
L 100.835325 -326.821328 
L 104.934499 -322.078225 
L 109.033673 -317.415107 
L 113.132846 -312.831318 
L 117.23202 -308.326415 
L 121.331193 -303.900111 
L 125.430367 -299.552204 
L 129.52954 -295.282513 
L 133.628714 -291.090818 
L 137.727887 -286.976825 
L 141.827061 -282.940135 
L 145.926235 -278.980235 
L 150.025408 -275.096498 
L 154.124582 -271.288188 
L 158.223755 -267.554468 
L 162.322929 -263.894418 
L 166.422102 -260.307046 
L 170.521276 -256.791299 
L 174.620449 -253.346077 
L 178.719623 -249.970245 
L 182.818796 -246.662638 
L 186.91797 -243.422075 
L 191.017144 -240.24736 
L 195.116317 -237.137289 
L 199.215491 -234.090657 
L 203.314664 -231.106261 
L 207.413838 -228.182901 
L 211.513011 -225.319385 
L 215.612185 -222.514529 
L 219.711358 -219.767162 
L 223.810532 -217.076123 
L 227.909706 -214.440266 
L 232.008879 -211.858456 
L 236.108053 -209.329575 
L 240.207226 -206.85252 
L 244.3064 -204.4262 
L 248.405573 -202.049541 
L 252.504747 -199.721486 
L 256.60392 -197.440988 
L 260.703094 -195.20702 
L 264.802268 -193.018567 
L 268.901441 -190.874627 
L 273.000615 -188.774214 
L 277.099788 -186.716355 
L 281.198962 -184.70009 
L 285.298135 -182.724472 
L 289.397309 -180.788566 
L 293.496482 -178.891451 
L 297.595656 -177.032215 
L 301.69483 -175.209959 
L 305.794003 -173.423798 
L 309.893177 -171.672853 
L 313.99235 -169.956263 
L 318.091524 -168.273173 
L 322.190697 -166.622746 
L 326.289871 -165.004152 
L 330.389044 -163.416581 
L 334.488218 -161.859233 
L 338.587392 -160.331327 
L 342.686565 -158.832098 
L 346.785739 -157.360802 
L 350.884912 -155.916715 
L 354.984086 -154.499137 
L 359.083259 -153.107391 
L 363.182433 -151.740827 
L 367.281606 -150.398823 
L 371.38078 -149.080786 
L 375.479954 -147.786152 
L 379.579127 -146.514387 
L 383.678301 -145.264985 
L 387.777474 -144.03747 
L 391.876648 -142.831393 
L 395.975821 -141.646331 
L 400.074995 -140.481884 
L 404.174168 -139.337677 
L 408.273342 -138.21335 
L 412.372515 -137.108564 
L 416.471689 -136.022993 
L 420.570863 -134.956325 
L 424.670036 -133.90826 
L 428.76921 -132.878505 
L 432.868383 -131.866777 
L 436.967557 -130.872799 
L 441.06673 -129.8963 
L 445.165904 -128.937011 
L 449.265077 -127.99467 
L 453.364251 -127.069017 
L 457.463425 -126.159794 
L 461.562598 -125.266747 
L 465.661772 -124.389623 
L 469.760945 -123.528173 
L 473.860119 -122.682148 
L 477.959292 -121.851302 
L 482.058466 -121.035392 
L 482.058466 -125.733034 
L 482.058466 -125.733034 
L 477.959292 -126.454701 
L 473.860119 -127.19238 
L 469.760945 -127.94645 
L 465.661772 -128.717302 
L 461.562598 -129.505334 
L 457.463425 -130.310958 
L 453.364251 -131.134596 
L 449.265077 -131.976682 
L 445.165904 -132.837661 
L 441.06673 -133.717988 
L 436.967557 -134.618131 
L 432.868383 -135.538568 
L 428.76921 -136.479788 
L 424.670036 -137.442288 
L 420.570863 -138.426578 
L 416.471689 -139.433171 
L 412.372515 -140.46259 
L 408.273342 -141.515364 
L 404.174168 -142.592023 
L 400.074995 -143.693102 
L 395.975821 -144.819135 
L 391.876648 -145.970653 
L 387.777474 -147.148186 
L 383.678301 -148.352257 
L 379.579127 -149.583383 
L 375.479954 -150.842072 
L 371.38078 -152.128825 
L 367.281606 -153.444131 
L 363.182433 -154.788474 
L 359.083259 -156.162326 
L 354.984086 -157.566153 
L 350.884912 -159.000416 
L 346.785739 -160.465571 
L 342.686565 -161.962073 
L 338.587392 -163.490376 
L 334.488218 -165.050939 
L 330.389044 -166.644223 
L 326.289871 -168.270698 
L 322.190697 -169.930842 
L 318.091524 -171.625144 
L 313.99235 -173.354106 
L 309.893177 -175.118243 
L 305.794003 -176.918085 
L 301.69483 -178.754177 
L 297.595656 -180.627083 
L 293.496482 -182.537383 
L 289.397309 -184.485675 
L 285.298135 -186.472575 
L 281.198962 -188.498719 
L 277.099788 -190.564761 
L 273.000615 -192.671377 
L 268.901441 -194.819259 
L 264.802268 -197.009121 
L 260.703094 -199.241698 
L 256.60392 -201.517746 
L 252.504747 -203.83804 
L 248.405573 -206.203378 
L 244.3064 -208.614579 
L 240.207226 -211.072487 
L 236.108053 -213.577966 
L 232.008879 -216.131907 
L 227.909706 -218.735223 
L 223.810532 -221.388855 
L 219.711358 -224.09377 
L 215.612185 -226.850963 
L 211.513011 -229.661462 
L 207.413838 -232.526323 
L 203.314664 -235.446638 
L 199.215491 -238.423536 
L 195.116317 -241.458184 
L 191.017144 -244.551795 
L 186.91797 -247.705625 
L 182.818796 -250.920986 
L 178.719623 -254.199245 
L 174.620449 -257.541836 
L 170.521276 -260.950262 
L 166.422102 -264.426109 
L 162.322929 -267.971055 
L 158.223755 -271.58688 
L 154.124582 -275.275479 
L 150.025408 -279.038881 
L 145.926235 -282.879257 
L 141.827061 -286.798937 
L 137.727887 -290.800422 
L 133.628714 -294.886393 
L 129.52954 -299.059708 
L 125.430367 -303.323393 
L 121.331193 -307.680619 
L 117.23202 -312.134659 
L 113.132846 -316.68884 
L 109.033673 -321.346472 
L 104.934499 -326.110782 
L 100.835325 -330.984857 
L 96.736152 -335.971599 
L 92.636978 -341.073708 
L 88.537805 -346.29369 
L 84.438631 -351.633886 
L 80.339458 -357.096512 
L 76.240284 -362.683706 
z
" style="stroke: #1f77b4; stroke-opacity: 0.7"/>
    </defs>
    <g clip-path="url(#peadd5f06c6)">
     <use xlink:href="#m53dc45f627" x="0" y="388.13775" style="fill: #1f77b4; fill-opacity: 0.7; stroke: #1f77b4; stroke-opacity: 0.7"/>
    </g>
   </g>
   <g id="FillBetweenPolyCollection_2">
    <defs>
     <path id="medaf70e9e4" d="M 76.240284 -368.33775 
L 76.240284 -351.375617 
L 80.339458 -346.459935 
L 84.438631 -341.598249 
L 88.537805 -336.788536 
L 92.636978 -332.029173 
L 96.736152 -327.319071 
L 100.835325 -322.6578 
L 104.934499 -318.045667 
L 109.033673 -313.483742 
L 113.132846 -308.973795 
L 117.23202 -304.51817 
L 121.331193 -300.119603 
L 125.430367 -295.781015 
L 129.52954 -291.505317 
L 133.628714 -287.295243 
L 137.727887 -283.153228 
L 141.827061 -279.081333 
L 145.926235 -275.081214 
L 150.025408 -271.154116 
L 154.124582 -267.300896 
L 158.223755 -263.522057 
L 162.322929 -259.817782 
L 166.422102 -256.187983 
L 170.521276 -252.632335 
L 174.620449 -249.150318 
L 178.719623 -245.741244 
L 182.818796 -242.404291 
L 186.91797 -239.138526 
L 191.017144 -235.942925 
L 195.116317 -232.816393 
L 199.215491 -229.757779 
L 203.314664 -226.765884 
L 207.413838 -223.839479 
L 211.513011 -220.977307 
L 215.612185 -218.178095 
L 219.711358 -215.440555 
L 223.810532 -212.763392 
L 227.909706 -210.145308 
L 232.008879 -207.585005 
L 236.108053 -205.081184 
L 240.207226 -202.632552 
L 244.3064 -200.23782 
L 248.405573 -197.895705 
L 252.504747 -195.604931 
L 256.60392 -193.364231 
L 260.703094 -191.172342 
L 264.802268 -189.028012 
L 268.901441 -186.929995 
L 273.000615 -184.87705 
L 277.099788 -182.867948 
L 281.198962 -180.90146 
L 285.298135 -178.976368 
L 289.397309 -177.091457 
L 293.496482 -175.245518 
L 297.595656 -173.437346 
L 301.69483 -171.665742 
L 305.794003 -169.92951 
L 309.893177 -168.227464 
L 313.99235 -166.558419 
L 318.091524 -164.921203 
L 322.190697 -163.314649 
L 326.289871 -161.737607 
L 330.389044 -160.188939 
L 334.488218 -158.667527 
L 338.587392 -157.172277 
L 342.686565 -155.702123 
L 346.785739 -154.256033 
L 350.884912 -152.833015 
L 354.984086 -151.432121 
L 359.083259 -150.052456 
L 363.182433 -148.69318 
L 367.281606 -147.353515 
L 371.38078 -146.032748 
L 375.479954 -144.730232 
L 379.579127 -143.445391 
L 383.678301 -142.177712 
L 387.777474 -140.926753 
L 391.876648 -139.692132 
L 395.975821 -138.473526 
L 400.074995 -137.270667 
L 404.174168 -136.08333 
L 408.273342 -134.911336 
L 412.372515 -133.754537 
L 416.471689 -132.612815 
L 420.570863 -131.486073 
L 424.670036 -130.374231 
L 428.76921 -129.277222 
L 432.868383 -128.194987 
L 436.967557 -127.127468 
L 441.06673 -126.074612 
L 445.165904 -125.036362 
L 449.265077 -124.012658 
L 453.364251 -123.003437 
L 457.463425 -122.00863 
L 461.562598 -121.02816 
L 465.661772 -120.061945 
L 469.760945 -119.109896 
L 473.860119 -118.171916 
L 477.959292 -117.247904 
L 482.058466 -116.33775 
L 482.058466 -130.430675 
L 482.058466 -130.430675 
L 477.959292 -131.058099 
L 473.860119 -131.702612 
L 469.760945 -132.364728 
L 465.661772 -133.04498 
L 461.562598 -133.74392 
L 457.463425 -134.462122 
L 453.364251 -135.200175 
L 449.265077 -135.958694 
L 445.165904 -136.73831 
L 441.06673 -137.539676 
L 436.967557 -138.363462 
L 432.868383 -139.210359 
L 428.76921 -140.08107 
L 424.670036 -140.976317 
L 420.570863 -141.89683 
L 416.471689 -142.843349 
L 412.372515 -143.816617 
L 408.273342 -144.817378 
L 404.174168 -145.84637 
L 400.074995 -146.90432 
L 395.975821 -147.991939 
L 391.876648 -149.109914 
L 387.777474 -150.258903 
L 383.678301 -151.43953 
L 379.579127 -152.652379 
L 375.479954 -153.897992 
L 371.38078 -155.176863 
L 367.281606 -156.48944 
L 363.182433 -157.836121 
L 359.083259 -159.217261 
L 354.984086 -160.633169 
L 350.884912 -162.084116 
L 346.785739 -163.57034 
L 342.686565 -165.092048 
L 338.587392 -166.649426 
L 334.488218 -168.242645 
L 330.389044 -169.871865 
L 326.289871 -171.537243 
L 322.190697 -173.238938 
L 318.091524 -174.977115 
L 313.99235 -176.75195 
L 309.893177 -178.563633 
L 305.794003 -180.412372 
L 301.69483 -182.298395 
L 297.595656 -184.221952 
L 293.496482 -186.183315 
L 289.397309 -188.182783 
L 285.298135 -190.220678 
L 281.198962 -192.297348 
L 277.099788 -194.413168 
L 273.000615 -196.56854 
L 268.901441 -198.763891 
L 264.802268 -200.999675 
L 260.703094 -203.276376 
L 256.60392 -205.594503 
L 252.504747 -207.954594 
L 248.405573 -210.357214 
L 244.3064 -212.802959 
L 240.207226 -215.292454 
L 236.108053 -217.826357 
L 232.008879 -220.405358 
L 227.909706 -223.03018 
L 223.810532 -225.701586 
L 219.711358 -228.420377 
L 215.612185 -231.187398 
L 211.513011 -234.003539 
L 207.413838 -236.869745 
L 203.314664 -239.787015 
L 199.215491 -242.756415 
L 195.116317 -245.77908 
L 191.017144 -248.856229 
L 186.91797 -251.989174 
L 182.818796 -255.179333 
L 178.719623 -258.428246 
L 174.620449 -261.737594 
L 170.521276 -265.109225 
L 166.422102 -268.545172 
L 162.322929 -272.047692 
L 158.223755 -275.619291 
L 154.124582 -279.262771 
L 150.025408 -282.981264 
L 145.926235 -286.778278 
L 141.827061 -290.657738 
L 137.727887 -294.62402 
L 133.628714 -298.681968 
L 129.52954 -302.836904 
L 125.430367 -307.094582 
L 121.331193 -311.461126 
L 117.23202 -315.942904 
L 113.132846 -320.546363 
L 109.033673 -325.277837 
L 104.934499 -330.14334 
L 100.835325 -335.148386 
L 96.736152 -340.297862 
L 92.636978 -345.595975 
L 88.537805 -351.046268 
L 84.438631 -356.651705 
L 80.339458 -362.4148 
L 76.240284 -368.33775 
z
" style="stroke: #1f77b4; stroke-opacity: 0.3"/>
    </defs>
    <g clip-path="url(#peadd5f06c6)">
     <use xlink:href="#medaf70e9e4" x="0" y="388.13775" style="fill: #1f77b4; fill-opacity: 0.3; stroke: #1f77b4; stroke-opacity: 0.3"/>
    </g>
   </g>
   <g id="text_14">
    <g id="patch_7">
     <path d="M 211.001562 384.53775 
L 347.297187 384.53775 
L 347.297187 350.124375 
L 211.001562 350.124375 
z
" style="fill: #ffffff; opacity: 0.8; stroke: #000000; stroke-linejoin: miter"/>
    </g>
    <!-- T1 =   137 ±  8.71 µs -->
    <g transform="translate(214.601562 362.818125) scale(0.12 -0.12)">
     <defs>
      <path id="DejaVuSans-54" d="M -19 4666 
L 3928 4666 
L 3928 4134 
L 2272 4134 
L 2272 0 
L 1638 0 
L 1638 4134 
L -19 4134 
L -19 4666 
z
" transform="scale(0.015625)"/>
      <path id="DejaVuSans-3d" d="M 678 2906 
L 4684 2906 
L 4684 2381 
L 678 2381 
L 678 2906 
z
M 678 1631 
L 4684 1631 
L 4684 1100 
L 678 1100 
L 678 1631 
z
" transform="scale(0.015625)"/>
      <path id="DejaVuSans-33" d="M 2597 2516 
Q 3050 2419 3304 2112 
Q 3559 1806 3559 1356 
Q 3559 666 3084 287 
Q 2609 -91 1734 -91 
Q 1441 -91 1130 -33 
Q 819 25 488 141 
L 488 750 
Q 750 597 1062 519 
Q 1375 441 1716 441 
Q 2309 441 2620 675 
Q 2931 909 2931 1356 
Q 2931 1769 2642 2001 
Q 2353 2234 1838 2234 
L 1294 2234 
L 1294 2753 
L 1863 2753 
Q 2328 2753 2575 2939 
Q 2822 3125 2822 3475 
Q 2822 3834 2567 4026 
Q 2313 4219 1838 4219 
Q 1578 4219 1281 4162 
Q 984 4106 628 3988 
L 628 4550 
Q 988 4650 1302 4700 
Q 1616 4750 1894 4750 
Q 2613 4750 3031 4423 
Q 3450 4097 3450 3541 
Q 3450 3153 3228 2886 
Q 3006 2619 2597 2516 
z
" transform="scale(0.015625)"/>
      <path id="DejaVuSans-37" d="M 525 4666 
L 3525 4666 
L 3525 4397 
L 1831 0 
L 1172 0 
L 2766 4134 
L 525 4134 
L 525 4666 
z
" transform="scale(0.015625)"/>
      <path id="DejaVuSans-b1" d="M 2944 4013 
L 2944 2803 
L 4684 2803 
L 4684 2272 
L 2944 2272 
L 2944 1063 
L 2419 1063 
L 2419 2272 
L 678 2272 
L 678 2803 
L 2419 2803 
L 2419 4013 
L 2944 4013 
z
M 678 531 
L 4684 531 
L 4684 0 
L 678 0 
L 678 531 
z
" transform="scale(0.015625)"/>
     </defs>
     <use xlink:href="#DejaVuSans-54"/>
     <use xlink:href="#DejaVuSans-31" transform="translate(61.083984 0)"/>
     <use xlink:href="#DejaVuSans-20" transform="translate(124.707031 0)"/>
     <use xlink:href="#DejaVuSans-3d" transform="translate(156.494141 0)"/>
     <use xlink:href="#DejaVuSans-20" transform="translate(240.283203 0)"/>
     <use xlink:href="#DejaVuSans-20" transform="translate(272.070312 0)"/>
     <use xlink:href="#DejaVuSans-20" transform="translate(303.857422 0)"/>
     <use xlink:href="#DejaVuSans-31" transform="translate(335.644531 0)"/>
     <use xlink:href="#DejaVuSans-33" transform="translate(399.267578 0)"/>
     <use xlink:href="#DejaVuSans-37" transform="translate(462.890625 0)"/>
     <use xlink:href="#DejaVuSans-20" transform="translate(526.513672 0)"/>
     <use xlink:href="#DejaVuSans-b1" transform="translate(558.300781 0)"/>
     <use xlink:href="#DejaVuSans-20" transform="translate(642.089844 0)"/>
     <use xlink:href="#DejaVuSans-20" transform="translate(673.876953 0)"/>
     <use xlink:href="#DejaVuSans-38" transform="translate(705.664062 0)"/>
     <use xlink:href="#DejaVuSans-2e" transform="translate(769.287109 0)"/>
     <use xlink:href="#DejaVuSans-37" transform="translate(801.074219 0)"/>
     <use xlink:href="#DejaVuSans-31" transform="translate(864.697266 0)"/>
     <use xlink:href="#DejaVuSans-20" transform="translate(928.320312 0)"/>
     <use xlink:href="#DejaVuSans-b5" transform="translate(960.107422 0)"/>
     <use xlink:href="#DejaVuSans-73" transform="translate(1023.730469 0)"/>
    </g>
    <!-- reduced-$\chi^2$ =  1.521 -->
    <g transform="translate(217.829375 378.41775) scale(0.12 -0.12)">
     <defs>
      <path id="DejaVuSans-72" d="M 2631 2963 
Q 2534 3019 2420 3045 
Q 2306 3072 2169 3072 
Q 1681 3072 1420 2755 
Q 1159 2438 1159 1844 
L 1159 0 
L 581 0 
L 581 3500 
L 1159 3500 
L 1159 2956 
Q 1341 3275 1631 3429 
Q 1922 3584 2338 3584 
Q 2397 3584 2469 3576 
Q 2541 3569 2628 3553 
L 2631 2963 
z
" transform="scale(0.015625)"/>
      <path id="DejaVuSans-64" d="M 2906 2969 
L 2906 4863 
L 3481 4863 
L 3481 0 
L 2906 0 
L 2906 525 
Q 2725 213 2448 61 
Q 2172 -91 1784 -91 
Q 1150 -91 751 415 
Q 353 922 353 1747 
Q 353 2572 751 3078 
Q 1150 3584 1784 3584 
Q 2172 3584 2448 3432 
Q 2725 3281 2906 2969 
z
M 947 1747 
Q 947 1113 1208 752 
Q 1469 391 1925 391 
Q 2381 391 2643 752 
Q 2906 1113 2906 1747 
Q 2906 2381 2643 2742 
Q 2381 3103 1925 3103 
Q 1469 3103 1208 2742 
Q 947 2381 947 1747 
z
" transform="scale(0.015625)"/>
      <path id="DejaVuSans-75" d="M 544 1381 
L 544 3500 
L 1119 3500 
L 1119 1403 
Q 1119 906 1312 657 
Q 1506 409 1894 409 
Q 2359 409 2629 706 
Q 2900 1003 2900 1516 
L 2900 3500 
L 3475 3500 
L 3475 0 
L 2900 0 
L 2900 538 
Q 2691 219 2414 64 
Q 2138 -91 1772 -91 
Q 1169 -91 856 284 
Q 544 659 544 1381 
z
M 1991 3584 
L 1991 3584 
z
" transform="scale(0.015625)"/>
      <path id="DejaVuSans-63" d="M 3122 3366 
L 3122 2828 
Q 2878 2963 2633 3030 
Q 2388 3097 2138 3097 
Q 1578 3097 1268 2742 
Q 959 2388 959 1747 
Q 959 1106 1268 751 
Q 1578 397 2138 397 
Q 2388 397 2633 464 
Q 2878 531 3122 666 
L 3122 134 
Q 2881 22 2623 -34 
Q 2366 -91 2075 -91 
Q 1284 -91 818 406 
Q 353 903 353 1747 
Q 353 2603 823 3093 
Q 1294 3584 2113 3584 
Q 2378 3584 2631 3529 
Q 2884 3475 3122 3366 
z
" transform="scale(0.015625)"/>
      <path id="DejaVuSans-2d" d="M 313 2009 
L 1997 2009 
L 1997 1497 
L 313 1497 
L 313 2009 
z
" transform="scale(0.015625)"/>
      <path id="DejaVuSans-Oblique-3c7" d="M 1922 -781 
L 1691 416 
L 394 -1334 
L -284 -1334 
L 1553 1141 
L 1269 2613 
Q 1194 3006 713 3006 
L 559 3006 
L 653 3500 
L 872 3494 
Q 1675 3472 1775 2950 
L 2006 1753 
L 3303 3503 
L 3981 3503 
L 2144 1028 
L 2428 -444 
Q 2503 -838 2984 -838 
L 3138 -838 
L 3044 -1331 
L 2825 -1325 
Q 2022 -1303 1922 -781 
z
" transform="scale(0.015625)"/>
     </defs>
     <use xlink:href="#DejaVuSans-72" transform="translate(0 0.765625)"/>
     <use xlink:href="#DejaVuSans-65" transform="translate(41.113281 0.765625)"/>
     <use xlink:href="#DejaVuSans-64" transform="translate(102.636719 0.765625)"/>
     <use xlink:href="#DejaVuSans-75" transform="translate(166.113281 0.765625)"/>
     <use xlink:href="#DejaVuSans-63" transform="translate(229.492188 0.765625)"/>
     <use xlink:href="#DejaVuSans-65" transform="translate(284.472656 0.765625)"/>
     <use xlink:href="#DejaVuSans-64" transform="translate(345.996094 0.765625)"/>
     <use xlink:href="#DejaVuSans-2d" transform="translate(409.472656 0.765625)"/>
     <use xlink:href="#DejaVuSans-Oblique-3c7" transform="translate(445.556641 0.765625)"/>
     <use xlink:href="#DejaVuSans-32" transform="translate(509.209036 39.046875) scale(0.7)"/>
     <use xlink:href="#DejaVuSans-20" transform="translate(556.479544 0.765625)"/>
     <use xlink:href="#DejaVuSans-3d" transform="translate(588.266654 0.765625)"/>
     <use xlink:href="#DejaVuSans-20" transform="translate(672.055716 0.765625)"/>
     <use xlink:href="#DejaVuSans-20" transform="translate(703.842826 0.765625)"/>
     <use xlink:href="#DejaVuSans-31" transform="translate(735.629935 0.765625)"/>
     <use xlink:href="#DejaVuSans-2e" transform="translate(799.252982 0.765625)"/>
     <use xlink:href="#DejaVuSans-35" transform="translate(831.040091 0.765625)"/>
     <use xlink:href="#DejaVuSans-32" transform="translate(894.663138 0.765625)"/>
     <use xlink:href="#DejaVuSans-31" transform="translate(958.286185 0.765625)"/>
    </g>
   </g>
  </g>
 </g>
 <defs>
  <clipPath id="peadd5f06c6">
   <rect x="55.949375" y="7.2" width="446.4" height="277.2"/>
  </clipPath>
 </defs>
</svg>
