<?xml version="1.0" encoding="utf-8" standalone="no"?>
<!DOCTYPE svg PUBLIC "-//W3C//DTD SVG 1.1//EN"
  "http://www.w3.org/Graphics/SVG/1.1/DTD/svg11.dtd">
<svg xmlns:xlink="http://www.w3.org/1999/xlink" width="509.549375pt" height="388.13775pt" viewBox="0 0 509.549375 388.13775" xmlns="http://www.w3.org/2000/svg" version="1.1">
 <metadata>
  <rdf:RDF xmlns:dc="http://purl.org/dc/elements/1.1/" xmlns:cc="http://creativecommons.org/ns#" xmlns:rdf="http://www.w3.org/1999/02/22-rdf-syntax-ns#">
   <cc:Work>
    <dc:type rdf:resource="http://purl.org/dc/dcmitype/StillImage"/>
    <dc:date>2026-06-02T02:26:39.992310</dc:date>
    <dc:format>image/svg+xml</dc:format>
    <dc:creator>
     <cc:Agent>
      <dc:title>Matplotlib v3.10.9, https://matplotlib.org/</dc:title>
     </cc:Agent>
    </dc:creator>
   </cc:Work>
  </rdf:RDF>
 </metadata>
 <defs>
  <style type="text/css">*{stroke-linejoin: round; stroke-linecap: butt}</style>
 </defs>
 <g id="figure_1">
  <g id="patch_1">
   <path d="M 0 388.13775 
L 509.549375 388.13775 
L 509.549375 0 
L 0 0 
z
" style="fill: #ffffff"/>
  </g>
  <g id="axes_1">
   <g id="patch_2">
    <path d="M 55.949375 284.4 
L 502.349375 284.4 
L 502.349375 7.2 
L 55.949375 7.2 
z
" style="fill: #ffffff"/>
   </g>
   <g id="matplotlib.axis_1">
    <g id="xtick_1">
     <g id="line2d_1">
      <path d="M 74.7386 284.4 
L 74.7386 7.2 
" clip-path="url(#pc0cdf47b4e)" style="fill: none; stroke: #b0b0b0; stroke-width: 0.8; stroke-linecap: square"/>
     </g>
     <g id="line2d_2">
      <defs>
       <path id="meef6c7d947" d="M 0 0 
L 0 3.5 
" style="stroke: #000000; stroke-width: 0.8"/>
      </defs>
      <g>
       <use xlink:href="#meef6c7d947" x="74.7386" y="284.4" style="stroke: #000000; stroke-width: 0.8"/>
      </g>
     </g>
     <g id="text_1">
      <!-- 0 -->
      <g transform="translate(70.28485 302.037813) scale(0.14 -0.14)">
       <defs>
        <path id="DejaVuSans-30" d="M 2034 4250 
Q 1547 4250 1301 3770 
Q 1056 3291 1056 2328 
Q 1056 1369 1301 889 
Q 1547 409 2034 409 
Q 2525 409 2770 889 
Q 3016 1369 3016 2328 
Q 3016 3291 2770 3770 
Q 2525 4250 2034 4250 
z
M 2034 4750 
Q 2819 4750 3233 4129 
Q 3647 3509 3647 2328 
Q 3647 1150 3233 529 
Q 2819 -91 2034 -91 
Q 1250 -91 836 529 
Q 422 1150 422 2328 
Q 422 3509 836 4129 
Q 1250 4750 2034 4750 
z
" transform="scale(0.015625)"/>
       </defs>
       <use xlink:href="#DejaVuSans-30"/>
      </g>
     </g>
    </g>
    <g id="xtick_2">
     <g id="line2d_3">
      <path d="M 149.88962 284.4 
L 149.88962 7.2 
" clip-path="url(#pc0cdf47b4e)" style="fill: none; stroke: #b0b0b0; stroke-width: 0.8; stroke-linecap: square"/>
     </g>
     <g id="line2d_4">
      <g>
       <use xlink:href="#meef6c7d947" x="149.88962" y="284.4" style="stroke: #000000; stroke-width: 0.8"/>
      </g>
     </g>
     <g id="text_2">
      <!-- 50 -->
      <g transform="translate(140.98212 302.037813) scale(0.14 -0.14)">
       <defs>
        <path id="DejaVuSans-35" d="M 691 4666 
L 3169 4666 
L 3169 4134 
L 1269 4134 
L 1269 2991 
Q 1406 3038 1543 3061 
Q 1681 3084 1819 3084 
Q 2600 3084 3056 2656 
Q 3513 2228 3513 1497 
Q 3513 744 3044 326 
Q 2575 -91 1722 -91 
Q 1428 -91 1123 -41 
Q 819 9 494 109 
L 494 744 
Q 775 591 1075 516 
Q 1375 441 1709 441 
Q 2250 441 2565 725 
Q 2881 1009 2881 1497 
Q 2881 1984 2565 2268 
Q 2250 2553 1709 2553 
Q 1456 2553 1204 2497 
Q 953 2441 691 2322 
L 691 4666 
z
" transform="scale(0.015625)"/>
       </defs>
       <use xlink:href="#DejaVuSans-35"/>
       <use xlink:href="#DejaVuSans-30" transform="translate(63.623047 0)"/>
      </g>
     </g>
    </g>
    <g id="xtick_3">
     <g id="line2d_5">
      <path d="M 225.04064 284.4 
L 225.04064 7.2 
" clip-path="url(#pc0cdf47b4e)" style="fill: none; stroke: #b0b0b0; stroke-width: 0.8; stroke-linecap: square"/>
     </g>
     <g id="line2d_6">
      <g>
       <use xlink:href="#meef6c7d947" x="225.04064" y="284.4" style="stroke: #000000; stroke-width: 0.8"/>
      </g>
     </g>
     <g id="text_3">
      <!-- 100 -->
      <g transform="translate(211.67939 302.037813) scale(0.14 -0.14)">
       <defs>
        <path id="DejaVuSans-31" d="M 794 531 
L 1825 531 
L 1825 4091 
L 703 3866 
L 703 4441 
L 1819 4666 
L 2450 4666 
L 2450 531 
L 3481 531 
L 3481 0 
L 794 0 
L 794 531 
z
" transform="scale(0.015625)"/>
       </defs>
       <use xlink:href="#DejaVuSans-31"/>
       <use xlink:href="#DejaVuSans-30" transform="translate(63.623047 0)"/>
       <use xlink:href="#DejaVuSans-30" transform="translate(127.246094 0)"/>
      </g>
     </g>
    </g>
    <g id="xtick_4">
     <g id="line2d_7">
      <path d="M 300.191661 284.4 
L 300.191661 7.2 
" clip-path="url(#pc0cdf47b4e)" style="fill: none; stroke: #b0b0b0; stroke-width: 0.8; stroke-linecap: square"/>
     </g>
     <g id="line2d_8">
      <g>
       <use xlink:href="#meef6c7d947" x="300.191661" y="284.4" style="stroke: #000000; stroke-width: 0.8"/>
      </g>
     </g>
     <g id="text_4">
      <!-- 150 -->
      <g transform="translate(286.830411 302.037813) scale(0.14 -0.14)">
       <use xlink:href="#DejaVuSans-31"/>
       <use xlink:href="#DejaVuSans-35" transform="translate(63.623047 0)"/>
       <use xlink:href="#DejaVuSans-30" transform="translate(127.246094 0)"/>
      </g>
     </g>
    </g>
    <g id="xtick_5">
     <g id="line2d_9">
      <path d="M 375.342681 284.4 
L 375.342681 7.2 
" clip-path="url(#pc0cdf47b4e)" style="fill: none; stroke: #b0b0b0; stroke-width: 0.8; stroke-linecap: square"/>
     </g>
     <g id="line2d_10">
      <g>
       <use xlink:href="#meef6c7d947" x="375.342681" y="284.4" style="stroke: #000000; stroke-width: 0.8"/>
      </g>
     </g>
     <g id="text_5">
      <!-- 200 -->
      <g transform="translate(361.981431 302.037813) scale(0.14 -0.14)">
       <defs>
        <path id="DejaVuSans-32" d="M 1228 531 
L 3431 531 
L 3431 0 
L 469 0 
L 469 531 
Q 828 903 1448 1529 
Q 2069 2156 2228 2338 
Q 2531 2678 2651 2914 
Q 2772 3150 2772 3378 
Q 2772 3750 2511 3984 
Q 2250 4219 1831 4219 
Q 1534 4219 1204 4116 
Q 875 4013 500 3803 
L 500 4441 
Q 881 4594 1212 4672 
Q 1544 4750 1819 4750 
Q 2544 4750 2975 4387 
Q 3406 4025 3406 3419 
Q 3406 3131 3298 2873 
Q 3191 2616 2906 2266 
Q 2828 2175 2409 1742 
Q 1991 1309 1228 531 
z
" transform="scale(0.015625)"/>
       </defs>
       <use xlink:href="#DejaVuSans-32"/>
       <use xlink:href="#DejaVuSans-30" transform="translate(63.623047 0)"/>
       <use xlink:href="#DejaVuSans-30" transform="translate(127.246094 0)"/>
      </g>
     </g>
    </g>
    <g id="xtick_6">
     <g id="line2d_11">
      <path d="M 450.493701 284.4 
L 450.493701 7.2 
" clip-path="url(#pc0cdf47b4e)" style="fill: none; stroke: #b0b0b0; stroke-width: 0.8; stroke-linecap: square"/>
     </g>
     <g id="line2d_12">
      <g>
       <use xlink:href="#meef6c7d947" x="450.493701" y="284.4" style="stroke: #000000; stroke-width: 0.8"/>
      </g>
     </g>
     <g id="text_6">
      <!-- 250 -->
      <g transform="translate(437.132451 302.037813) scale(0.14 -0.14)">
       <use xlink:href="#DejaVuSans-32"/>
       <use xlink:href="#DejaVuSans-35" transform="translate(63.623047 0)"/>
       <use xlink:href="#DejaVuSans-30" transform="translate(127.246094 0)"/>
      </g>
     </g>
    </g>
    <g id="text_7">
     <!-- Delay [µs] -->
     <g transform="translate(238.164375 321.106875) scale(0.16 -0.16)">
      <defs>
       <path id="DejaVuSans-44" d="M 1259 4147 
L 1259 519 
L 2022 519 
Q 2988 519 3436 956 
Q 3884 1394 3884 2338 
Q 3884 3275 3436 3711 
Q 2988 4147 2022 4147 
L 1259 4147 
z
M 628 4666 
L 1925 4666 
Q 3281 4666 3915 4102 
Q 4550 3538 4550 2338 
Q 4550 1131 3912 565 
Q 3275 0 1925 0 
L 628 0 
L 628 4666 
z
" transform="scale(0.015625)"/>
       <path id="DejaVuSans-65" d="M 3597 1894 
L 3597 1613 
L 953 1613 
Q 991 1019 1311 708 
Q 1631 397 2203 397 
Q 2534 397 2845 478 
Q 3156 559 3463 722 
L 3463 178 
Q 3153 47 2828 -22 
Q 2503 -91 2169 -91 
Q 1331 -91 842 396 
Q 353 884 353 1716 
Q 353 2575 817 3079 
Q 1281 3584 2069 3584 
Q 2775 3584 3186 3129 
Q 3597 2675 3597 1894 
z
M 3022 2063 
Q 3016 2534 2758 2815 
Q 2500 3097 2075 3097 
Q 1594 3097 1305 2825 
Q 1016 2553 972 2059 
L 3022 2063 
z
" transform="scale(0.015625)"/>
       <path id="DejaVuSans-6c" d="M 603 4863 
L 1178 4863 
L 1178 0 
L 603 0 
L 603 4863 
z
" transform="scale(0.015625)"/>
       <path id="DejaVuSans-61" d="M 2194 1759 
Q 1497 1759 1228 1600 
Q 959 1441 959 1056 
Q 959 750 1161 570 
Q 1363 391 1709 391 
Q 2188 391 2477 730 
Q 2766 1069 2766 1631 
L 2766 1759 
L 2194 1759 
z
M 3341 1997 
L 3341 0 
L 2766 0 
L 2766 531 
Q 2569 213 2275 61 
Q 1981 -91 1556 -91 
Q 1019 -91 701 211 
Q 384 513 384 1019 
Q 384 1609 779 1909 
Q 1175 2209 1959 2209 
L 2766 2209 
L 2766 2266 
Q 2766 2663 2505 2880 
Q 2244 3097 1772 3097 
Q 1472 3097 1187 3025 
Q 903 2953 641 2809 
L 641 3341 
Q 956 3463 1253 3523 
Q 1550 3584 1831 3584 
Q 2591 3584 2966 3190 
Q 3341 2797 3341 1997 
z
" transform="scale(0.015625)"/>
       <path id="DejaVuSans-79" d="M 2059 -325 
Q 1816 -950 1584 -1140 
Q 1353 -1331 966 -1331 
L 506 -1331 
L 506 -850 
L 844 -850 
Q 1081 -850 1212 -737 
Q 1344 -625 1503 -206 
L 1606 56 
L 191 3500 
L 800 3500 
L 1894 763 
L 2988 3500 
L 3597 3500 
L 2059 -325 
z
" transform="scale(0.015625)"/>
       <path id="DejaVuSans-20" transform="scale(0.015625)"/>
       <path id="DejaVuSans-5b" d="M 550 4863 
L 1875 4863 
L 1875 4416 
L 1125 4416 
L 1125 -397 
L 1875 -397 
L 1875 -844 
L 550 -844 
L 550 4863 
z
" transform="scale(0.015625)"/>
       <path id="DejaVuSans-b5" d="M 544 -1331 
L 544 3500 
L 1119 3500 
L 1119 1325 
Q 1119 872 1334 640 
Q 1550 409 1972 409 
Q 2434 409 2667 671 
Q 2900 934 2900 1459 
L 2900 3500 
L 3475 3500 
L 3475 806 
Q 3475 619 3529 530 
Q 3584 441 3700 441 
Q 3728 441 3778 458 
Q 3828 475 3916 513 
L 3916 50 
Q 3788 -22 3673 -56 
Q 3559 -91 3450 -91 
Q 3234 -91 3106 31 
Q 2978 153 2931 403 
Q 2775 156 2548 32 
Q 2322 -91 2016 -91 
Q 1697 -91 1473 31 
Q 1250 153 1119 397 
L 1119 -1331 
L 544 -1331 
z
" transform="scale(0.015625)"/>
       <path id="DejaVuSans-73" d="M 2834 3397 
L 2834 2853 
Q 2591 2978 2328 3040 
Q 2066 3103 1784 3103 
Q 1356 3103 1142 2972 
Q 928 2841 928 2578 
Q 928 2378 1081 2264 
Q 1234 2150 1697 2047 
L 1894 2003 
Q 2506 1872 2764 1633 
Q 3022 1394 3022 966 
Q 3022 478 2636 193 
Q 2250 -91 1575 -91 
Q 1294 -91 989 -36 
Q 684 19 347 128 
L 347 722 
Q 666 556 975 473 
Q 1284 391 1588 391 
Q 1994 391 2212 530 
Q 2431 669 2431 922 
Q 2431 1156 2273 1281 
Q 2116 1406 1581 1522 
L 1381 1569 
Q 847 1681 609 1914 
Q 372 2147 372 2553 
Q 372 3047 722 3315 
Q 1072 3584 1716 3584 
Q 2034 3584 2315 3537 
Q 2597 3491 2834 3397 
z
" transform="scale(0.015625)"/>
       <path id="DejaVuSans-5d" d="M 1947 4863 
L 1947 -844 
L 622 -844 
L 622 -397 
L 1369 -397 
L 1369 4416 
L 622 4416 
L 622 4863 
L 1947 4863 
z
" transform="scale(0.015625)"/>
      </defs>
      <use xlink:href="#DejaVuSans-44"/>
      <use xlink:href="#DejaVuSans-65" transform="translate(77.001953 0)"/>
      <use xlink:href="#DejaVuSans-6c" transform="translate(138.525391 0)"/>
      <use xlink:href="#DejaVuSans-61" transform="translate(166.308594 0)"/>
      <use xlink:href="#DejaVuSans-79" transform="translate(227.587891 0)"/>
      <use xlink:href="#DejaVuSans-20" transform="translate(286.767578 0)"/>
      <use xlink:href="#DejaVuSans-5b" transform="translate(318.554688 0)"/>
      <use xlink:href="#DejaVuSans-b5" transform="translate(357.568359 0)"/>
      <use xlink:href="#DejaVuSans-73" transform="translate(421.191406 0)"/>
      <use xlink:href="#DejaVuSans-5d" transform="translate(473.291016 0)"/>
     </g>
    </g>
   </g>
   <g id="matplotlib.axis_2">
    <g id="ytick_1">
     <g id="line2d_13">
      <path d="M 55.949375 250.608606 
L 502.349375 250.608606 
" clip-path="url(#pc0cdf47b4e)" style="fill: none; stroke: #b0b0b0; stroke-width: 0.8; stroke-linecap: square"/>
     </g>
     <g id="line2d_14">
      <defs>
       <path id="m9b0a02b1cb" d="M 0 0 
L -3.5 0 
" style="stroke: #000000; stroke-width: 0.8"/>
      </defs>
      <g>
       <use xlink:href="#m9b0a02b1cb" x="55.949375" y="250.608606" style="stroke: #000000; stroke-width: 0.8"/>
      </g>
     </g>
     <g id="text_8">
      <!-- 0.2 -->
      <g transform="translate(26.685 255.927513) scale(0.14 -0.14)">
       <defs>
        <path id="DejaVuSans-2e" d="M 684 794 
L 1344 794 
L 1344 0 
L 684 0 
L 684 794 
z
" transform="scale(0.015625)"/>
       </defs>
       <use xlink:href="#DejaVuSans-30"/>
       <use xlink:href="#DejaVuSans-2e" transform="translate(63.623047 0)"/>
       <use xlink:href="#DejaVuSans-32" transform="translate(95.410156 0)"/>
      </g>
     </g>
    </g>
    <g id="ytick_2">
     <g id="line2d_15">
      <path d="M 55.949375 192.45311 
L 502.349375 192.45311 
" clip-path="url(#pc0cdf47b4e)" style="fill: none; stroke: #b0b0b0; stroke-width: 0.8; stroke-linecap: square"/>
     </g>
     <g id="line2d_16">
      <g>
       <use xlink:href="#m9b0a02b1cb" x="55.949375" y="192.45311" style="stroke: #000000; stroke-width: 0.8"/>
      </g>
     </g>
     <g id="text_9">
      <!-- 0.4 -->
      <g transform="translate(26.685 197.772016) scale(0.14 -0.14)">
       <defs>
        <path id="DejaVuSans-34" d="M 2419 4116 
L 825 1625 
L 2419 1625 
L 2419 4116 
z
M 2253 4666 
L 3047 4666 
L 3047 1625 
L 3713 1625 
L 3713 1100 
L 3047 1100 
L 3047 0 
L 2419 0 
L 2419 1100 
L 313 1100 
L 313 1709 
L 2253 4666 
z
" transform="scale(0.015625)"/>
       </defs>
       <use xlink:href="#DejaVuSans-30"/>
       <use xlink:href="#DejaVuSans-2e" transform="translate(63.623047 0)"/>
       <use xlink:href="#DejaVuSans-34" transform="translate(95.410156 0)"/>
      </g>
     </g>
    </g>
    <g id="ytick_3">
     <g id="line2d_17">
      <path d="M 55.949375 134.297613 
L 502.349375 134.297613 
" clip-path="url(#pc0cdf47b4e)" style="fill: none; stroke: #b0b0b0; stroke-width: 0.8; stroke-linecap: square"/>
     </g>
     <g id="line2d_18">
      <g>
       <use xlink:href="#m9b0a02b1cb" x="55.949375" y="134.297613" style="stroke: #000000; stroke-width: 0.8"/>
      </g>
     </g>
     <g id="text_10">
      <!-- 0.6 -->
      <g transform="translate(26.685 139.616519) scale(0.14 -0.14)">
       <defs>
        <path id="DejaVuSans-36" d="M 2113 2584 
Q 1688 2584 1439 2293 
Q 1191 2003 1191 1497 
Q 1191 994 1439 701 
Q 1688 409 2113 409 
Q 2538 409 2786 701 
Q 3034 994 3034 1497 
Q 3034 2003 2786 2293 
Q 2538 2584 2113 2584 
z
M 3366 4563 
L 3366 3988 
Q 3128 4100 2886 4159 
Q 2644 4219 2406 4219 
Q 1781 4219 1451 3797 
Q 1122 3375 1075 2522 
Q 1259 2794 1537 2939 
Q 1816 3084 2150 3084 
Q 2853 3084 3261 2657 
Q 3669 2231 3669 1497 
Q 3669 778 3244 343 
Q 2819 -91 2113 -91 
Q 1303 -91 875 529 
Q 447 1150 447 2328 
Q 447 3434 972 4092 
Q 1497 4750 2381 4750 
Q 2619 4750 2861 4703 
Q 3103 4656 3366 4563 
z
" transform="scale(0.015625)"/>
       </defs>
       <use xlink:href="#DejaVuSans-30"/>
       <use xlink:href="#DejaVuSans-2e" transform="translate(63.623047 0)"/>
       <use xlink:href="#DejaVuSans-36" transform="translate(95.410156 0)"/>
      </g>
     </g>
    </g>
    <g id="ytick_4">
     <g id="line2d_19">
      <path d="M 55.949375 76.142116 
L 502.349375 76.142116 
" clip-path="url(#pc0cdf47b4e)" style="fill: none; stroke: #b0b0b0; stroke-width: 0.8; stroke-linecap: square"/>
     </g>
     <g id="line2d_20">
      <g>
       <use xlink:href="#m9b0a02b1cb" x="55.949375" y="76.142116" style="stroke: #000000; stroke-width: 0.8"/>
      </g>
     </g>
     <g id="text_11">
      <!-- 0.8 -->
      <g transform="translate(26.685 81.461022) scale(0.14 -0.14)">
       <defs>
        <path id="DejaVuSans-38" d="M 2034 2216 
Q 1584 2216 1326 1975 
Q 1069 1734 1069 1313 
Q 1069 891 1326 650 
Q 1584 409 2034 409 
Q 2484 409 2743 651 
Q 3003 894 3003 1313 
Q 3003 1734 2745 1975 
Q 2488 2216 2034 2216 
z
M 1403 2484 
Q 997 2584 770 2862 
Q 544 3141 544 3541 
Q 544 4100 942 4425 
Q 1341 4750 2034 4750 
Q 2731 4750 3128 4425 
Q 3525 4100 3525 3541 
Q 3525 3141 3298 2862 
Q 3072 2584 2669 2484 
Q 3125 2378 3379 2068 
Q 3634 1759 3634 1313 
Q 3634 634 3220 271 
Q 2806 -91 2034 -91 
Q 1263 -91 848 271 
Q 434 634 434 1313 
Q 434 1759 690 2068 
Q 947 2378 1403 2484 
z
M 1172 3481 
Q 1172 3119 1398 2916 
Q 1625 2713 2034 2713 
Q 2441 2713 2670 2916 
Q 2900 3119 2900 3481 
Q 2900 3844 2670 4047 
Q 2441 4250 2034 4250 
Q 1625 4250 1398 4047 
Q 1172 3844 1172 3481 
z
" transform="scale(0.015625)"/>
       </defs>
       <use xlink:href="#DejaVuSans-30"/>
       <use xlink:href="#DejaVuSans-2e" transform="translate(63.623047 0)"/>
       <use xlink:href="#DejaVuSans-38" transform="translate(95.410156 0)"/>
      </g>
     </g>
    </g>
    <g id="ytick_5">
     <g id="line2d_21">
      <path d="M 55.949375 17.98662 
L 502.349375 17.98662 
" clip-path="url(#pc0cdf47b4e)" style="fill: none; stroke: #b0b0b0; stroke-width: 0.8; stroke-linecap: square"/>
     </g>
     <g id="line2d_22">
      <g>
       <use xlink:href="#m9b0a02b1cb" x="55.949375" y="17.98662" style="stroke: #000000; stroke-width: 0.8"/>
      </g>
     </g>
     <g id="text_12">
      <!-- 1.0 -->
      <g transform="translate(26.685 23.305526) scale(0.14 -0.14)">
       <use xlink:href="#DejaVuSans-31"/>
       <use xlink:href="#DejaVuSans-2e" transform="translate(63.623047 0)"/>
       <use xlink:href="#DejaVuSans-30" transform="translate(95.410156 0)"/>
      </g>
     </g>
    </g>
    <g id="text_13">
     <!-- P(1) -->
     <g transform="translate(19.3575 161.95625) rotate(-90) scale(0.16 -0.16)">
      <defs>
       <path id="DejaVuSans-50" d="M 1259 4147 
L 1259 2394 
L 2053 2394 
Q 2494 2394 2734 2622 
Q 2975 2850 2975 3272 
Q 2975 3691 2734 3919 
Q 2494 4147 2053 4147 
L 1259 4147 
z
M 628 4666 
L 2053 4666 
Q 2838 4666 3239 4311 
Q 3641 3956 3641 3272 
Q 3641 2581 3239 2228 
Q 2838 1875 2053 1875 
L 1259 1875 
L 1259 0 
L 628 0 
L 628 4666 
z
" transform="scale(0.015625)"/>
       <path id="DejaVuSans-28" d="M 1984 4856 
Q 1566 4138 1362 3434 
Q 1159 2731 1159 2009 
Q 1159 1288 1364 580 
Q 1569 -128 1984 -844 
L 1484 -844 
Q 1016 -109 783 600 
Q 550 1309 550 2009 
Q 550 2706 781 3412 
Q 1013 4119 1484 4856 
L 1984 4856 
z
" transform="scale(0.015625)"/>
       <path id="DejaVuSans-29" d="M 513 4856 
L 1013 4856 
Q 1481 4119 1714 3412 
Q 1947 2706 1947 2009 
Q 1947 1309 1714 600 
Q 1481 -109 1013 -844 
L 513 -844 
Q 928 -128 1133 580 
Q 1338 1288 1338 2009 
Q 1338 2731 1133 3434 
Q 928 4138 513 4856 
z
" transform="scale(0.015625)"/>
      </defs>
      <use xlink:href="#DejaVuSans-50"/>
      <use xlink:href="#DejaVuSans-28" transform="translate(60.302734 0)"/>
      <use xlink:href="#DejaVuSans-31" transform="translate(99.316406 0)"/>
      <use xlink:href="#DejaVuSans-29" transform="translate(162.939453 0)"/>
     </g>
    </g>
   </g>
   <g id="LineCollection_1">
    <path d="M 76.240284 30.023414 
L 76.240284 26.658856 
" clip-path="url(#pc0cdf47b4e)" style="fill: none; stroke: #1f77b4; stroke-opacity: 0.8; stroke-width: 1.5"/>
    <path d="M 121.333568 82.819906 
L 121.333568 75.421719 
" clip-path="url(#pc0cdf47b4e)" style="fill: none; stroke: #1f77b4; stroke-opacity: 0.8; stroke-width: 1.5"/>
    <path d="M 166.421508 139.458551 
L 166.421508 130.555102 
" clip-path="url(#pc0cdf47b4e)" style="fill: none; stroke: #1f77b4; stroke-opacity: 0.8; stroke-width: 1.5"/>
    <path d="M 211.514793 174.717798 
L 211.514793 165.649822 
" clip-path="url(#pc0cdf47b4e)" style="fill: none; stroke: #1f77b4; stroke-opacity: 0.8; stroke-width: 1.5"/>
    <path d="M 256.602733 195.349768 
L 256.602733 186.435912 
" clip-path="url(#pc0cdf47b4e)" style="fill: none; stroke: #1f77b4; stroke-opacity: 0.8; stroke-width: 1.5"/>
    <path d="M 301.696017 214.761404 
L 301.696017 206.172855 
" clip-path="url(#pc0cdf47b4e)" style="fill: none; stroke: #1f77b4; stroke-opacity: 0.8; stroke-width: 1.5"/>
    <path d="M 346.783957 232.12068 
L 346.783957 223.990562 
" clip-path="url(#pc0cdf47b4e)" style="fill: none; stroke: #1f77b4; stroke-opacity: 0.8; stroke-width: 1.5"/>
    <path d="M 391.877242 248.553558 
L 391.877242 241.032556 
" clip-path="url(#pc0cdf47b4e)" style="fill: none; stroke: #1f77b4; stroke-opacity: 0.8; stroke-width: 1.5"/>
    <path d="M 436.965182 257.976706 
L 436.965182 250.900012 
" clip-path="url(#pc0cdf47b4e)" style="fill: none; stroke: #1f77b4; stroke-opacity: 0.8; stroke-width: 1.5"/>
    <path d="M 482.058466 271.205181 
L 482.058466 264.90533 
" clip-path="url(#pc0cdf47b4e)" style="fill: none; stroke: #1f77b4; stroke-opacity: 0.8; stroke-width: 1.5"/>
   </g>
   <g id="line2d_23">
    <defs>
     <path id="mf10bbf9780" d="M 4 0 
L -4 -0 
" style="stroke: #1f77b4; stroke-opacity: 0.8"/>
    </defs>
    <g clip-path="url(#pc0cdf47b4e)">
     <use xlink:href="#mf10bbf9780" x="76.240284" y="30.023414" style="fill: #1f77b4; fill-opacity: 0.8; stroke: #1f77b4; stroke-opacity: 0.8"/>
     <use xlink:href="#mf10bbf9780" x="121.333568" y="82.819906" style="fill: #1f77b4; fill-opacity: 0.8; stroke: #1f77b4; stroke-opacity: 0.8"/>
     <use xlink:href="#mf10bbf9780" x="166.421508" y="139.458551" style="fill: #1f77b4; fill-opacity: 0.8; stroke: #1f77b4; stroke-opacity: 0.8"/>
     <use xlink:href="#mf10bbf9780" x="211.514793" y="174.717798" style="fill: #1f77b4; fill-opacity: 0.8; stroke: #1f77b4; stroke-opacity: 0.8"/>
     <use xlink:href="#mf10bbf9780" x="256.602733" y="195.349768" style="fill: #1f77b4; fill-opacity: 0.8; stroke: #1f77b4; stroke-opacity: 0.8"/>
     <use xlink:href="#mf10bbf9780" x="301.696017" y="214.761404" style="fill: #1f77b4; fill-opacity: 0.8; stroke: #1f77b4; stroke-opacity: 0.8"/>
     <use xlink:href="#mf10bbf9780" x="346.783957" y="232.12068" style="fill: #1f77b4; fill-opacity: 0.8; stroke: #1f77b4; stroke-opacity: 0.8"/>
     <use xlink:href="#mf10bbf9780" x="391.877242" y="248.553558" style="fill: #1f77b4; fill-opacity: 0.8; stroke: #1f77b4; stroke-opacity: 0.8"/>
     <use xlink:href="#mf10bbf9780" x="436.965182" y="257.976706" style="fill: #1f77b4; fill-opacity: 0.8; stroke: #1f77b4; stroke-opacity: 0.8"/>
     <use xlink:href="#mf10bbf9780" x="482.058466" y="271.205181" style="fill: #1f77b4; fill-opacity: 0.8; stroke: #1f77b4; stroke-opacity: 0.8"/>
    </g>
   </g>
   <g id="line2d_24">
    <g clip-path="url(#pc0cdf47b4e)">
     <use xlink:href="#mf10bbf9780" x="76.240284" y="26.658856" style="fill: #1f77b4; fill-opacity: 0.8; stroke: #1f77b4; stroke-opacity: 0.8"/>
     <use xlink:href="#mf10bbf9780" x="121.333568" y="75.421719" style="fill: #1f77b4; fill-opacity: 0.8; stroke: #1f77b4; stroke-opacity: 0.8"/>
     <use xlink:href="#mf10bbf9780" x="166.421508" y="130.555102" style="fill: #1f77b4; fill-opacity: 0.8; stroke: #1f77b4; stroke-opacity: 0.8"/>
     <use xlink:href="#mf10bbf9780" x="211.514793" y="165.649822" style="fill: #1f77b4; fill-opacity: 0.8; stroke: #1f77b4; stroke-opacity: 0.8"/>
     <use xlink:href="#mf10bbf9780" x="256.602733" y="186.435912" style="fill: #1f77b4; fill-opacity: 0.8; stroke: #1f77b4; stroke-opacity: 0.8"/>
     <use xlink:href="#mf10bbf9780" x="301.696017" y="206.172855" style="fill: #1f77b4; fill-opacity: 0.8; stroke: #1f77b4; stroke-opacity: 0.8"/>
     <use xlink:href="#mf10bbf9780" x="346.783957" y="223.990562" style="fill: #1f77b4; fill-opacity: 0.8; stroke: #1f77b4; stroke-opacity: 0.8"/>
     <use xlink:href="#mf10bbf9780" x="391.877242" y="241.032556" style="fill: #1f77b4; fill-opacity: 0.8; stroke: #1f77b4; stroke-opacity: 0.8"/>
     <use xlink:href="#mf10bbf9780" x="436.965182" y="250.900012" style="fill: #1f77b4; fill-opacity: 0.8; stroke: #1f77b4; stroke-opacity: 0.8"/>
     <use xlink:href="#mf10bbf9780" x="482.058466" y="264.90533" style="fill: #1f77b4; fill-opacity: 0.8; stroke: #1f77b4; stroke-opacity: 0.8"/>
    </g>
   </g>
   <g id="line2d_25">
    <defs>
     <path id="ma323f38559" d="M 0 1.5 
C 0.397805 1.5 0.77937 1.341951 1.06066 1.06066 
C 1.341951 0.77937 1.5 0.397805 1.5 0 
C 1.5 -0.397805 1.341951 -0.77937 1.06066 -1.06066 
C 0.77937 -1.341951 0.397805 -1.5 0 -1.5 
C -0.397805 -1.5 -0.77937 -1.341951 -1.06066 -1.06066 
C -1.341951 -0.77937 -1.5 -0.397805 -1.5 0 
C -1.5 0.397805 -1.341951 0.77937 -1.06066 1.06066 
C -0.77937 1.341951 -0.397805 1.5 0 1.5 
z
" style="stroke: #1f77b4; stroke-opacity: 0.8"/>
    </defs>
    <g clip-path="url(#pc0cdf47b4e)">
     <use xlink:href="#ma323f38559" x="76.240284" y="28.341135" style="fill: #1f77b4; fill-opacity: 0.8; stroke: #1f77b4; stroke-opacity: 0.8"/>
     <use xlink:href="#ma323f38559" x="121.333568" y="79.120812" style="fill: #1f77b4; fill-opacity: 0.8; stroke: #1f77b4; stroke-opacity: 0.8"/>
     <use xlink:href="#ma323f38559" x="166.421508" y="135.006826" style="fill: #1f77b4; fill-opacity: 0.8; stroke: #1f77b4; stroke-opacity: 0.8"/>
     <use xlink:href="#ma323f38559" x="211.514793" y="170.18381" style="fill: #1f77b4; fill-opacity: 0.8; stroke: #1f77b4; stroke-opacity: 0.8"/>
     <use xlink:href="#ma323f38559" x="256.602733" y="190.89284" style="fill: #1f77b4; fill-opacity: 0.8; stroke: #1f77b4; stroke-opacity: 0.8"/>
     <use xlink:href="#ma323f38559" x="301.696017" y="210.467129" style="fill: #1f77b4; fill-opacity: 0.8; stroke: #1f77b4; stroke-opacity: 0.8"/>
     <use xlink:href="#ma323f38559" x="346.783957" y="228.055621" style="fill: #1f77b4; fill-opacity: 0.8; stroke: #1f77b4; stroke-opacity: 0.8"/>
     <use xlink:href="#ma323f38559" x="391.877242" y="244.793057" style="fill: #1f77b4; fill-opacity: 0.8; stroke: #1f77b4; stroke-opacity: 0.8"/>
     <use xlink:href="#ma323f38559" x="436.965182" y="254.438359" style="fill: #1f77b4; fill-opacity: 0.8; stroke: #1f77b4; stroke-opacity: 0.8"/>
     <use xlink:href="#ma323f38559" x="482.058466" y="268.055255" style="fill: #1f77b4; fill-opacity: 0.8; stroke: #1f77b4; stroke-opacity: 0.8"/>
    </g>
   </g>
   <g id="patch_3">
    <path d="M 55.949375 284.4 
L 55.949375 7.2 
" style="fill: none; stroke: #000000; stroke-width: 0.8; stroke-linejoin: miter; stroke-linecap: square"/>
   </g>
   <g id="patch_4">
    <path d="M 502.349375 284.4 
L 502.349375 7.2 
" style="fill: none; stroke: #000000; stroke-width: 0.8; stroke-linejoin: miter; stroke-linecap: square"/>
   </g>
   <g id="patch_5">
    <path d="M 55.949375 284.4 
L 502.349375 284.4 
" style="fill: none; stroke: #000000; stroke-width: 0.8; stroke-linejoin: miter; stroke-linecap: square"/>
   </g>
   <g id="patch_6">
    <path d="M 55.949375 7.2 
L 502.349375 7.2 
" style="fill: none; stroke: #000000; stroke-width: 0.8; stroke-linejoin: miter; stroke-linecap: square"/>
   </g>
   <g id="line2d_26">
    <path d="M 76.240284 27.854677 
L 80.339458 33.529378 
L 84.438631 39.084873 
L 88.537805 44.523666 
L 92.636978 49.848208 
L 96.736152 55.0609 
L 100.835325 60.164091 
L 104.934499 65.160082 
L 109.033673 70.051124 
L 113.132846 74.839422 
L 117.23202 79.527134 
L 121.331193 84.116373 
L 125.430367 88.609209 
L 129.52954 93.007665 
L 133.628714 97.313725 
L 137.727887 101.529329 
L 141.827061 105.656378 
L 145.926235 109.696731 
L 150.025408 113.652211 
L 154.124582 117.5246 
L 158.223755 121.315643 
L 162.322929 125.027049 
L 166.422102 128.660491 
L 170.521276 132.217607 
L 174.620449 135.7 
L 178.719623 139.109241 
L 182.818796 142.446864 
L 186.91797 145.714376 
L 191.017144 148.913248 
L 195.116317 152.044924 
L 199.215491 155.110813 
L 203.314664 158.112298 
L 207.413838 161.050733 
L 211.513011 163.927441 
L 215.612185 166.74372 
L 219.711358 169.500838 
L 223.810532 172.200038 
L 227.909706 174.842538 
L 232.008879 177.429527 
L 236.108053 179.962173 
L 240.207226 182.441617 
L 244.3064 184.868976 
L 248.405573 187.245344 
L 252.504747 189.571793 
L 256.60392 191.849372 
L 260.703094 194.079106 
L 264.802268 196.262001 
L 268.901441 198.399042 
L 273.000615 200.49119 
L 277.099788 202.539389 
L 281.198962 204.544563 
L 285.298135 206.507615 
L 289.397309 208.42943 
L 293.496482 210.310874 
L 297.595656 212.152795 
L 301.69483 213.956024 
L 305.794003 215.721374 
L 309.893177 217.449639 
L 313.99235 219.1416 
L 318.091524 220.798018 
L 322.190697 222.419641 
L 326.289871 224.007198 
L 330.389044 225.561407 
L 334.488218 227.082967 
L 338.587392 228.572564 
L 342.686565 230.03087 
L 346.785739 231.458542 
L 350.884912 232.856224 
L 354.984086 234.224545 
L 359.083259 235.564122 
L 363.182433 236.875559 
L 367.281606 238.159448 
L 371.38078 239.416366 
L 375.479954 240.646881 
L 379.579127 241.851547 
L 383.678301 243.030907 
L 387.777474 244.185493 
L 391.876648 245.315825 
L 395.975821 246.422412 
L 400.074995 247.505754 
L 404.174168 248.566339 
L 408.273342 249.604644 
L 412.372515 250.621138 
L 416.471689 251.616279 
L 420.570863 252.590516 
L 424.670036 253.544287 
L 428.76921 254.478022 
L 432.868383 255.392144 
L 436.967557 256.287062 
L 441.06673 257.163182 
L 445.165904 258.020897 
L 449.265077 258.860594 
L 453.364251 259.682652 
L 457.463425 260.487442 
L 461.562598 261.275326 
L 465.661772 262.046659 
L 469.760945 262.801789 
L 473.860119 263.541056 
L 477.959292 264.264794 
L 482.058466 264.973329 
" clip-path="url(#pc0cdf47b4e)" style="fill: none; stroke: #1f77b4; stroke-width: 2; stroke-linecap: square"/>
   </g>
   <g id="FillBetweenPolyCollection_1">
    <defs>
     <path id="mc0c91d1261" d="M 76.240284 -362.967965 
L 76.240284 -357.59818 
L 80.339458 -352.087886 
L 84.438631 -346.677909 
L 88.537805 -341.365803 
L 92.636978 -336.149336 
L 96.736152 -331.02655 
L 100.835325 -325.9958 
L 104.934499 -321.05578 
L 109.033673 -316.205511 
L 113.132846 -311.444296 
L 117.23202 -306.771649 
L 121.331193 -302.187212 
L 125.430367 -297.690668 
L 129.52954 -293.281668 
L 133.628714 -288.959778 
L 137.727887 -284.724448 
L 141.827061 -280.574993 
L 145.926235 -276.510594 
L 150.025408 -272.53031 
L 154.124582 -268.633084 
L 158.223755 -264.817767 
L 162.322929 -261.083131 
L 166.422102 -257.427884 
L 170.521276 -253.850686 
L 174.620449 -250.350162 
L 178.719623 -246.92491 
L 182.818796 -243.573513 
L 186.91797 -240.294546 
L 191.017144 -237.086579 
L 195.116317 -233.948187 
L 199.215491 -230.877952 
L 203.314664 -227.874464 
L 207.413838 -224.936328 
L 211.513011 -222.062162 
L 215.612185 -219.250602 
L 219.711358 -216.500301 
L 223.810532 -213.809932 
L 227.909706 -211.178184 
L 232.008879 -208.60377 
L 236.108053 -206.085421 
L 240.207226 -203.621888 
L 244.3064 -201.211942 
L 248.405573 -198.854376 
L 252.504747 -196.548 
L 256.60392 -194.291647 
L 260.703094 -192.084166 
L 264.802268 -189.924426 
L 268.901441 -187.811315 
L 273.000615 -185.74374 
L 277.099788 -183.720622 
L 281.198962 -181.740903 
L 285.298135 -179.80354 
L 289.397309 -177.907505 
L 293.496482 -176.051789 
L 297.595656 -174.235395 
L 301.69483 -172.457344 
L 305.794003 -170.716673 
L 309.893177 -169.012431 
L 313.99235 -167.343685 
L 318.091524 -165.709518 
L 322.190697 -164.109027 
L 326.289871 -162.541329 
L 330.389044 -161.005556 
L 334.488218 -159.500861 
L 338.587392 -158.026416 
L 342.686565 -156.581416 
L 346.785739 -155.165078 
L 350.884912 -153.776643 
L 354.984086 -152.415381 
L 359.083259 -151.080586 
L 363.182433 -149.771583 
L 367.281606 -148.487726 
L 371.38078 -147.228398 
L 375.479954 -145.993015 
L 379.579127 -144.781021 
L 383.678301 -143.591889 
L 387.777474 -142.42512 
L 391.876648 -141.280242 
L 395.975821 -140.156809 
L 400.074995 -139.054395 
L 404.174168 -137.972598 
L 408.273342 -136.911031 
L 412.372515 -135.869326 
L 416.471689 -134.847127 
L 420.570863 -133.844093 
L 424.670036 -132.859891 
L 428.76921 -131.8942 
L 432.868383 -130.946705 
L 436.967557 -130.017098 
L 441.06673 -129.105078 
L 445.165904 -128.210348 
L 449.265077 -127.332616 
L 453.364251 -126.471594 
L 457.463425 -125.626998 
L 461.562598 -124.798547 
L 465.661772 -123.985964 
L 469.760945 -123.188973 
L 473.860119 -122.407305 
L 477.959292 -121.64069 
L 482.058466 -120.888864 
L 482.058466 -125.439978 
L 482.058466 -125.439978 
L 477.959292 -126.105222 
L 473.860119 -126.786083 
L 469.760945 -127.482949 
L 465.661772 -128.196218 
L 461.562598 -128.926301 
L 457.463425 -129.673618 
L 453.364251 -130.438601 
L 449.265077 -131.221696 
L 445.165904 -132.023359 
L 441.06673 -132.844059 
L 436.967557 -133.684278 
L 432.868383 -134.544508 
L 428.76921 -135.425255 
L 424.670036 -136.327035 
L 420.570863 -137.250376 
L 416.471689 -138.195815 
L 412.372515 -139.163898 
L 408.273342 -140.155181 
L 404.174168 -141.170225 
L 400.074995 -142.209596 
L 395.975821 -143.273867 
L 391.876648 -144.363608 
L 387.777474 -145.479395 
L 383.678301 -146.621797 
L 379.579127 -147.791385 
L 375.479954 -148.988722 
L 371.38078 -150.214369 
L 367.281606 -151.468879 
L 363.182433 -152.752799 
L 359.083259 -154.06667 
L 354.984086 -155.41103 
L 350.884912 -156.786409 
L 346.785739 -158.193338 
L 342.686565 -159.632343 
L 338.587392 -161.103955 
L 334.488218 -162.608705 
L 330.389044 -164.14713 
L 326.289871 -165.719775 
L 322.190697 -167.327192 
L 318.091524 -168.969946 
L 313.99235 -170.648615 
L 309.893177 -172.363791 
L 305.794003 -174.116079 
L 301.69483 -175.906107 
L 297.595656 -177.734514 
L 293.496482 -179.601964 
L 289.397309 -181.509135 
L 285.298135 -183.45673 
L 281.198962 -185.445471 
L 277.099788 -187.476099 
L 273.000615 -189.54938 
L 268.901441 -191.666101 
L 264.802268 -193.827071 
L 260.703094 -196.033122 
L 256.60392 -198.285109 
L 252.504747 -200.583913 
L 248.405573 -202.930436 
L 244.3064 -205.325606 
L 240.207226 -207.770379 
L 236.108053 -210.265733 
L 232.008879 -212.812675 
L 227.909706 -215.412241 
L 223.810532 -218.065492 
L 219.711358 -220.773523 
L 215.612185 -223.537459 
L 211.513011 -226.358456 
L 207.413838 -229.237706 
L 203.314664 -232.176439 
L 199.215491 -235.175922 
L 195.116317 -238.237466 
L 191.017144 -241.362424 
L 186.91797 -244.552202 
L 182.818796 -247.808258 
L 178.719623 -251.132108 
L 174.620449 -254.525337 
L 170.521276 -257.989599 
L 166.422102 -261.526634 
L 162.322929 -265.138271 
L 158.223755 -268.826447 
L 154.124582 -272.593217 
L 150.025408 -276.440768 
L 145.926235 -280.371443 
L 141.827061 -284.387752 
L 137.727887 -288.492394 
L 133.628714 -292.688272 
L 129.52954 -296.978502 
L 125.430367 -301.366415 
L 121.331193 -305.855541 
L 117.23202 -310.449583 
L 113.132846 -315.152361 
L 109.033673 -319.967741 
L 104.934499 -324.899556 
L 100.835325 -329.951518 
L 96.736152 -335.12715 
L 92.636978 -340.429748 
L 88.537805 -345.862366 
L 84.438631 -351.427845 
L 80.339458 -357.128857 
L 76.240284 -362.967965 
z
" style="stroke: #1f77b4; stroke-opacity: 0.7"/>
    </defs>
    <g clip-path="url(#pc0cdf47b4e)">
     <use xlink:href="#mc0c91d1261" x="0" y="388.13775" style="fill: #1f77b4; fill-opacity: 0.7; stroke: #1f77b4; stroke-opacity: 0.7"/>
    </g>
   </g>
   <g id="FillBetweenPolyCollection_2">
    <defs>
     <path id="m6619941623" d="M 76.240284 -368.33775 
L 76.240284 -352.228395 
L 80.339458 -347.046915 
L 84.438631 -341.927974 
L 88.537805 -336.86924 
L 92.636978 -331.868925 
L 96.736152 -326.925949 
L 100.835325 -322.040082 
L 104.934499 -317.212004 
L 109.033673 -312.443281 
L 113.132846 -307.736231 
L 117.23202 -303.093715 
L 121.331193 -298.518884 
L 125.430367 -294.014921 
L 129.52954 -289.584833 
L 133.628714 -285.231284 
L 137.727887 -280.956502 
L 141.827061 -276.762233 
L 145.926235 -272.649746 
L 150.025408 -268.619851 
L 154.124582 -264.672951 
L 158.223755 -260.809087 
L 162.322929 -257.027991 
L 166.422102 -253.329135 
L 170.521276 -249.711774 
L 174.620449 -246.174987 
L 178.719623 -242.717712 
L 182.818796 -239.338769 
L 186.91797 -236.036889 
L 191.017144 -232.810734 
L 195.116317 -229.658909 
L 199.215491 -226.579982 
L 203.314664 -223.572489 
L 207.413838 -220.634949 
L 211.513011 -217.765868 
L 215.612185 -214.963746 
L 219.711358 -212.227079 
L 223.810532 -209.554371 
L 227.909706 -206.944128 
L 232.008879 -204.394865 
L 236.108053 -201.905109 
L 240.207226 -199.473397 
L 244.3064 -197.098278 
L 248.405573 -194.778316 
L 252.504747 -192.512088 
L 256.60392 -190.298185 
L 260.703094 -188.13521 
L 264.802268 -186.021781 
L 268.901441 -183.95653 
L 273.000615 -181.938099 
L 277.099788 -179.965146 
L 281.198962 -178.036336 
L 285.298135 -176.150349 
L 289.397309 -174.305875 
L 293.496482 -172.501613 
L 297.595656 -170.736275 
L 301.69483 -169.008582 
L 305.794003 -167.317266 
L 309.893177 -165.661071 
L 313.99235 -164.038755 
L 318.091524 -162.449089 
L 322.190697 -160.890862 
L 326.289871 -159.362882 
L 330.389044 -157.863981 
L 334.488218 -156.393016 
L 338.587392 -154.948877 
L 342.686565 -153.530488 
L 346.785739 -152.136818 
L 350.884912 -150.766878 
L 354.984086 -149.419732 
L 359.083259 -148.094502 
L 363.182433 -146.790367 
L 367.281606 -145.506573 
L 371.38078 -144.242428 
L 375.479954 -142.997309 
L 379.579127 -141.770657 
L 383.678301 -140.56198 
L 387.777474 -139.370844 
L 391.876648 -138.196876 
L 395.975821 -137.039751 
L 400.074995 -135.899195 
L 404.174168 -134.774971 
L 408.273342 -133.666881 
L 412.372515 -132.574753 
L 416.471689 -131.498439 
L 420.570863 -130.437809 
L 424.670036 -129.392747 
L 428.76921 -128.363145 
L 432.868383 -127.348902 
L 436.967557 -126.349919 
L 441.06673 -125.366097 
L 445.165904 -124.397338 
L 449.265077 -123.443537 
L 453.364251 -122.504588 
L 457.463425 -121.580379 
L 461.562598 -120.670793 
L 465.661772 -119.775709 
L 469.760945 -118.894998 
L 473.860119 -118.028527 
L 477.959292 -117.176159 
L 482.058466 -116.33775 
L 482.058466 -129.991093 
L 482.058466 -129.991093 
L 477.959292 -130.569753 
L 473.860119 -131.16486 
L 469.760945 -131.776924 
L 465.661772 -132.406473 
L 461.562598 -133.054055 
L 457.463425 -133.720237 
L 453.364251 -134.405607 
L 449.265077 -135.110775 
L 445.165904 -135.836369 
L 441.06673 -136.58304 
L 436.967557 -137.351457 
L 432.868383 -138.142311 
L 428.76921 -138.95631 
L 424.670036 -139.79418 
L 420.570863 -140.65666 
L 416.471689 -141.544503 
L 412.372515 -142.458471 
L 408.273342 -143.399331 
L 404.174168 -144.367851 
L 400.074995 -145.364797 
L 395.975821 -146.390924 
L 391.876648 -147.446975 
L 387.777474 -148.53367 
L 383.678301 -149.651706 
L 379.579127 -150.801749 
L 375.479954 -151.984429 
L 371.38078 -153.20034 
L 367.281606 -154.450032 
L 363.182433 -155.734014 
L 359.083259 -157.052754 
L 354.984086 -158.406678 
L 350.884912 -159.796175 
L 346.785739 -161.221598 
L 342.686565 -162.683271 
L 338.587392 -164.181495 
L 334.488218 -165.71655 
L 330.389044 -167.288705 
L 326.289871 -168.898221 
L 322.190697 -170.545357 
L 318.091524 -172.230375 
L 313.99235 -173.953545 
L 309.893177 -175.71515 
L 305.794003 -177.515486 
L 301.69483 -179.354869 
L 297.595656 -181.233634 
L 293.496482 -183.152139 
L 289.397309 -185.110765 
L 285.298135 -187.109921 
L 281.198962 -189.150038 
L 277.099788 -191.231576 
L 273.000615 -193.355021 
L 268.901441 -195.520887 
L 264.802268 -197.729716 
L 260.703094 -199.982078 
L 256.60392 -202.278572 
L 252.504747 -204.619825 
L 248.405573 -207.006495 
L 244.3064 -209.439271 
L 240.207226 -211.91887 
L 236.108053 -214.446045 
L 232.008879 -217.02158 
L 227.909706 -219.646297 
L 223.810532 -222.321053 
L 219.711358 -225.046745 
L 215.612185 -227.824315 
L 211.513011 -230.654749 
L 207.413838 -233.539085 
L 203.314664 -236.478414 
L 199.215491 -239.473893 
L 195.116317 -242.526744 
L 191.017144 -245.638269 
L 186.91797 -248.809859 
L 182.818796 -252.043002 
L 178.719623 -255.339307 
L 174.620449 -258.700512 
L 170.521276 -262.128512 
L 166.422102 -265.625383 
L 162.322929 -269.193411 
L 158.223755 -272.835127 
L 154.124582 -276.553349 
L 150.025408 -280.351227 
L 145.926235 -284.232292 
L 141.827061 -288.200511 
L 137.727887 -292.260341 
L 133.628714 -296.416767 
L 129.52954 -300.675337 
L 125.430367 -305.042161 
L 121.331193 -309.52387 
L 117.23202 -314.127517 
L 113.132846 -318.860426 
L 109.033673 -323.729972 
L 104.934499 -328.743333 
L 100.835325 -333.907236 
L 96.736152 -339.227751 
L 92.636978 -344.710159 
L 88.537805 -350.358929 
L 84.438631 -356.177781 
L 80.339458 -362.169829 
L 76.240284 -368.33775 
z
" style="stroke: #1f77b4; stroke-opacity: 0.3"/>
    </defs>
    <g clip-path="url(#pc0cdf47b4e)">
     <use xlink:href="#m6619941623" x="0" y="388.13775" style="fill: #1f77b4; fill-opacity: 0.3; stroke: #1f77b4; stroke-opacity: 0.3"/>
    </g>
   </g>
   <g id="text_14">
    <g id="patch_7">
     <path d="M 211.001562 384.53775 
L 347.297187 384.53775 
L 347.297187 350.124375 
L 211.001562 350.124375 
z
" style="fill: #ffffff; opacity: 0.8; stroke: #000000; stroke-linejoin: miter"/>
    </g>
    <!-- T1 =   128 ±  7.59 µs -->
    <g transform="translate(214.601562 362.818125) scale(0.12 -0.12)">
     <defs>
      <path id="DejaVuSans-54" d="M -19 4666 
L 3928 4666 
L 3928 4134 
L 2272 4134 
L 2272 0 
L 1638 0 
L 1638 4134 
L -19 4134 
L -19 4666 
z
" transform="scale(0.015625)"/>
      <path id="DejaVuSans-3d" d="M 678 2906 
L 4684 2906 
L 4684 2381 
L 678 2381 
L 678 2906 
z
M 678 1631 
L 4684 1631 
L 4684 1100 
L 678 1100 
L 678 1631 
z
" transform="scale(0.015625)"/>
      <path id="DejaVuSans-b1" d="M 2944 4013 
L 2944 2803 
L 4684 2803 
L 4684 2272 
L 2944 2272 
L 2944 1063 
L 2419 1063 
L 2419 2272 
L 678 2272 
L 678 2803 
L 2419 2803 
L 2419 4013 
L 2944 4013 
z
M 678 531 
L 4684 531 
L 4684 0 
L 678 0 
L 678 531 
z
" transform="scale(0.015625)"/>
      <path id="DejaVuSans-37" d="M 525 4666 
L 3525 4666 
L 3525 4397 
L 1831 0 
L 1172 0 
L 2766 4134 
L 525 4134 
L 525 4666 
z
" transform="scale(0.015625)"/>
      <path id="DejaVuSans-39" d="M 703 97 
L 703 672 
Q 941 559 1184 500 
Q 1428 441 1663 441 
Q 2288 441 2617 861 
Q 2947 1281 2994 2138 
Q 2813 1869 2534 1725 
Q 2256 1581 1919 1581 
Q 1219 1581 811 2004 
Q 403 2428 403 3163 
Q 403 3881 828 4315 
Q 1253 4750 1959 4750 
Q 2769 4750 3195 4129 
Q 3622 3509 3622 2328 
Q 3622 1225 3098 567 
Q 2575 -91 1691 -91 
Q 1453 -91 1209 -44 
Q 966 3 703 97 
z
M 1959 2075 
Q 2384 2075 2632 2365 
Q 2881 2656 2881 3163 
Q 2881 3666 2632 3958 
Q 2384 4250 1959 4250 
Q 1534 4250 1286 3958 
Q 1038 3666 1038 3163 
Q 1038 2656 1286 2365 
Q 1534 2075 1959 2075 
z
" transform="scale(0.015625)"/>
     </defs>
     <use xlink:href="#DejaVuSans-54"/>
     <use xlink:href="#DejaVuSans-31" transform="translate(61.083984 0)"/>
     <use xlink:href="#DejaVuSans-20" transform="translate(124.707031 0)"/>
     <use xlink:href="#DejaVuSans-3d" transform="translate(156.494141 0)"/>
     <use xlink:href="#DejaVuSans-20" transform="translate(240.283203 0)"/>
     <use xlink:href="#DejaVuSans-20" transform="translate(272.070312 0)"/>
     <use xlink:href="#DejaVuSans-20" transform="translate(303.857422 0)"/>
     <use xlink:href="#DejaVuSans-31" transform="translate(335.644531 0)"/>
     <use xlink:href="#DejaVuSans-32" transform="translate(399.267578 0)"/>
     <use xlink:href="#DejaVuSans-38" transform="translate(462.890625 0)"/>
     <use xlink:href="#DejaVuSans-20" transform="translate(526.513672 0)"/>
     <use xlink:href="#DejaVuSans-b1" transform="translate(558.300781 0)"/>
     <use xlink:href="#DejaVuSans-20" transform="translate(642.089844 0)"/>
     <use xlink:href="#DejaVuSans-20" transform="translate(673.876953 0)"/>
     <use xlink:href="#DejaVuSans-37" transform="translate(705.664062 0)"/>
     <use xlink:href="#DejaVuSans-2e" transform="translate(769.287109 0)"/>
     <use xlink:href="#DejaVuSans-35" transform="translate(801.074219 0)"/>
     <use xlink:href="#DejaVuSans-39" transform="translate(864.697266 0)"/>
     <use xlink:href="#DejaVuSans-20" transform="translate(928.320312 0)"/>
     <use xlink:href="#DejaVuSans-b5" transform="translate(960.107422 0)"/>
     <use xlink:href="#DejaVuSans-73" transform="translate(1023.730469 0)"/>
    </g>
    <!-- reduced-$\chi^2$ =  1.207 -->
    <g transform="translate(218.129375 378.41775) scale(0.12 -0.12)">
     <defs>
      <path id="DejaVuSans-72" d="M 2631 2963 
Q 2534 3019 2420 3045 
Q 2306 3072 2169 3072 
Q 1681 3072 1420 2755 
Q 1159 2438 1159 1844 
L 1159 0 
L 581 0 
L 581 3500 
L 1159 3500 
L 1159 2956 
Q 1341 3275 1631 3429 
Q 1922 3584 2338 3584 
Q 2397 3584 2469 3576 
Q 2541 3569 2628 3553 
L 2631 2963 
z
" transform="scale(0.015625)"/>
      <path id="DejaVuSans-64" d="M 2906 2969 
L 2906 4863 
L 3481 4863 
L 3481 0 
L 2906 0 
L 2906 525 
Q 2725 213 2448 61 
Q 2172 -91 1784 -91 
Q 1150 -91 751 415 
Q 353 922 353 1747 
Q 353 2572 751 3078 
Q 1150 3584 1784 3584 
Q 2172 3584 2448 3432 
Q 2725 3281 2906 2969 
z
M 947 1747 
Q 947 1113 1208 752 
Q 1469 391 1925 391 
Q 2381 391 2643 752 
Q 2906 1113 2906 1747 
Q 2906 2381 2643 2742 
Q 2381 3103 1925 3103 
Q 1469 3103 1208 2742 
Q 947 2381 947 1747 
z
" transform="scale(0.015625)"/>
      <path id="DejaVuSans-75" d="M 544 1381 
L 544 3500 
L 1119 3500 
L 1119 1403 
Q 1119 906 1312 657 
Q 1506 409 1894 409 
Q 2359 409 2629 706 
Q 2900 1003 2900 1516 
L 2900 3500 
L 3475 3500 
L 3475 0 
L 2900 0 
L 2900 538 
Q 2691 219 2414 64 
Q 2138 -91 1772 -91 
Q 1169 -91 856 284 
Q 544 659 544 1381 
z
M 1991 3584 
L 1991 3584 
z
" transform="scale(0.015625)"/>
      <path id="DejaVuSans-63" d="M 3122 3366 
L 3122 2828 
Q 2878 2963 2633 3030 
Q 2388 3097 2138 3097 
Q 1578 3097 1268 2742 
Q 959 2388 959 1747 
Q 959 1106 1268 751 
Q 1578 397 2138 397 
Q 2388 397 2633 464 
Q 2878 531 3122 666 
L 3122 134 
Q 2881 22 2623 -34 
Q 2366 -91 2075 -91 
Q 1284 -91 818 406 
Q 353 903 353 1747 
Q 353 2603 823 3093 
Q 1294 3584 2113 3584 
Q 2378 3584 2631 3529 
Q 2884 3475 3122 3366 
z
" transform="scale(0.015625)"/>
      <path id="DejaVuSans-2d" d="M 313 2009 
L 1997 2009 
L 1997 1497 
L 313 1497 
L 313 2009 
z
" transform="scale(0.015625)"/>
      <path id="DejaVuSans-Oblique-3c7" d="M 1922 -781 
L 1691 416 
L 394 -1334 
L -284 -1334 
L 1553 1141 
L 1269 2613 
Q 1194 3006 713 3006 
L 559 3006 
L 653 3500 
L 872 3494 
Q 1675 3472 1775 2950 
L 2006 1753 
L 3303 3503 
L 3981 3503 
L 2144 1028 
L 2428 -444 
Q 2503 -838 2984 -838 
L 3138 -838 
L 3044 -1331 
L 2825 -1325 
Q 2022 -1303 1922 -781 
z
" transform="scale(0.015625)"/>
     </defs>
     <use xlink:href="#DejaVuSans-72" transform="translate(0 0.765625)"/>
     <use xlink:href="#DejaVuSans-65" transform="translate(41.113281 0.765625)"/>
     <use xlink:href="#DejaVuSans-64" transform="translate(102.636719 0.765625)"/>
     <use xlink:href="#DejaVuSans-75" transform="translate(166.113281 0.765625)"/>
     <use xlink:href="#DejaVuSans-63" transform="translate(229.492188 0.765625)"/>
     <use xlink:href="#DejaVuSans-65" transform="translate(284.472656 0.765625)"/>
     <use xlink:href="#DejaVuSans-64" transform="translate(345.996094 0.765625)"/>
     <use xlink:href="#DejaVuSans-2d" transform="translate(409.472656 0.765625)"/>
     <use xlink:href="#DejaVuSans-Oblique-3c7" transform="translate(445.556641 0.765625)"/>
     <use xlink:href="#DejaVuSans-32" transform="translate(509.209036 39.046875) scale(0.7)"/>
     <use xlink:href="#DejaVuSans-20" transform="translate(556.479544 0.765625)"/>
     <use xlink:href="#DejaVuSans-3d" transform="translate(588.266654 0.765625)"/>
     <use xlink:href="#DejaVuSans-20" transform="translate(672.055716 0.765625)"/>
     <use xlink:href="#DejaVuSans-20" transform="translate(703.842826 0.765625)"/>
     <use xlink:href="#DejaVuSans-31" transform="translate(735.629935 0.765625)"/>
     <use xlink:href="#DejaVuSans-2e" transform="translate(799.252982 0.765625)"/>
     <use xlink:href="#DejaVuSans-32" transform="translate(825.540091 0.765625)"/>
     <use xlink:href="#DejaVuSans-30" transform="translate(889.163138 0.765625)"/>
     <use xlink:href="#DejaVuSans-37" transform="translate(952.786185 0.765625)"/>
    </g>
   </g>
  </g>
 </g>
 <defs>
  <clipPath id="pc0cdf47b4e">
   <rect x="55.949375" y="7.2" width="446.4" height="277.2"/>
  </clipPath>
 </defs>
</svg>
