<svg xmlns="http://www.w3.org/2000/svg" xmlns:xlink="http://www.w3.org/1999/xlink" height="290.031875pt" version="1.1" viewBox="0 0 397.949375 290.031875" width="397.949375pt">
 <metadata>
  <rdf:RDF xmlns:cc="http://creativecommons.org/ns#" xmlns:dc="http://purl.org/dc/elements/1.1/" xmlns:rdf="http://www.w3.org/1999/02/22-rdf-syntax-ns#">
   <cc:Work>
    <dc:type rdf:resource="http://purl.org/dc/dcmitype/StillImage"/>
    <dc:date>2021-08-01T10:10:25.023699</dc:date>
    <dc:format>image/svg+xml</dc:format>
    <dc:creator>
     <cc:Agent>
      <dc:title>Matplotlib v3.4.2, https://matplotlib.org/</dc:title>
     </cc:Agent>
    </dc:creator>
   </cc:Work>
  </rdf:RDF>
 </metadata>
 <defs>
  <style type="text/css">*{stroke-linecap:butt;stroke-linejoin:round;}</style>
 </defs>
 <g id="figure_1">
  <g id="patch_1">
   <path d="M -0 290.031875  L 397.949375 290.031875  L 397.949375 0  L -0 0  z " style="fill:#ffffff;"/>
  </g>
  <g id="axes_1">
   <g id="patch_2">
    <path d="M 55.949375 242.7975  L 390.749375 242.7975  L 390.749375 25.3575  L 55.949375 25.3575  z " style="fill:#ffffff;"/>
   </g>
   <g id="PolyCollection_1">
    <defs>
     <path d="M 71.167557 -253.493777  L 71.167557 -246.967793  L 74.241937 -236.817948  L 77.316317 -227.219466  L 80.390697 -218.142396  L 83.465077 -209.558413  L 86.539458 -201.440732  L 89.613838 -193.764022  L 92.688218 -186.504328  L 95.762598 -179.638998  L 98.836978 -173.146609  L 101.911358 -167.006901  L 104.985739 -161.200716  L 108.060119 -155.709936  L 111.134499 -150.517429  L 114.208879 -145.60699  L 117.283259 -140.963298  L 120.357639 -136.571861  L 123.43202 -132.418978  L 126.5064 -128.491689  L 129.58078 -124.777739  L 132.65516 -121.26554  L 135.72954 -117.944131  L 138.80392 -114.803149  L 141.878301 -111.832792  L 144.952681 -109.023792  L 148.027061 -106.367383  L 151.101441 -103.855277  L 154.175821 -101.479634  L 157.250201 -99.233041  L 160.324582 -97.108489  L 163.398962 -95.099347  L 166.473342 -93.199346  L 169.547722 -91.402558  L 172.622102 -89.703375  L 175.696482 -88.096496  L 178.770863 -86.576906  L 181.845243 -85.139864  L 184.919623 -83.780886  L 187.994003 -82.49573  L 191.068383 -81.280387  L 194.142763 -80.131064  L 197.217144 -79.044175  L 200.291524 -78.016328  L 203.365904 -77.044316  L 206.440284 -76.125106  L 209.514664 -75.25583  L 212.589044 -74.433775  L 215.663425 -73.656376  L 218.737805 -72.921207  L 221.812185 -72.225974  L 224.886565 -71.568507  L 227.960945 -70.946756  L 231.035325 -70.35878  L 234.109706 -69.802744  L 237.184086 -69.276913  L 240.258466 -68.779646  L 243.332846 -68.309392  L 246.407226 -67.864684  L 249.481606 -67.444133  L 252.555987 -67.046427  L 255.630367 -66.670326  L 258.704747 -66.314655  L 261.779127 -65.978305  L 264.853507 -65.660227  L 267.927887 -65.359427  L 271.002268 -65.074967  L 274.076648 -64.80596  L 277.151028 -64.551566  L 280.225408 -64.310991  L 283.299788 -64.083485  L 286.374168 -63.868337  L 289.448549 -63.664877  L 292.522929 -63.472469  L 295.597309 -63.290513  L 298.671689 -63.118442  L 301.746069 -62.955718  L 304.820449 -62.801833  L 307.89483 -62.656308  L 310.96921 -62.518688  L 314.04359 -62.388543  L 317.11797 -62.265469  L 320.19235 -62.14908  L 323.26673 -62.039014  L 326.341111 -61.934927  L 329.415491 -61.836494  L 332.489871 -61.743408  L 335.564251 -61.655379  L 338.638631 -61.572132  L 341.713011 -61.493407  L 344.787392 -61.418958  L 347.861772 -61.348554  L 350.936152 -61.281974  L 354.010532 -61.219011  L 357.084912 -61.159468  L 360.159292 -61.10316  L 363.233673 -61.04991  L 366.308053 -60.999554  L 369.382433 -60.951932  L 372.456813 -60.906898  L 375.531193 -60.86431  L 375.531193 -63.338256  L 375.531193 -63.338256  L 372.456813 -63.395477  L 369.382433 -63.455779  L 366.308053 -63.519328  L 363.233673 -63.5863  L 360.159292 -63.656878  L 357.084912 -63.731257  L 354.010532 -63.809642  L 350.936152 -63.892247  L 347.861772 -63.979301  L 344.787392 -64.071043  L 341.713011 -64.167726  L 338.638631 -64.269615  L 335.564251 -64.376991  L 332.489871 -64.49015  L 329.415491 -64.609402  L 326.341111 -64.735076  L 323.26673 -64.867518  L 320.19235 -65.007092  L 317.11797 -65.154183  L 314.04359 -65.309194  L 310.96921 -65.472553  L 307.89483 -65.64471  L 304.820449 -65.826137  L 301.746069 -66.017335  L 298.671689 -66.218829  L 295.597309 -66.431174  L 292.522929 -66.654954  L 289.448549 -66.890785  L 286.374168 -67.139316  L 283.299788 -67.40123  L 280.225408 -67.67725  L 277.151028 -67.968133  L 274.076648 -68.274681  L 271.002268 -68.597738  L 267.927887 -68.938191  L 264.853507 -69.296979  L 261.779127 -69.675087  L 258.704747 -70.073558  L 255.630367 -70.493487  L 252.555987 -70.936031  L 249.481606 -71.402405  L 246.407226 -71.893896  L 243.332846 -72.411853  L 240.258466 -72.957704  L 237.184086 -73.53295  L 234.109706 -74.139174  L 231.035325 -74.778044  L 227.960945 -75.451318  L 224.886565 -76.16085  L 221.812185 -76.908591  L 218.737805 -77.696599  L 215.663425 -78.527043  L 212.589044 -79.402209  L 209.514664 -80.324503  L 206.440284 -81.296465  L 203.365904 -82.320768  L 200.291524 -83.400232  L 197.217144 -84.537828  L 194.142763 -85.736685  L 191.068383 -87.000103  L 187.994003 -88.331558  L 184.919623 -89.734714  L 181.845243 -91.213433  L 178.770863 -92.771784  L 175.696482 -94.414055  L 172.622102 -96.144765  L 169.547722 -97.968678  L 166.473342 -99.890811  L 163.398962 -101.916455  L 160.324582 -104.051183  L 157.250201 -106.300871  L 154.175821 -108.671708  L 151.101441 -111.17022  L 148.027061 -113.803281  L 144.952681 -116.578137  L 141.878301 -119.502424  L 138.80392 -122.58419  L 135.72954 -125.831915  L 132.65516 -129.254535  L 129.58078 -132.86147  L 126.5064 -136.662646  L 123.43202 -140.668521  L 120.357639 -144.890121  L 117.283259 -149.339061  L 114.208879 -154.027585  L 111.134499 -158.968595  L 108.060119 -164.175688  L 104.985739 -169.663192  L 101.911358 -175.446209  L 98.836978 -181.540652  L 95.762598 -187.963292  L 92.688218 -194.731803  L 89.613838 -201.864811  L 86.539458 -209.381944  L 83.465077 -217.30389  L 80.390697 -225.652447  L 77.316317 -234.450589  L 74.241937 -243.722528  L 71.167557 -253.493777  z " id="me79970189a" style="stroke:#0000ff;stroke-opacity:0.1;"/>
    </defs>
    <g clip-path="url(#p09a25cd779)">
     <use style="fill:#0000ff;fill-opacity:0.1;stroke:#0000ff;stroke-opacity:0.1;" x="0" xlink:href="#me79970189a" y="290.031875"/>
    </g>
   </g>
   <g id="matplotlib.axis_1">
    <g id="xtick_1">
     <g id="line2d_1">
      <path clip-path="url(#p09a25cd779)" d="M 71.167557 242.7975  L 71.167557 25.3575  " style="fill:none;stroke:#b0b0b0;stroke-linecap:square;stroke-width:0.8;"/>
     </g>
     <g id="line2d_2">
      <defs>
       <path d="M 0 0  L 0 3.5  " id="m0740489472" style="stroke:#000000;stroke-width:0.8;"/>
      </defs>
      <g>
       <use style="stroke:#000000;stroke-width:0.8;" x="71.167557" xlink:href="#m0740489472" y="242.7975"/>
      </g>
     </g>
     <g id="text_1">
      <!-- 0.0000 -->
      <g transform="translate(46.674119 260.435313)scale(0.14 -0.14)">
       <defs>
        <path d="M 2034 4250  Q 1547 4250 1301 3770  Q 1056 3291 1056 2328  Q 1056 1369 1301 889  Q 1547 409 2034 409  Q 2525 409 2770 889  Q 3016 1369 3016 2328  Q 3016 3291 2770 3770  Q 2525 4250 2034 4250  z M 2034 4750  Q 2819 4750 3233 4129  Q 3647 3509 3647 2328  Q 3647 1150 3233 529  Q 2819 -91 2034 -91  Q 1250 -91 836 529  Q 422 1150 422 2328  Q 422 3509 836 4129  Q 1250 4750 2034 4750  z " id="DejaVuSans-30" transform="scale(0.015625)"/>
        <path d="M 684 794  L 1344 794  L 1344 0  L 684 0  L 684 794  z " id="DejaVuSans-2e" transform="scale(0.015625)"/>
       </defs>
       <use xlink:href="#DejaVuSans-30"/>
       <use x="63.623047" xlink:href="#DejaVuSans-2e"/>
       <use x="95.410156" xlink:href="#DejaVuSans-30"/>
       <use x="159.033203" xlink:href="#DejaVuSans-30"/>
       <use x="222.65625" xlink:href="#DejaVuSans-30"/>
       <use x="286.279297" xlink:href="#DejaVuSans-30"/>
      </g>
     </g>
    </g>
    <g id="xtick_2">
     <g id="line2d_3">
      <path clip-path="url(#p09a25cd779)" d="M 152.331193 242.7975  L 152.331193 25.3575  " style="fill:none;stroke:#b0b0b0;stroke-linecap:square;stroke-width:0.8;"/>
     </g>
     <g id="line2d_4">
      <g>
       <use style="stroke:#000000;stroke-width:0.8;" x="152.331193" xlink:href="#m0740489472" y="242.7975"/>
      </g>
     </g>
     <g id="text_2">
      <!-- 0.0002 -->
      <g transform="translate(127.837756 260.435313)scale(0.14 -0.14)">
       <defs>
        <path d="M 1228 531  L 3431 531  L 3431 0  L 469 0  L 469 531  Q 828 903 1448 1529  Q 2069 2156 2228 2338  Q 2531 2678 2651 2914  Q 2772 3150 2772 3378  Q 2772 3750 2511 3984  Q 2250 4219 1831 4219  Q 1534 4219 1204 4116  Q 875 4013 500 3803  L 500 4441  Q 881 4594 1212 4672  Q 1544 4750 1819 4750  Q 2544 4750 2975 4387  Q 3406 4025 3406 3419  Q 3406 3131 3298 2873  Q 3191 2616 2906 2266  Q 2828 2175 2409 1742  Q 1991 1309 1228 531  z " id="DejaVuSans-32" transform="scale(0.015625)"/>
       </defs>
       <use xlink:href="#DejaVuSans-30"/>
       <use x="63.623047" xlink:href="#DejaVuSans-2e"/>
       <use x="95.410156" xlink:href="#DejaVuSans-30"/>
       <use x="159.033203" xlink:href="#DejaVuSans-30"/>
       <use x="222.65625" xlink:href="#DejaVuSans-30"/>
       <use x="286.279297" xlink:href="#DejaVuSans-32"/>
      </g>
     </g>
    </g>
    <g id="xtick_3">
     <g id="line2d_5">
      <path clip-path="url(#p09a25cd779)" d="M 233.49483 242.7975  L 233.49483 25.3575  " style="fill:none;stroke:#b0b0b0;stroke-linecap:square;stroke-width:0.8;"/>
     </g>
     <g id="line2d_6">
      <g>
       <use style="stroke:#000000;stroke-width:0.8;" x="233.49483" xlink:href="#m0740489472" y="242.7975"/>
      </g>
     </g>
     <g id="text_3">
      <!-- 0.0004 -->
      <g transform="translate(209.001392 260.435313)scale(0.14 -0.14)">
       <defs>
        <path d="M 2419 4116  L 825 1625  L 2419 1625  L 2419 4116  z M 2253 4666  L 3047 4666  L 3047 1625  L 3713 1625  L 3713 1100  L 3047 1100  L 3047 0  L 2419 0  L 2419 1100  L 313 1100  L 313 1709  L 2253 4666  z " id="DejaVuSans-34" transform="scale(0.015625)"/>
       </defs>
       <use xlink:href="#DejaVuSans-30"/>
       <use x="63.623047" xlink:href="#DejaVuSans-2e"/>
       <use x="95.410156" xlink:href="#DejaVuSans-30"/>
       <use x="159.033203" xlink:href="#DejaVuSans-30"/>
       <use x="222.65625" xlink:href="#DejaVuSans-30"/>
       <use x="286.279297" xlink:href="#DejaVuSans-34"/>
      </g>
     </g>
    </g>
    <g id="xtick_4">
     <g id="line2d_7">
      <path clip-path="url(#p09a25cd779)" d="M 314.658466 242.7975  L 314.658466 25.3575  " style="fill:none;stroke:#b0b0b0;stroke-linecap:square;stroke-width:0.8;"/>
     </g>
     <g id="line2d_8">
      <g>
       <use style="stroke:#000000;stroke-width:0.8;" x="314.658466" xlink:href="#m0740489472" y="242.7975"/>
      </g>
     </g>
     <g id="text_4">
      <!-- 0.0006 -->
      <g transform="translate(290.165028 260.435313)scale(0.14 -0.14)">
       <defs>
        <path d="M 2113 2584  Q 1688 2584 1439 2293  Q 1191 2003 1191 1497  Q 1191 994 1439 701  Q 1688 409 2113 409  Q 2538 409 2786 701  Q 3034 994 3034 1497  Q 3034 2003 2786 2293  Q 2538 2584 2113 2584  z M 3366 4563  L 3366 3988  Q 3128 4100 2886 4159  Q 2644 4219 2406 4219  Q 1781 4219 1451 3797  Q 1122 3375 1075 2522  Q 1259 2794 1537 2939  Q 1816 3084 2150 3084  Q 2853 3084 3261 2657  Q 3669 2231 3669 1497  Q 3669 778 3244 343  Q 2819 -91 2113 -91  Q 1303 -91 875 529  Q 447 1150 447 2328  Q 447 3434 972 4092  Q 1497 4750 2381 4750  Q 2619 4750 2861 4703  Q 3103 4656 3366 4563  z " id="DejaVuSans-36" transform="scale(0.015625)"/>
       </defs>
       <use xlink:href="#DejaVuSans-30"/>
       <use x="63.623047" xlink:href="#DejaVuSans-2e"/>
       <use x="95.410156" xlink:href="#DejaVuSans-30"/>
       <use x="159.033203" xlink:href="#DejaVuSans-30"/>
       <use x="222.65625" xlink:href="#DejaVuSans-30"/>
       <use x="286.279297" xlink:href="#DejaVuSans-36"/>
      </g>
     </g>
    </g>
    <g id="text_5">
     <!-- Delay (s) -->
     <g transform="translate(187.454375 279.504375)scale(0.16 -0.16)">
      <defs>
       <path d="M 1259 4147  L 1259 519  L 2022 519  Q 2988 519 3436 956  Q 3884 1394 3884 2338  Q 3884 3275 3436 3711  Q 2988 4147 2022 4147  L 1259 4147  z M 628 4666  L 1925 4666  Q 3281 4666 3915 4102  Q 4550 3538 4550 2338  Q 4550 1131 3912 565  Q 3275 0 1925 0  L 628 0  L 628 4666  z " id="DejaVuSans-44" transform="scale(0.015625)"/>
       <path d="M 3597 1894  L 3597 1613  L 953 1613  Q 991 1019 1311 708  Q 1631 397 2203 397  Q 2534 397 2845 478  Q 3156 559 3463 722  L 3463 178  Q 3153 47 2828 -22  Q 2503 -91 2169 -91  Q 1331 -91 842 396  Q 353 884 353 1716  Q 353 2575 817 3079  Q 1281 3584 2069 3584  Q 2775 3584 3186 3129  Q 3597 2675 3597 1894  z M 3022 2063  Q 3016 2534 2758 2815  Q 2500 3097 2075 3097  Q 1594 3097 1305 2825  Q 1016 2553 972 2059  L 3022 2063  z " id="DejaVuSans-65" transform="scale(0.015625)"/>
       <path d="M 603 4863  L 1178 4863  L 1178 0  L 603 0  L 603 4863  z " id="DejaVuSans-6c" transform="scale(0.015625)"/>
       <path d="M 2194 1759  Q 1497 1759 1228 1600  Q 959 1441 959 1056  Q 959 750 1161 570  Q 1363 391 1709 391  Q 2188 391 2477 730  Q 2766 1069 2766 1631  L 2766 1759  L 2194 1759  z M 3341 1997  L 3341 0  L 2766 0  L 2766 531  Q 2569 213 2275 61  Q 1981 -91 1556 -91  Q 1019 -91 701 211  Q 384 513 384 1019  Q 384 1609 779 1909  Q 1175 2209 1959 2209  L 2766 2209  L 2766 2266  Q 2766 2663 2505 2880  Q 2244 3097 1772 3097  Q 1472 3097 1187 3025  Q 903 2953 641 2809  L 641 3341  Q 956 3463 1253 3523  Q 1550 3584 1831 3584  Q 2591 3584 2966 3190  Q 3341 2797 3341 1997  z " id="DejaVuSans-61" transform="scale(0.015625)"/>
       <path d="M 2059 -325  Q 1816 -950 1584 -1140  Q 1353 -1331 966 -1331  L 506 -1331  L 506 -850  L 844 -850  Q 1081 -850 1212 -737  Q 1344 -625 1503 -206  L 1606 56  L 191 3500  L 800 3500  L 1894 763  L 2988 3500  L 3597 3500  L 2059 -325  z " id="DejaVuSans-79" transform="scale(0.015625)"/>
       <path id="DejaVuSans-20" transform="scale(0.015625)"/>
       <path d="M 1984 4856  Q 1566 4138 1362 3434  Q 1159 2731 1159 2009  Q 1159 1288 1364 580  Q 1569 -128 1984 -844  L 1484 -844  Q 1016 -109 783 600  Q 550 1309 550 2009  Q 550 2706 781 3412  Q 1013 4119 1484 4856  L 1984 4856  z " id="DejaVuSans-28" transform="scale(0.015625)"/>
       <path d="M 2834 3397  L 2834 2853  Q 2591 2978 2328 3040  Q 2066 3103 1784 3103  Q 1356 3103 1142 2972  Q 928 2841 928 2578  Q 928 2378 1081 2264  Q 1234 2150 1697 2047  L 1894 2003  Q 2506 1872 2764 1633  Q 3022 1394 3022 966  Q 3022 478 2636 193  Q 2250 -91 1575 -91  Q 1294 -91 989 -36  Q 684 19 347 128  L 347 722  Q 666 556 975 473  Q 1284 391 1588 391  Q 1994 391 2212 530  Q 2431 669 2431 922  Q 2431 1156 2273 1281  Q 2116 1406 1581 1522  L 1381 1569  Q 847 1681 609 1914  Q 372 2147 372 2553  Q 372 3047 722 3315  Q 1072 3584 1716 3584  Q 2034 3584 2315 3537  Q 2597 3491 2834 3397  z " id="DejaVuSans-73" transform="scale(0.015625)"/>
       <path d="M 513 4856  L 1013 4856  Q 1481 4119 1714 3412  Q 1947 2706 1947 2009  Q 1947 1309 1714 600  Q 1481 -109 1013 -844  L 513 -844  Q 928 -128 1133 580  Q 1338 1288 1338 2009  Q 1338 2731 1133 3434  Q 928 4138 513 4856  z " id="DejaVuSans-29" transform="scale(0.015625)"/>
      </defs>
      <use xlink:href="#DejaVuSans-44"/>
      <use x="77.001953" xlink:href="#DejaVuSans-65"/>
      <use x="138.525391" xlink:href="#DejaVuSans-6c"/>
      <use x="166.308594" xlink:href="#DejaVuSans-61"/>
      <use x="227.587891" xlink:href="#DejaVuSans-79"/>
      <use x="286.767578" xlink:href="#DejaVuSans-20"/>
      <use x="318.554688" xlink:href="#DejaVuSans-28"/>
      <use x="357.568359" xlink:href="#DejaVuSans-73"/>
      <use x="409.667969" xlink:href="#DejaVuSans-29"/>
     </g>
    </g>
   </g>
   <g id="matplotlib.axis_2">
    <g id="ytick_1">
     <g id="line2d_9">
      <path clip-path="url(#p09a25cd779)" d="M 55.949375 205.54915  L 390.749375 205.54915  " style="fill:none;stroke:#b0b0b0;stroke-linecap:square;stroke-width:0.8;"/>
     </g>
     <g id="line2d_10">
      <defs>
       <path d="M 0 0  L -3.5 0  " id="m57a65b1610" style="stroke:#000000;stroke-width:0.8;"/>
      </defs>
      <g>
       <use style="stroke:#000000;stroke-width:0.8;" x="55.949375" xlink:href="#m57a65b1610" y="205.54915"/>
      </g>
     </g>
     <g id="text_6">
      <!-- 0.2 -->
      <g transform="translate(26.685 210.868056)scale(0.14 -0.14)">
       <use xlink:href="#DejaVuSans-30"/>
       <use x="63.623047" xlink:href="#DejaVuSans-2e"/>
       <use x="95.410156" xlink:href="#DejaVuSans-32"/>
      </g>
     </g>
    </g>
    <g id="ytick_2">
     <g id="line2d_11">
      <path clip-path="url(#p09a25cd779)" d="M 55.949375 158.052689  L 390.749375 158.052689  " style="fill:none;stroke:#b0b0b0;stroke-linecap:square;stroke-width:0.8;"/>
     </g>
     <g id="line2d_12">
      <g>
       <use style="stroke:#000000;stroke-width:0.8;" x="55.949375" xlink:href="#m57a65b1610" y="158.052689"/>
      </g>
     </g>
     <g id="text_7">
      <!-- 0.4 -->
      <g transform="translate(26.685 163.371595)scale(0.14 -0.14)">
       <use xlink:href="#DejaVuSans-30"/>
       <use x="63.623047" xlink:href="#DejaVuSans-2e"/>
       <use x="95.410156" xlink:href="#DejaVuSans-34"/>
      </g>
     </g>
    </g>
    <g id="ytick_3">
     <g id="line2d_13">
      <path clip-path="url(#p09a25cd779)" d="M 55.949375 110.556228  L 390.749375 110.556228  " style="fill:none;stroke:#b0b0b0;stroke-linecap:square;stroke-width:0.8;"/>
     </g>
     <g id="line2d_14">
      <g>
       <use style="stroke:#000000;stroke-width:0.8;" x="55.949375" xlink:href="#m57a65b1610" y="110.556228"/>
      </g>
     </g>
     <g id="text_8">
      <!-- 0.6 -->
      <g transform="translate(26.685 115.875134)scale(0.14 -0.14)">
       <use xlink:href="#DejaVuSans-30"/>
       <use x="63.623047" xlink:href="#DejaVuSans-2e"/>
       <use x="95.410156" xlink:href="#DejaVuSans-36"/>
      </g>
     </g>
    </g>
    <g id="ytick_4">
     <g id="line2d_15">
      <path clip-path="url(#p09a25cd779)" d="M 55.949375 63.059767  L 390.749375 63.059767  " style="fill:none;stroke:#b0b0b0;stroke-linecap:square;stroke-width:0.8;"/>
     </g>
     <g id="line2d_16">
      <g>
       <use style="stroke:#000000;stroke-width:0.8;" x="55.949375" xlink:href="#m57a65b1610" y="63.059767"/>
      </g>
     </g>
     <g id="text_9">
      <!-- 0.8 -->
      <g transform="translate(26.685 68.378673)scale(0.14 -0.14)">
       <defs>
        <path d="M 2034 2216  Q 1584 2216 1326 1975  Q 1069 1734 1069 1313  Q 1069 891 1326 650  Q 1584 409 2034 409  Q 2484 409 2743 651  Q 3003 894 3003 1313  Q 3003 1734 2745 1975  Q 2488 2216 2034 2216  z M 1403 2484  Q 997 2584 770 2862  Q 544 3141 544 3541  Q 544 4100 942 4425  Q 1341 4750 2034 4750  Q 2731 4750 3128 4425  Q 3525 4100 3525 3541  Q 3525 3141 3298 2862  Q 3072 2584 2669 2484  Q 3125 2378 3379 2068  Q 3634 1759 3634 1313  Q 3634 634 3220 271  Q 2806 -91 2034 -91  Q 1263 -91 848 271  Q 434 634 434 1313  Q 434 1759 690 2068  Q 947 2378 1403 2484  z M 1172 3481  Q 1172 3119 1398 2916  Q 1625 2713 2034 2713  Q 2441 2713 2670 2916  Q 2900 3119 2900 3481  Q 2900 3844 2670 4047  Q 2441 4250 2034 4250  Q 1625 4250 1398 4047  Q 1172 3844 1172 3481  z " id="DejaVuSans-38" transform="scale(0.015625)"/>
       </defs>
       <use xlink:href="#DejaVuSans-30"/>
       <use x="63.623047" xlink:href="#DejaVuSans-2e"/>
       <use x="95.410156" xlink:href="#DejaVuSans-38"/>
      </g>
     </g>
    </g>
    <g id="text_10">
     <!-- P(1) -->
     <g transform="translate(19.3575 150.23375)rotate(-90)scale(0.16 -0.16)">
      <defs>
       <path d="M 1259 4147  L 1259 2394  L 2053 2394  Q 2494 2394 2734 2622  Q 2975 2850 2975 3272  Q 2975 3691 2734 3919  Q 2494 4147 2053 4147  L 1259 4147  z M 628 4666  L 2053 4666  Q 2838 4666 3239 4311  Q 3641 3956 3641 3272  Q 3641 2581 3239 2228  Q 2838 1875 2053 1875  L 1259 1875  L 1259 0  L 628 0  L 628 4666  z " id="DejaVuSans-50" transform="scale(0.015625)"/>
       <path d="M 794 531  L 1825 531  L 1825 4091  L 703 3866  L 703 4441  L 1819 4666  L 2450 4666  L 2450 531  L 3481 531  L 3481 0  L 794 0  L 794 531  z " id="DejaVuSans-31" transform="scale(0.015625)"/>
      </defs>
      <use xlink:href="#DejaVuSans-50"/>
      <use x="60.302734" xlink:href="#DejaVuSans-28"/>
      <use x="99.316406" xlink:href="#DejaVuSans-31"/>
      <use x="162.939453" xlink:href="#DejaVuSans-29"/>
     </g>
    </g>
   </g>
   <g id="LineCollection_1">
    <path clip-path="url(#p09a25cd779)" d="M 71.167557 39.582219  L 71.167557 35.241136  " style="fill:none;stroke:#ff0000;stroke-width:1.5;"/>
    <path clip-path="url(#p09a25cd779)" d="M 91.458466 108.73367  L 91.458466 101.454599  " style="fill:none;stroke:#ff0000;stroke-width:1.5;"/>
    <path clip-path="url(#p09a25cd779)" d="M 111.749375 146.12509  L 111.749375 138.632623  " style="fill:none;stroke:#ff0000;stroke-width:1.5;"/>
    <path clip-path="url(#p09a25cd779)" d="M 132.040284 165.50488  L 132.040284 158.199931  " style="fill:none;stroke:#ff0000;stroke-width:1.5;"/>
    <path clip-path="url(#p09a25cd779)" d="M 152.331193 188.519293  L 152.331193 181.73205  " style="fill:none;stroke:#ff0000;stroke-width:1.5;"/>
    <path clip-path="url(#p09a25cd779)" d="M 172.622102 197.393141  L 172.622102 190.906857  " style="fill:none;stroke:#ff0000;stroke-width:1.5;"/>
    <path clip-path="url(#p09a25cd779)" d="M 192.913011 209.248506  L 192.913011 203.274686  " style="fill:none;stroke:#ff0000;stroke-width:1.5;"/>
    <path clip-path="url(#p09a25cd779)" d="M 213.20392 213.415196  L 213.20392 207.65736  " style="fill:none;stroke:#ff0000;stroke-width:1.5;"/>
    <path clip-path="url(#p09a25cd779)" d="M 233.49483 213.877517  L 233.49483 208.144968  " style="fill:none;stroke:#ff0000;stroke-width:1.5;"/>
    <path clip-path="url(#p09a25cd779)" d="M 253.785739 221.48479  L 253.785739 216.211527  " style="fill:none;stroke:#ff0000;stroke-width:1.5;"/>
    <path clip-path="url(#p09a25cd779)" d="M 274.076648 223.322308  L 274.076648 218.173726  " style="fill:none;stroke:#ff0000;stroke-width:1.5;"/>
    <path clip-path="url(#p09a25cd779)" d="M 294.367557 230.412139  L 294.367557 225.807798  " style="fill:none;stroke:#ff0000;stroke-width:1.5;"/>
    <path clip-path="url(#p09a25cd779)" d="M 314.658466 231.322831  L 314.658466 226.796964  " style="fill:none;stroke:#ff0000;stroke-width:1.5;"/>
    <path clip-path="url(#p09a25cd779)" d="M 334.949375 228.130952  L 334.949375 223.339338  " style="fill:none;stroke:#ff0000;stroke-width:1.5;"/>
    <path clip-path="url(#p09a25cd779)" d="M 355.240284 231.095259  L 355.240284 226.549572  " style="fill:none;stroke:#ff0000;stroke-width:1.5;"/>
    <path clip-path="url(#p09a25cd779)" d="M 375.531193 232.913864  L 375.531193 228.530684  " style="fill:none;stroke:#ff0000;stroke-width:1.5;"/>
   </g>
   <g id="line2d_17">
    <path clip-path="url(#p09a25cd779)" d="M 71.167557 39.80109  L 74.241937 49.755854  L 77.316317 59.18638  L 80.390697 68.120277  L 83.465077 76.583698  L 86.539458 84.601418  L 89.613838 92.19691  L 92.688218 99.392408  L 95.762598 106.208978  L 98.836978 112.666573  L 101.911358 118.7841  L 104.985739 124.579465  L 108.060119 130.069636  L 111.134499 135.270683  L 114.208879 140.197833  L 117.283259 144.86551  L 120.357639 149.287378  L 123.43202 153.476382  L 126.5064 157.444785  L 129.58078 161.204204  L 132.65516 164.765644  L 135.72954 168.139533  L 138.80392 171.335745  L 141.878301 174.36364  L 144.952681 177.232079  L 148.027061 179.949461  L 151.101441 182.52374  L 154.175821 184.962452  L 157.250201 187.272738  L 160.324582 189.461359  L 163.398962 191.534723  L 166.473342 193.4989  L 169.547722 195.35964  L 172.622102 197.122389  L 175.696482 198.792308  L 178.770863 200.374287  L 181.845243 201.872955  L 184.919623 203.2927  L 187.994003 204.637679  L 191.068383 205.911829  L 194.142763 207.11888  L 197.217144 208.262365  L 200.291524 209.345632  L 203.365904 210.371851  L 206.440284 211.344029  L 209.514664 212.265009  L 212.589044 213.137489  L 215.663425 213.964022  L 218.737805 214.747029  L 221.812185 215.488801  L 224.886565 216.191509  L 227.960945 216.857212  L 231.035325 217.487858  L 234.109706 218.085292  L 237.184086 218.651265  L 240.258466 219.187432  L 243.332846 219.695363  L 246.407226 220.176546  L 249.481606 220.632389  L 252.555987 221.064227  L 255.630367 221.473323  L 258.704747 221.860875  L 261.779127 222.228018  L 264.853507 222.575826  L 267.927887 222.905319  L 271.002268 223.217459  L 274.076648 223.513162  L 277.151028 223.793292  L 280.225408 224.05867  L 283.299788 224.310073  L 286.374168 224.548236  L 289.448549 224.773858  L 292.522929 224.987597  L 295.597309 225.190081  L 298.671689 225.381902  L 301.746069 225.56362  L 304.820449 225.73577  L 307.89483 225.898853  L 310.96921 226.053348  L 314.04359 226.199707  L 317.11797 226.338359  L 320.19235 226.469709  L 323.26673 226.594142  L 326.341111 226.712022  L 329.415491 226.823694  L 332.489871 226.929485  L 335.564251 227.029705  L 338.638631 227.124648  L 341.713011 227.21459  L 344.787392 227.299796  L 347.861772 227.380515  L 350.936152 227.456983  L 354.010532 227.529424  L 357.084912 227.59805  L 360.159292 227.663062  L 363.233673 227.724651  L 366.308053 227.782996  L 369.382433 227.838269  L 372.456813 227.89063  L 375.531193 227.940235  " style="fill:none;stroke:#0000ff;stroke-linecap:square;stroke-width:2;"/>
   </g>
   <g id="line2d_18">
    <defs>
     <path d="M 0 2.25  C 0.596707 2.25 1.169055 2.012926 1.59099 1.59099  C 2.012926 1.169055 2.25 0.596707 2.25 0  C 2.25 -0.596707 2.012926 -1.169055 1.59099 -1.59099  C 1.169055 -2.012926 0.596707 -2.25 0 -2.25  C -0.596707 -2.25 -1.169055 -2.012926 -1.59099 -1.59099  C -2.012926 -1.169055 -2.25 -0.596707 -2.25 0  C -2.25 0.596707 -2.012926 1.169055 -1.59099 1.59099  C -1.169055 2.012926 -0.596707 2.25 0 2.25  z " id="m975cd1fb3c" style="stroke:#ff0000;"/>
    </defs>
    <g clip-path="url(#p09a25cd779)">
     <use style="fill:#ff0000;stroke:#ff0000;" x="71.167557" xlink:href="#m975cd1fb3c" y="37.411678"/>
     <use style="fill:#ff0000;stroke:#ff0000;" x="91.458466" xlink:href="#m975cd1fb3c" y="105.094135"/>
     <use style="fill:#ff0000;stroke:#ff0000;" x="111.749375" xlink:href="#m975cd1fb3c" y="142.378856"/>
     <use style="fill:#ff0000;stroke:#ff0000;" x="132.040284" xlink:href="#m975cd1fb3c" y="161.852405"/>
     <use style="fill:#ff0000;stroke:#ff0000;" x="152.331193" xlink:href="#m975cd1fb3c" y="185.125671"/>
     <use style="fill:#ff0000;stroke:#ff0000;" x="172.622102" xlink:href="#m975cd1fb3c" y="194.149999"/>
     <use style="fill:#ff0000;stroke:#ff0000;" x="192.913011" xlink:href="#m975cd1fb3c" y="206.261596"/>
     <use style="fill:#ff0000;stroke:#ff0000;" x="213.20392" xlink:href="#m975cd1fb3c" y="210.536278"/>
     <use style="fill:#ff0000;stroke:#ff0000;" x="233.49483" xlink:href="#m975cd1fb3c" y="211.011243"/>
     <use style="fill:#ff0000;stroke:#ff0000;" x="253.785739" xlink:href="#m975cd1fb3c" y="218.848159"/>
     <use style="fill:#ff0000;stroke:#ff0000;" x="274.076648" xlink:href="#m975cd1fb3c" y="220.748017"/>
     <use style="fill:#ff0000;stroke:#ff0000;" x="294.367557" xlink:href="#m975cd1fb3c" y="228.109968"/>
     <use style="fill:#ff0000;stroke:#ff0000;" x="314.658466" xlink:href="#m975cd1fb3c" y="229.059898"/>
     <use style="fill:#ff0000;stroke:#ff0000;" x="334.949375" xlink:href="#m975cd1fb3c" y="225.735145"/>
     <use style="fill:#ff0000;stroke:#ff0000;" x="355.240284" xlink:href="#m975cd1fb3c" y="228.822415"/>
     <use style="fill:#ff0000;stroke:#ff0000;" x="375.531193" xlink:href="#m975cd1fb3c" y="230.722274"/>
    </g>
   </g>
   <g id="patch_3">
    <path d="M 55.949375 242.7975  L 55.949375 25.3575  " style="fill:none;stroke:#000000;stroke-linecap:square;stroke-linejoin:miter;stroke-width:0.8;"/>
   </g>
   <g id="patch_4">
    <path d="M 390.749375 242.7975  L 390.749375 25.3575  " style="fill:none;stroke:#000000;stroke-linecap:square;stroke-linejoin:miter;stroke-width:0.8;"/>
   </g>
   <g id="patch_5">
    <path d="M 55.949375 242.7975  L 390.749375 242.7975  " style="fill:none;stroke:#000000;stroke-linecap:square;stroke-linejoin:miter;stroke-width:0.8;"/>
   </g>
   <g id="patch_6">
    <path d="M 55.949375 25.3575  L 390.749375 25.3575  " style="fill:none;stroke:#000000;stroke-linecap:square;stroke-linejoin:miter;stroke-width:0.8;"/>
   </g>
   <g id="text_11">
    <g id="patch_7">
     <path d="M 180.529375 58.076188  L 333.129375 58.076188  L 333.129375 36.126813  L 180.529375 36.126813  z " style="fill:#ffffff;stroke:#000000;stroke-linejoin:miter;"/>
    </g>
    <!-- $T_1$ = 0.14 ± 0.00 ms -->
    <g transform="translate(184.729375 50.964625)scale(0.14 -0.14)">
     <defs>
      <path d="M 378 4666  L 4325 4666  L 4225 4134  L 2559 4134  L 1759 0  L 1125 0  L 1925 4134  L 275 4134  L 378 4666  z " id="DejaVuSans-Oblique-54" transform="scale(0.015625)"/>
      <path d="M 678 2906  L 4684 2906  L 4684 2381  L 678 2381  L 678 2906  z M 678 1631  L 4684 1631  L 4684 1100  L 678 1100  L 678 1631  z " id="DejaVuSans-3d" transform="scale(0.015625)"/>
      <path d="M 2944 4013  L 2944 2803  L 4684 2803  L 4684 2272  L 2944 2272  L 2944 1063  L 2419 1063  L 2419 2272  L 678 2272  L 678 2803  L 2419 2803  L 2419 4013  L 2944 4013  z M 678 531  L 4684 531  L 4684 0  L 678 0  L 678 531  z " id="DejaVuSans-b1" transform="scale(0.015625)"/>
      <path d="M 3328 2828  Q 3544 3216 3844 3400  Q 4144 3584 4550 3584  Q 5097 3584 5394 3201  Q 5691 2819 5691 2113  L 5691 0  L 5113 0  L 5113 2094  Q 5113 2597 4934 2840  Q 4756 3084 4391 3084  Q 3944 3084 3684 2787  Q 3425 2491 3425 1978  L 3425 0  L 2847 0  L 2847 2094  Q 2847 2600 2669 2842  Q 2491 3084 2119 3084  Q 1678 3084 1418 2786  Q 1159 2488 1159 1978  L 1159 0  L 581 0  L 581 3500  L 1159 3500  L 1159 2956  Q 1356 3278 1631 3431  Q 1906 3584 2284 3584  Q 2666 3584 2933 3390  Q 3200 3197 3328 2828  z " id="DejaVuSans-6d" transform="scale(0.015625)"/>
     </defs>
     <use transform="translate(0 0.78125)" xlink:href="#DejaVuSans-Oblique-54"/>
     <use transform="translate(61.083984 -15.625)scale(0.7)" xlink:href="#DejaVuSans-31"/>
     <use transform="translate(108.354492 0.78125)" xlink:href="#DejaVuSans-20"/>
     <use transform="translate(140.141602 0.78125)" xlink:href="#DejaVuSans-3d"/>
     <use transform="translate(223.930664 0.78125)" xlink:href="#DejaVuSans-20"/>
     <use transform="translate(255.717773 0.78125)" xlink:href="#DejaVuSans-30"/>
     <use transform="translate(319.34082 0.78125)" xlink:href="#DejaVuSans-2e"/>
     <use transform="translate(351.12793 0.78125)" xlink:href="#DejaVuSans-31"/>
     <use transform="translate(414.750977 0.78125)" xlink:href="#DejaVuSans-34"/>
     <use transform="translate(478.374023 0.78125)" xlink:href="#DejaVuSans-20"/>
     <use transform="translate(510.161133 0.78125)" xlink:href="#DejaVuSans-b1"/>
     <use transform="translate(593.950195 0.78125)" xlink:href="#DejaVuSans-20"/>
     <use transform="translate(625.737305 0.78125)" xlink:href="#DejaVuSans-30"/>
     <use transform="translate(689.360352 0.78125)" xlink:href="#DejaVuSans-2e"/>
     <use transform="translate(721.147461 0.78125)" xlink:href="#DejaVuSans-30"/>
     <use transform="translate(784.770508 0.78125)" xlink:href="#DejaVuSans-30"/>
     <use transform="translate(848.393555 0.78125)" xlink:href="#DejaVuSans-20"/>
     <use transform="translate(880.180664 0.78125)" xlink:href="#DejaVuSans-6d"/>
     <use transform="translate(977.592773 0.78125)" xlink:href="#DejaVuSans-73"/>
    </g>
   </g>
   <g id="text_12">
    <!-- Qubit 0 -->
    <g transform="translate(193.911875 19.3575)scale(0.16 -0.16)">
     <defs>
      <path d="M 2522 4238  Q 1834 4238 1429 3725  Q 1025 3213 1025 2328  Q 1025 1447 1429 934  Q 1834 422 2522 422  Q 3209 422 3611 934  Q 4013 1447 4013 2328  Q 4013 3213 3611 3725  Q 3209 4238 2522 4238  z M 3406 84  L 4238 -825  L 3475 -825  L 2784 -78  Q 2681 -84 2626 -87  Q 2572 -91 2522 -91  Q 1538 -91 948 567  Q 359 1225 359 2328  Q 359 3434 948 4092  Q 1538 4750 2522 4750  Q 3503 4750 4090 4092  Q 4678 3434 4678 2328  Q 4678 1516 4351 937  Q 4025 359 3406 84  z " id="DejaVuSans-51" transform="scale(0.015625)"/>
      <path d="M 544 1381  L 544 3500  L 1119 3500  L 1119 1403  Q 1119 906 1312 657  Q 1506 409 1894 409  Q 2359 409 2629 706  Q 2900 1003 2900 1516  L 2900 3500  L 3475 3500  L 3475 0  L 2900 0  L 2900 538  Q 2691 219 2414 64  Q 2138 -91 1772 -91  Q 1169 -91 856 284  Q 544 659 544 1381  z M 1991 3584  L 1991 3584  z " id="DejaVuSans-75" transform="scale(0.015625)"/>
      <path d="M 3116 1747  Q 3116 2381 2855 2742  Q 2594 3103 2138 3103  Q 1681 3103 1420 2742  Q 1159 2381 1159 1747  Q 1159 1113 1420 752  Q 1681 391 2138 391  Q 2594 391 2855 752  Q 3116 1113 3116 1747  z M 1159 2969  Q 1341 3281 1617 3432  Q 1894 3584 2278 3584  Q 2916 3584 3314 3078  Q 3713 2572 3713 1747  Q 3713 922 3314 415  Q 2916 -91 2278 -91  Q 1894 -91 1617 61  Q 1341 213 1159 525  L 1159 0  L 581 0  L 581 4863  L 1159 4863  L 1159 2969  z " id="DejaVuSans-62" transform="scale(0.015625)"/>
      <path d="M 603 3500  L 1178 3500  L 1178 0  L 603 0  L 603 3500  z M 603 4863  L 1178 4863  L 1178 4134  L 603 4134  L 603 4863  z " id="DejaVuSans-69" transform="scale(0.015625)"/>
      <path d="M 1172 4494  L 1172 3500  L 2356 3500  L 2356 3053  L 1172 3053  L 1172 1153  Q 1172 725 1289 603  Q 1406 481 1766 481  L 2356 481  L 2356 0  L 1766 0  Q 1100 0 847 248  Q 594 497 594 1153  L 594 3053  L 172 3053  L 172 3500  L 594 3500  L 594 4494  L 1172 4494  z " id="DejaVuSans-74" transform="scale(0.015625)"/>
     </defs>
     <use xlink:href="#DejaVuSans-51"/>
     <use x="78.710938" xlink:href="#DejaVuSans-75"/>
     <use x="142.089844" xlink:href="#DejaVuSans-62"/>
     <use x="205.566406" xlink:href="#DejaVuSans-69"/>
     <use x="233.349609" xlink:href="#DejaVuSans-74"/>
     <use x="272.558594" xlink:href="#DejaVuSans-20"/>
     <use x="304.345703" xlink:href="#DejaVuSans-30"/>
    </g>
   </g>
  </g>
 </g>
 <defs>
  <clipPath id="p09a25cd779">
   <rect height="217.44" width="334.8" x="55.949375" y="25.3575"/>
  </clipPath>
 </defs>
</svg>